<svg width="190" height="188" viewBox="0 0 190 188" fill="none" xmlns="http://www.w3.org/2000/svg">
<ellipse cx="94.9591" cy="93.733" rx="94.9591" ry="93.733" fill="#FEF1E1"/>
<path d="M82.316 61.8131C82.4664 61.7424 82.5997 61.64 82.707 61.5131C82.8142 61.3861 82.8927 61.2375 82.9373 61.0774C82.5789 61.0037 82.2113 60.9853 81.8474 61.0229L80.8038 61.0747L80.1171 61.1101C79.6893 61.1346 79.6812 61.3227 79.8446 61.6169C79.9209 61.7559 80.1171 61.8676 80.1989 62.0175C80.2806 62.1673 80.2942 62.3281 80.3923 62.4425C80.6648 62.7695 80.7411 62.5842 81.0926 62.3717C81.4441 62.1592 81.9155 62.0311 82.316 61.8131Z" fill="white"/>
<path d="M77.2098 36.0361L87.1738 28.7984L81.3049 36.148L77.2098 36.0361Z" fill="#F28705"/>
<path d="M86.4996 29.9143L83.7092 39.6806L80.6307 37.2639L86.4996 29.9143Z" fill="#F28705"/>
<path d="M86.4996 29.9143L83.7092 39.6806L80.6307 37.2639L86.4996 29.9143Z" fill="url(#paint0_linear)"/>
<path d="M81.1599 40.9968L80.4732 36.9192L86.3422 29.5695L81.1599 40.9968Z" fill="#F28705"/>
<path d="M95.7681 49.3715C95.9351 49.3118 96.0831 49.2256 96.2021 49.1185C96.3211 49.0115 96.4083 48.8863 96.4578 48.7513C96.0599 48.6891 95.6519 48.6736 95.2479 48.7054L94.0895 48.749L93.3273 48.7789C92.8524 48.7995 92.8433 48.958 93.0248 49.2061C93.1095 49.3232 93.3273 49.4174 93.418 49.5437C93.5087 49.6701 93.5239 49.8056 93.6327 49.9021C93.9352 50.1777 94.0199 50.0215 94.4101 49.8423C94.8003 49.6632 95.3235 49.5552 95.7681 49.3715Z" fill="white"/>
<path d="M101.831 26.8568L109.528 38.1448L102.297 31.0709L101.831 26.8568Z" fill="#F28705"/>
<path d="M108.323 36.3749L99.6292 32.2154L101.263 29.4393L108.323 36.3749Z" fill="#F28705"/>
<path d="M107.618 36.5536L98.9235 32.3941L100.557 29.618L107.618 36.5536Z" fill="url(#paint1_linear)"/>
<path d="M97.0399 29.5206L100.478 29.4061L107.717 36.5705L97.0399 29.5206Z" fill="#F28705"/>
<path d="M109.439 38.1957L102.793 30.7844L101.776 26.8887L102.297 31.0709L109.439 38.1957Z" fill="url(#paint2_linear)"/>
<defs>
<linearGradient id="paint0_linear" x1="2119.27" y1="-851.094" x2="2507.51" y2="-683.388" gradientUnits="userSpaceOnUse">
<stop offset="0.01"/>
<stop offset="0.13" stop-opacity="0.69"/>
<stop offset="0.25" stop-opacity="0.32"/>
<stop offset="1" stop-opacity="0"/>
</linearGradient>
<linearGradient id="paint1_linear" x1="1136.67" y1="2210" x2="944.885" y2="2514.39" gradientUnits="userSpaceOnUse">
<stop offset="0.01"/>
<stop offset="0.13" stop-opacity="0.69"/>
<stop offset="0.25" stop-opacity="0.32"/>
<stop offset="1" stop-opacity="0"/>
</linearGradient>
<linearGradient id="paint2_linear" x1="1796.27" y1="3096" x2="1697.96" y2="3152.76" gradientUnits="userSpaceOnUse">
<stop offset="0.01"/>
<stop offset="0.13" stop-opacity="0.69"/>
<stop offset="0.25" stop-opacity="0.32"/>
<stop offset="1" stop-opacity="0"/>
</linearGradient>
</defs>
</svg>
