<svg xmlns="http://www.w3.org/2000/svg" width="181.453" height="50.633" viewBox="0 0 181.453 50.633"><g id="logo" transform="translate(-36.832 -45.549)"><path id="Path_43" data-name="Path 43" d="M49.7,45.549h4.194V70.223H49.7V61.375H41.062v8.848h-4.23V45.549h4.23V57.182H49.7Z" fill="#f28705"></path><path id="Path_44" data-name="Path 44" d="M56.219,61.375a9.3,9.3,0,0,1,.758-3.754,9.565,9.565,0,0,1,2.061-3.031,9.947,9.947,0,0,1,3.049-2.045,9.675,9.675,0,0,1,7.508,0,9.588,9.588,0,0,1,5.076,5.076,9.321,9.321,0,0,1,.758,3.754v8.847H71.34v-.987a9.169,9.169,0,0,1-5.5,1.727,10.238,10.238,0,0,1-3.965-.74,8.832,8.832,0,0,1-3.031-2.045,9.219,9.219,0,0,1-1.939-3.048,10.148,10.148,0,0,1-.687-3.754m4.088,0a5.23,5.23,0,0,0,.442,2.132,5.569,5.569,0,0,0,2.935,2.926,5.279,5.279,0,0,0,2.14.44,5.664,5.664,0,0,0,2.139-.4,5.2,5.2,0,0,0,1.75-1.145A5.659,5.659,0,0,0,70.9,63.578a5.422,5.422,0,0,0,.442-2.2,5.254,5.254,0,0,0-.442-2.133,5.581,5.581,0,0,0-2.935-2.925,5.41,5.41,0,0,0-4.279,0,5.572,5.572,0,0,0-2.935,2.925,5.241,5.241,0,0,0-.442,2.133" fill="#f28705"></path><path id="Path_45" data-name="Path 45" d="M77.4,61.411a9.608,9.608,0,0,1,.74-3.789,9.33,9.33,0,0,1,2.045-3.031,9.649,9.649,0,0,1,3.049-2.027,9.516,9.516,0,0,1,3.753-.74,9.3,9.3,0,0,1,3.754.758,9.581,9.581,0,0,1,5.076,5.075,9.675,9.675,0,0,1,0,7.508,9.588,9.588,0,0,1-5.076,5.076A9.338,9.338,0,0,1,86.989,71a8.13,8.13,0,0,1-3.049-.617,7.92,7.92,0,0,1-2.449-1.462V77.2H77.4Zm4.089,0a5.249,5.249,0,0,0,.44,2.133,5.569,5.569,0,0,0,2.926,2.925,5.376,5.376,0,0,0,4.265,0,5.578,5.578,0,0,0,2.926-2.925,5.388,5.388,0,0,0,0-4.265,5.575,5.575,0,0,0-2.926-2.926,5.376,5.376,0,0,0-4.265,0,5.566,5.566,0,0,0-2.926,2.926,5.241,5.241,0,0,0-.44,2.132" fill="#f28705"></path><path id="Path_46" data-name="Path 46" d="M98.551,61.411a9.608,9.608,0,0,1,.74-3.789,9.33,9.33,0,0,1,2.045-3.031,9.649,9.649,0,0,1,3.049-2.027,9.516,9.516,0,0,1,3.753-.74,9.3,9.3,0,0,1,3.754.758,9.581,9.581,0,0,1,5.076,5.075,9.675,9.675,0,0,1,0,7.508,9.588,9.588,0,0,1-5.076,5.076,9.338,9.338,0,0,1-3.754.757,8.121,8.121,0,0,1-3.048-.617,7.926,7.926,0,0,1-2.45-1.462V77.2H98.551V61.411Zm4.089,0a5.249,5.249,0,0,0,.44,2.133,5.569,5.569,0,0,0,2.926,2.925,5.376,5.376,0,0,0,4.265,0,5.6,5.6,0,0,0,1.744-1.181,5.664,5.664,0,0,0,1.182-1.744,5.388,5.388,0,0,0,0-4.265,5.575,5.575,0,0,0-2.926-2.926,5.376,5.376,0,0,0-4.265,0,5.566,5.566,0,0,0-2.926,2.926,5.241,5.241,0,0,0-.44,2.132" fill="#f28705"></path><path id="Path_47" data-name="Path 47" d="M131.472,52.6h4.089V63.1a9.471,9.471,0,0,1-.354,2.591,7.6,7.6,0,0,1-1.1,2.309,7.459,7.459,0,0,1-1.862,1.832,7.59,7.59,0,0,1-2.642,1.128V77.2h-4.089V70.928a8.716,8.716,0,0,1-2.432-1.2,9.034,9.034,0,0,1-1.885-1.78,7.837,7.837,0,0,1-1.234-2.238,7.688,7.688,0,0,1-.441-2.608V52.6h4.16V63.1a3.845,3.845,0,0,0,1.128,2.749,4.088,4.088,0,0,0,1.233.846,3.643,3.643,0,0,0,1.516.318,3.936,3.936,0,0,0,2.749-1.128,4.105,4.105,0,0,0,.846-1.234,3.645,3.645,0,0,0,.317-1.516Z" fill="#f28705"></path><path id="Path_48" data-name="Path 48" d="M135.771,49.779V45.55h34.4v4.229H146.416V70.223h-4.194V49.779Z" fill="#083a59"></path><path id="Path_49" data-name="Path 49" d="M150.964,61.375a9.3,9.3,0,0,1,.757-3.754,9.538,9.538,0,0,1,2.063-3.031,9.935,9.935,0,0,1,3.049-2.045,9.675,9.675,0,0,1,7.508,0,9.581,9.581,0,0,1,5.075,5.076,9.321,9.321,0,0,1,.758,3.754v8.847h-4.089v-.987a9.168,9.168,0,0,1-5.5,1.727,10.235,10.235,0,0,1-3.965-.74,8.827,8.827,0,0,1-3.032-2.045,9.233,9.233,0,0,1-1.938-3.048,10.108,10.108,0,0,1-.688-3.754m4.088,0a5.245,5.245,0,0,0,.441,2.132,5.585,5.585,0,0,0,2.936,2.926,5.279,5.279,0,0,0,2.14.44,5.66,5.66,0,0,0,2.139-.4,5.209,5.209,0,0,0,1.751-1.145,5.657,5.657,0,0,0,1.184-1.745,5.405,5.405,0,0,0,.442-2.2,5.238,5.238,0,0,0-.442-2.133,5.572,5.572,0,0,0-2.935-2.925,5.41,5.41,0,0,0-4.279,0,5.588,5.588,0,0,0-2.936,2.925,5.26,5.26,0,0,0-.441,2.133" fill="#083a59"></path><path id="Path_50" data-name="Path 50" d="M172.146,45.55h4.09v8.318a7.92,7.92,0,0,1,2.449-1.462,8.124,8.124,0,0,1,3.049-.618,9.338,9.338,0,0,1,3.754.758,9.581,9.581,0,0,1,5.075,5.076,9.663,9.663,0,0,1,0,7.508,9.575,9.575,0,0,1-5.075,5.075,9.321,9.321,0,0,1-3.754.758,9.517,9.517,0,0,1-3.754-.74,9.644,9.644,0,0,1-3.049-2.027,9.33,9.33,0,0,1-2.045-3.031,9.608,9.608,0,0,1-.74-3.789Zm4.09,15.825a5.26,5.26,0,0,0,.439,2.132,5.566,5.566,0,0,0,2.926,2.926,5.39,5.39,0,0,0,4.266,0,5.569,5.569,0,0,0,2.925-2.926,5.388,5.388,0,0,0,0-4.265,5.572,5.572,0,0,0-2.925-2.925,5.379,5.379,0,0,0-4.266,0,5.569,5.569,0,0,0-2.926,2.925,5.255,5.255,0,0,0-.439,2.133" fill="#083a59"></path><rect id="Rectangle_7" data-name="Rectangle 7" width="4.158" height="24.673" transform="translate(193.12 45.55)" fill="#083a59"></rect><path id="Path_51" data-name="Path 51" d="M203.164,61.658a5.012,5.012,0,0,0,.494,2.044,5.643,5.643,0,0,0,1.2,1.657,5.493,5.493,0,0,0,1.727,1.11,5.773,5.773,0,0,0,5.217-.493,5.17,5.17,0,0,0,1.9-2.415h4.478a11.815,11.815,0,0,1-1.588,3.419,9.078,9.078,0,0,1-2.256,2.291,8.976,8.976,0,0,1-2.714,1.287,10.948,10.948,0,0,1-2.96.4,9.328,9.328,0,0,1-3.754-.758,9.782,9.782,0,0,1-3.038-2.044,9.541,9.541,0,0,1-2.044-3.031,9.758,9.758,0,0,1,0-7.508,9.553,9.553,0,0,1,2.044-3.031,9.8,9.8,0,0,1,3.038-2.045,9.328,9.328,0,0,1,3.754-.758,9.434,9.434,0,0,1,3.983.811,9.184,9.184,0,0,1,2.994,2.167,9.9,9.9,0,0,1,1.922,3.155,10.942,10.942,0,0,1,.723,3.737H203.164Zm10.539-2.75a5.492,5.492,0,0,0-1.868-2.52,5.251,5.251,0,0,0-6.274,0,5.485,5.485,0,0,0-1.868,2.52Z" fill="#083a59"></path><path id="Path_52" data-name="Path 52" d="M75.6,96.182A18.339,18.339,0,0,1,57.358,79.476H54.241V76.254h6.268v1.612a15.095,15.095,0,0,0,30.189,0V76.254h6.119v3.222H93.85A18.34,18.34,0,0,1,75.6,96.182" fill="#f28705"></path></g></svg>