<svg width="190" height="188" viewBox="0 0 190 188" fill="none" xmlns="http://www.w3.org/2000/svg">
<ellipse cx="94.9591" cy="93.733" rx="94.9591" ry="93.733" fill="#FEF1E1"/>
<path d="M82.3161 61.8131C82.4665 61.7424 82.5998 61.6401 82.707 61.5131C82.8142 61.3861 82.8928 61.2375 82.9373 61.0775C82.579 61.0037 82.2114 60.9853 81.8474 61.023L80.8038 61.0747L80.1172 61.1102C79.6894 61.1347 79.6812 61.3227 79.8447 61.617C79.921 61.7559 80.1172 61.8676 80.1989 62.0175C80.2807 62.1674 80.2943 62.3281 80.3924 62.4426C80.6649 62.7696 80.7412 62.5843 81.0927 62.3717C81.4442 62.1592 81.9156 62.0311 82.3161 61.8131Z" fill="white"/>
<path d="M77.2098 36.0362L87.1738 28.7984L81.3049 36.148L77.2098 36.0362Z" fill="#F28705"/>
<path d="M86.4996 29.9143L83.7091 39.6806L80.6306 37.2639L86.4996 29.9143Z" fill="#F28705"/>
<path d="M86.4996 29.9143L83.7091 39.6806L80.6306 37.2639L86.4996 29.9143Z" fill="url(#paint0_linear)"/>
<path d="M81.1599 40.9968L80.4732 36.9191L86.3422 29.5695L81.1599 40.9968Z" fill="#F28705"/>
<path d="M95.7681 49.3715C95.9351 49.3119 96.0831 49.2256 96.2021 49.1186C96.3211 49.0116 96.4083 48.8863 96.4578 48.7513C96.0599 48.6892 95.6519 48.6737 95.2479 48.7054L94.0895 48.749L93.3273 48.7789C92.8524 48.7996 92.8433 48.9581 93.0248 49.2061C93.1095 49.3233 93.3273 49.4174 93.418 49.5438C93.5087 49.6701 93.5239 49.8056 93.6327 49.9021C93.9352 50.1777 94.0199 50.0215 94.4101 49.8424C94.8003 49.6632 95.3235 49.5553 95.7681 49.3715Z" fill="white"/>
<path d="M101.831 26.8568L109.528 38.1448L102.297 31.0709L101.831 26.8568Z" fill="#F28705"/>
<path d="M108.323 36.3749L99.6292 32.2154L101.263 29.4393L108.323 36.3749Z" fill="#F28705"/>
<path d="M107.618 36.5535L98.9236 32.394L100.557 29.6179L107.618 36.5535Z" fill="url(#paint1_linear)"/>
<path d="M97.0399 29.5206L100.478 29.4061L107.717 36.5705L97.0399 29.5206Z" fill="#F28705"/>
<path d="M109.439 38.1957L102.793 30.7844L101.776 26.8887L102.297 31.0709L109.439 38.1957Z" fill="url(#paint2_linear)"/>
<path d="M87.0194 138.508C79.8255 135.01 72.1836 132.506 64.3063 131.068C68.3676 128.392 68.597 121.54 69.2772 116.744C71.4668 101.352 86.8302 91.52 98.7764 83.42C99.7827 82.7158 100.825 82.0642 101.9 81.468C103.168 80.792 106.698 78.7 107.623 80.632C108.513 82.492 106.307 85.876 105.208 87.24C105.938 86.1606 106.745 85.1353 107.623 84.172C107.894 83.8122 108.269 83.544 108.698 83.404C109.503 83.22 110.272 83.98 110.393 84.788C110.513 85.596 110.175 86.388 109.805 87.128C108.913 88.8754 107.801 90.5031 106.496 91.972C107.374 90.984 110.618 87.284 110.55 91.032C110.493 93.3929 109.503 95.6364 107.792 97.276C108.543 96.6213 109.351 96.035 110.207 95.524C110.328 95.43 110.467 95.3618 110.615 95.3239C110.763 95.2861 110.918 95.2793 111.069 95.304C111.229 95.3812 111.366 95.4979 111.467 95.6429C111.569 95.7878 111.631 95.9563 111.648 96.132C112.188 98.532 110.843 100.252 109.926 102.304C109.209 103.904 108.791 105.408 107.877 106.948C104.576 112.524 101.075 118.004 97.2993 123.272C96.3252 124.612 87.0677 138.532 87.0194 138.508Z" fill="white"/>
<path d="M87.0073 138.712C86.9801 138.711 86.9537 138.703 86.9308 138.688C79.7538 135.197 72.1294 132.699 64.2701 131.264C64.2314 131.256 64.1958 131.238 64.1677 131.21C64.1396 131.183 64.1203 131.148 64.1122 131.109C64.104 131.071 64.1074 131.031 64.1219 130.994C64.1364 130.958 64.1613 130.927 64.1936 130.904C67.6108 128.652 68.275 123.208 68.8103 118.832C68.8988 118.096 68.9834 117.388 69.08 116.716C71.1971 101.828 85.6509 92.056 97.255 84.2L98.6516 83.256C99.6627 82.5471 100.711 81.8915 101.791 81.292L102.073 81.14C103.28 80.492 105.49 79.288 106.867 79.732C107.069 79.7926 107.256 79.8953 107.416 80.0332C107.576 80.1711 107.704 80.3412 107.792 80.532C108.271 81.536 107.933 82.88 107.37 84.112C107.394 84.08 107.422 84.052 107.45 84.02C107.752 83.6306 108.169 83.3441 108.642 83.2C108.832 83.1608 109.029 83.1612 109.22 83.2011C109.41 83.2411 109.59 83.3197 109.749 83.432C109.969 83.5855 110.157 83.7814 110.3 84.0081C110.443 84.2348 110.539 84.4878 110.582 84.752C110.711 85.608 110.364 86.436 109.974 87.208C109.524 88.0875 109.02 88.9385 108.465 89.756C109.068 89.308 109.632 89.068 110.075 89.236C110.517 89.404 110.767 90.004 110.747 91.028C110.709 92.7782 110.166 94.4807 109.181 95.932C109.483 95.724 109.785 95.532 110.095 95.344C110.239 95.2339 110.405 95.1555 110.582 95.1141C110.759 95.0728 110.943 95.0693 111.121 95.104C111.318 95.1873 111.488 95.3221 111.613 95.494C111.739 95.6659 111.815 95.8685 111.834 96.08C112.276 98.052 111.516 99.548 110.711 101.132C110.505 101.532 110.308 101.952 110.099 102.38C109.849 102.936 109.632 103.492 109.423 104.032C109.047 105.071 108.585 106.077 108.042 107.04C104.46 113.096 100.998 118.44 97.4562 123.38C96.9853 124.04 94.4898 127.78 92.0748 131.38L88.7099 136.4C87.3615 138.4 87.1482 138.712 87.0073 138.712ZM64.8054 130.96C72.4784 132.402 79.9233 134.856 86.9429 138.256C87.4098 137.588 89.5954 134.324 91.7166 131.16C94.1316 127.56 96.6271 123.82 97.106 123.16C100.64 118.228 104.093 112.892 107.672 106.852C108.204 105.905 108.656 104.917 109.024 103.896C109.233 103.356 109.455 102.792 109.708 102.228C109.902 101.792 110.111 101.372 110.324 100.964C111.101 99.444 111.829 98.012 111.419 96.164C111.359 95.896 111.23 95.56 110.976 95.48C110.852 95.4668 110.727 95.478 110.608 95.513C110.488 95.548 110.377 95.6061 110.28 95.684C109.436 96.1895 108.639 96.7677 107.897 97.412C107.857 97.444 107.806 97.4595 107.755 97.4555C107.704 97.4514 107.656 97.4281 107.622 97.3903C107.587 97.3525 107.569 97.3031 107.57 97.2521C107.571 97.2011 107.591 97.1524 107.627 97.116C108.458 96.325 109.123 95.3791 109.585 94.3324C110.047 93.2857 110.297 92.1588 110.32 91.016C110.32 90.216 110.191 89.716 109.918 89.604C109.39 89.404 108.308 90.22 106.669 92.048L106.633 92.092C106.615 92.1108 106.592 92.1257 106.568 92.1358C106.543 92.146 106.517 92.1512 106.49 92.1512C106.464 92.1512 106.437 92.146 106.413 92.1358C106.388 92.1257 106.366 92.1108 106.347 92.092C106.328 92.0741 106.313 92.0524 106.302 92.0283C106.292 92.0042 106.286 91.9783 106.286 91.952C106.286 91.9258 106.292 91.8998 106.302 91.8758C106.313 91.8517 106.328 91.83 106.347 91.812C107.639 90.357 108.739 88.7439 109.62 87.012C109.982 86.3 110.3 85.54 110.187 84.796C110.152 84.5863 110.075 84.3855 109.961 84.2056C109.847 84.0257 109.698 83.8701 109.523 83.748C109.409 83.6641 109.278 83.6054 109.139 83.5757C109.001 83.5461 108.857 83.5462 108.718 83.576C108.332 83.7096 107.994 83.9547 107.748 84.28C107.241 84.844 106.75 85.428 106.291 86.032C105.804 86.772 105.398 87.28 105.349 87.34C105.316 87.3799 105.269 87.4057 105.218 87.4124C105.166 87.4191 105.114 87.4061 105.072 87.376C105.029 87.3462 105 87.3009 104.991 87.2499C104.982 87.199 104.994 87.1465 105.023 87.104C105.337 86.636 105.667 86.18 106.009 85.736C107.048 84.136 108.046 81.984 107.43 80.696C107.366 80.5517 107.271 80.4227 107.152 80.3178C107.034 80.2129 106.894 80.1346 106.742 80.088C105.534 79.688 103.325 80.888 102.266 81.468L101.984 81.62C100.918 82.2244 99.8844 82.8853 98.8891 83.6L97.4924 84.544C85.9447 92.352 71.5714 102.072 69.4784 116.784C69.3818 117.452 69.2973 118.16 69.2088 118.892C68.6775 123.168 68.0415 128.468 64.8054 130.96Z" fill="#231F20"/>
<path d="M98.224 56.286L70.983 62.9504C69.8844 63.2192 69.213 64.3223 69.4834 65.4141L83.8242 123.306C84.0947 124.398 85.2046 125.065 86.3033 124.796L113.544 118.131C114.643 117.863 115.314 116.76 115.044 115.668L100.703 57.7762C100.433 56.6844 99.3227 56.0172 98.224 56.286Z" fill="white"/>
<path d="M85.8038 125.06C85.3937 125.059 84.9917 124.947 84.6406 124.736C84.3868 124.585 84.166 124.385 83.9912 124.148C83.8163 123.911 83.6909 123.642 83.6223 123.356L69.2852 65.4641C69.1431 64.8886 69.2366 64.2805 69.5453 63.7735C69.8539 63.2665 70.3525 62.902 70.9314 62.7601L98.1726 56.0961C98.7522 55.9547 99.3646 56.0475 99.8754 56.3542C100.386 56.6609 100.754 57.1564 100.898 57.7321L115.235 115.624C115.376 116.201 115.281 116.809 114.972 117.317C114.663 117.824 114.164 118.189 113.584 118.332L86.3432 124.992C86.1669 125.037 85.9857 125.059 85.8038 125.06ZM98.716 56.4321C98.5655 56.4316 98.4155 56.449 98.2692 56.4841L71.028 63.1481C70.5526 63.2645 70.1431 63.5637 69.8895 63.9799C69.636 64.3962 69.559 64.8955 69.6756 65.3681L84.0127 123.26C84.1298 123.733 84.4309 124.139 84.8497 124.392C85.2686 124.644 85.771 124.72 86.2466 124.604L113.488 117.944C113.964 117.827 114.373 117.527 114.628 117.11C114.882 116.693 114.96 116.194 114.844 115.72L100.507 57.8281C100.409 57.4297 100.179 57.0756 99.8543 56.8225C99.5295 56.5694 99.1287 56.4319 98.716 56.4321Z" fill="#231F20"/>
<path d="M99.9548 61.7905L72.0142 68.6261L83.8053 116.225L111.746 109.389L99.9548 61.7905Z" fill="#083A59"/>
<path d="M101.009 114.473L95.6934 115.774C95.0178 115.939 94.6049 116.617 94.7712 117.289L95.2716 119.308C95.4379 119.98 96.1204 120.39 96.796 120.225L102.111 118.924C102.787 118.759 103.2 118.081 103.033 117.409L102.533 115.39C102.367 114.718 101.684 114.308 101.009 114.473Z" fill="white"/>
<path d="M96.4902 120.468C96.1634 120.467 95.8462 120.358 95.5894 120.157C95.3325 119.956 95.1509 119.676 95.0734 119.36L94.5703 117.34C94.484 116.968 94.5483 116.577 94.7493 116.251C94.9504 115.926 95.272 115.692 95.645 115.6L100.962 114.3C101.338 114.209 101.735 114.27 102.066 114.47C102.397 114.669 102.636 114.991 102.729 115.364L103.228 117.364C103.32 117.738 103.259 118.133 103.059 118.462C102.858 118.792 102.534 119.028 102.157 119.12L96.8525 120.424C96.734 120.453 96.6123 120.468 96.4902 120.468ZM101.32 114.64C101.233 114.641 101.147 114.652 101.063 114.672L95.7496 115.972C95.6147 116.005 95.4876 116.063 95.3756 116.145C95.2637 116.227 95.1692 116.33 95.0976 116.448C95.0255 116.567 94.9778 116.699 94.9571 116.836C94.9363 116.973 94.9431 117.113 94.9768 117.248L95.4759 119.248C95.509 119.382 95.5683 119.509 95.6505 119.62C95.7327 119.732 95.8361 119.826 95.955 119.898C96.0739 119.969 96.2058 120.017 96.3432 120.038C96.4806 120.059 96.6208 120.053 96.7559 120.02L102.069 118.72C102.204 118.687 102.331 118.628 102.443 118.547C102.555 118.465 102.65 118.362 102.722 118.244C102.795 118.126 102.843 117.995 102.864 117.858C102.885 117.722 102.879 117.582 102.846 117.448L102.347 115.448C102.314 115.314 102.255 115.188 102.172 115.076C102.09 114.965 101.987 114.871 101.868 114.8C101.7 114.695 101.506 114.639 101.308 114.64H101.32Z" fill="#E6E7E8"/>
<path d="M80.1327 63.756C80.0891 63.7529 80.0477 63.7362 80.0144 63.7081C79.9811 63.68 79.9577 63.6422 79.9475 63.6C79.9409 63.5742 79.9395 63.5474 79.9435 63.5212C79.9474 63.4949 79.9566 63.4697 79.9705 63.4469C79.9843 63.4242 80.0026 63.4045 80.0242 63.3889C80.0459 63.3733 80.0704 63.3621 80.0964 63.356L88.0498 61.412C88.0755 61.4054 88.1022 61.4039 88.1284 61.4075C88.1546 61.4112 88.1799 61.42 88.2027 61.4333C88.2255 61.4467 88.2454 61.4644 88.2613 61.4855C88.2772 61.5065 88.2888 61.5305 88.2953 61.556C88.3076 61.6079 88.2988 61.6626 88.271 61.7082C88.2431 61.7538 88.1984 61.7867 88.1464 61.8L80.193 63.744L80.1327 63.756Z" fill="#E6E7E8"/>
<path d="M89.205 61.536C89.1602 61.5362 89.1167 61.5213 89.0816 61.4937C89.0464 61.4661 89.0218 61.4274 89.0118 61.384C88.9994 61.3326 89.0076 61.2784 89.0347 61.2329C89.0617 61.1874 89.1054 61.1541 89.1567 61.14L90.2273 60.88C90.2807 60.8673 90.337 60.8761 90.3838 60.9046C90.4306 60.9332 90.4641 60.979 90.4769 61.032C90.4897 61.0851 90.4808 61.141 90.4521 61.1875C90.4234 61.234 90.3773 61.2673 90.3239 61.28L89.2533 61.544L89.205 61.536Z" fill="#E6E7E8"/>
<path d="M103.269 99.1886L86.7137 103.239C85.2481 103.597 84.3524 105.069 84.7132 106.525L85.0057 107.706C85.3665 109.163 86.8471 110.053 88.3128 109.694L104.868 105.644C106.334 105.285 107.23 103.814 106.869 102.357L106.576 101.177C106.216 99.7201 104.735 98.83 103.269 99.1886Z" fill="white"/>
<path d="M87.6513 110C86.9963 109.998 86.3607 109.779 85.8457 109.376C85.3307 108.974 84.966 108.412 84.8097 107.78L84.5199 106.58C84.335 105.83 84.457 105.037 84.8591 104.376C85.2612 103.714 85.9107 103.238 86.6652 103.052L103.224 99.004C103.598 98.9126 103.986 98.8952 104.366 98.9528C104.747 99.0105 105.112 99.1421 105.441 99.34C105.771 99.538 106.058 99.7985 106.286 100.107C106.513 100.415 106.678 100.765 106.77 101.136L107.064 102.336C107.249 103.086 107.127 103.878 106.724 104.539C106.322 105.199 105.673 105.675 104.919 105.86L88.3597 109.896C88.1286 109.959 87.8908 109.993 87.6513 110ZM103.928 99.336C103.724 99.3377 103.52 99.3632 103.321 99.412L86.7618 103.44C86.4389 103.519 86.1348 103.66 85.8669 103.856C85.599 104.051 85.3725 104.298 85.2006 104.58C85.0286 104.863 84.9144 105.177 84.8646 105.503C84.8148 105.83 84.8303 106.163 84.9103 106.484L85.2001 107.684C85.3619 108.331 85.7751 108.888 86.3492 109.233C86.9233 109.578 87.6115 109.682 88.2631 109.524L104.822 105.472C105.473 105.312 106.033 104.902 106.38 104.332C106.727 103.763 106.833 103.079 106.673 102.432L106.38 101.232C106.243 100.688 105.928 100.204 105.484 99.8569C105.04 99.5101 104.493 99.3198 103.928 99.316V99.336Z" fill="#231F20"/>
<path d="M102.61 85.2772L80.7468 90.626L81.7138 94.5294L103.577 89.1806L102.61 85.2772Z" fill="white"/>
<path d="M83.7511 92.784C84.1268 92.784 84.4313 92.4814 84.4313 92.108C84.4313 91.7347 84.1268 91.432 83.7511 91.432C83.3754 91.432 83.0709 91.7347 83.0709 92.108C83.0709 92.4814 83.3754 92.784 83.7511 92.784Z" fill="#083A59"/>
<path d="M86.2466 92.176C86.6222 92.176 86.9268 91.8734 86.9268 91.5C86.9268 91.1267 86.6222 90.824 86.2466 90.824C85.8709 90.824 85.5663 91.1267 85.5663 91.5C85.5663 91.8734 85.8709 92.176 86.2466 92.176Z" fill="#083A59"/>
<path d="M88.738 91.564C89.1137 91.564 89.4183 91.2614 89.4183 90.888C89.4183 90.5147 89.1137 90.212 88.738 90.212C88.3623 90.212 88.0578 90.5147 88.0578 90.888C88.0578 91.2614 88.3623 91.564 88.738 91.564Z" fill="#083A59"/>
<path d="M91.2336 90.956C91.6092 90.956 91.9138 90.6533 91.9138 90.28C91.9138 89.9067 91.6092 89.604 91.2336 89.604C90.8579 89.604 90.5533 89.9067 90.5533 90.28C90.5533 90.6533 90.8579 90.956 91.2336 90.956Z" fill="#083A59"/>
<path d="M104.184 91.6428L82.3206 96.9916L83.2875 100.895L105.151 95.5463L104.184 91.6428Z" fill="#FEF1E1"/>
<path d="M85.3249 99.1481C85.7006 99.1481 86.0051 98.8454 86.0051 98.4721C86.0051 98.0987 85.7006 97.7961 85.3249 97.7961C84.9492 97.7961 84.6447 98.0987 84.6447 98.4721C84.6447 98.8454 84.9492 99.1481 85.3249 99.1481Z" fill="#083A59"/>
<path d="M87.8204 98.536C88.196 98.536 88.5006 98.2334 88.5006 97.86C88.5006 97.4867 88.196 97.184 87.8204 97.184C87.4447 97.184 87.1401 97.4867 87.1401 97.86C87.1401 98.2334 87.4447 98.536 87.8204 98.536Z" fill="#083A59"/>
<path d="M90.3159 97.9281C90.6916 97.9281 90.9961 97.6254 90.9961 97.2521C90.9961 96.8787 90.6916 96.576 90.3159 96.576C89.9402 96.576 89.6357 96.8787 89.6357 97.2521C89.6357 97.6254 89.9402 97.9281 90.3159 97.9281Z" fill="#083A59"/>
<path d="M92.8074 97.32C93.183 97.32 93.4876 97.0174 93.4876 96.644C93.4876 96.2707 93.183 95.968 92.8074 95.968C92.4317 95.968 92.1271 96.2707 92.1271 96.644C92.1271 97.0174 92.4317 97.32 92.8074 97.32Z" fill="#083A59"/>
<path d="M93.1563 73.3259L83.4324 75.7048L84.9594 81.8688L94.6832 79.4899L93.1563 73.3259Z" fill="white"/>
<path d="M85.985 75.7921C85.9508 75.7914 85.9175 75.7817 85.8884 75.7641C85.8473 75.7383 85.8172 75.6985 85.8038 75.6521L85.3289 73.7321C85.2442 73.3917 85.2279 73.038 85.2811 72.6913C85.3342 72.3446 85.4557 72.0118 85.6385 71.7119C85.8214 71.412 86.062 71.1509 86.3467 70.9437C86.6313 70.7364 86.9543 70.587 87.2971 70.5041C87.9883 70.335 88.7188 70.4457 89.3279 70.8117C89.937 71.1778 90.3749 71.7692 90.5453 72.4561L91.0202 74.3761C91.0313 74.4227 91.0236 74.4718 90.9988 74.5129C90.974 74.5539 90.934 74.5838 90.8874 74.5961L86.0292 75.7961L85.985 75.7921ZM87.9411 70.8001C87.7541 70.7996 87.5676 70.8211 87.3857 70.8641C87.0889 70.9366 86.8094 71.0667 86.5633 71.2468C86.3172 71.4269 86.1093 71.6535 85.9515 71.9136C85.7937 72.1738 85.6891 72.4623 85.6437 72.7627C85.5984 73.063 85.6131 73.3694 85.6871 73.6641L86.1178 75.4081L90.6218 74.3041L90.1911 72.5641C90.0699 72.0616 89.7821 71.6144 89.3739 71.2943C88.9657 70.9743 88.461 70.8002 87.9411 70.8001Z" fill="white"/>
<path d="M88.8185 77.5921C89.3476 77.5921 89.7765 77.1658 89.7765 76.64C89.7765 76.1143 89.3476 75.688 88.8185 75.688C88.2895 75.688 87.8606 76.1143 87.8606 76.64C87.8606 77.1658 88.2895 77.5921 88.8185 77.5921Z" fill="#083A59"/>
<path d="M89.122 76.7506L88.6022 76.8777L89.1362 79.0334L89.656 78.9062L89.122 76.7506Z" fill="#083A59"/>
<path d="M90.8593 85.508H90.811H90.7385L90.6057 85.476C87.4775 84.961 84.598 83.4622 82.3907 81.2C81.3458 80.0988 80.4954 78.8303 79.875 77.448C79.5195 76.6796 79.2495 75.8748 79.07 75.048C79.0432 74.9494 79.0554 74.8443 79.104 74.7543C79.1527 74.6643 79.2341 74.5962 79.3317 74.564C79.4967 74.492 79.6738 74.404 79.8871 74.288C80.739 73.8672 81.397 73.1389 81.7265 72.252C81.9603 71.5977 81.9716 70.8853 81.7587 70.224C81.74 70.1761 81.7315 70.1248 81.7339 70.0735C81.7363 70.0222 81.7495 69.9719 81.7726 69.9259C81.7957 69.8799 81.8283 69.8393 81.8682 69.8066C81.9081 69.7739 81.9545 69.7498 82.0043 69.736L83.1675 69.2C83.6626 68.984 84.1617 68.764 84.6648 68.556C85.7073 68.1015 86.8111 67.801 87.9411 67.664C88.7461 67.58 89.5511 67.516 90.3561 67.456L91.62 67.36C91.665 67.3514 91.7113 67.3519 91.7561 67.3614C91.8009 67.3709 91.8433 67.3892 91.8809 67.4153C91.9184 67.4415 91.9503 67.4748 91.9746 67.5134C91.999 67.552 92.0152 67.595 92.0225 67.64L92.0668 67.808C92.1102 68.0049 92.1708 68.1976 92.2479 68.384C92.4225 68.7827 92.6755 69.1427 92.9921 69.4429C93.3087 69.7431 93.6824 69.9774 94.0913 70.132C94.7423 70.3742 95.4399 70.4672 96.132 70.404C96.1954 70.392 96.2605 70.393 96.3235 70.4068C96.3864 70.4207 96.4459 70.4471 96.4983 70.4845C96.5506 70.522 96.5947 70.5696 96.628 70.6245C96.6612 70.6794 96.6828 70.7405 96.6915 70.804C97.046 72.0954 97.182 73.4363 97.094 74.772C96.8847 78.404 95.3471 81.572 92.5256 84.252C92.2237 84.532 91.9058 84.8 91.5958 85.052L91.1652 85.412C91.1417 85.432 91.1143 85.447 91.0847 85.456L90.8915 85.5L90.8593 85.508ZM82.1612 70.08C82.3937 70.8222 82.3782 71.6193 82.117 72.352C81.7569 73.3286 81.0378 74.1333 80.1045 74.604C79.914 74.7129 79.7178 74.8117 79.5168 74.9C79.4997 74.9059 79.4835 74.914 79.4685 74.924C79.6522 75.729 79.9151 76.5141 80.2534 77.268C80.8543 78.6102 81.6805 79.8411 82.6966 80.908C84.8449 83.1072 87.647 84.5626 90.6902 85.06C90.7466 85.06 90.7989 85.084 90.8512 85.096H90.8713H90.9679L91.3704 84.76C91.6763 84.508 91.9943 84.244 92.2841 83.96C95.0292 81.376 96.5265 78.276 96.7116 74.76C96.7914 73.468 96.6554 72.1718 96.3091 70.924C96.3037 70.8912 96.2914 70.8598 96.2729 70.832C96.2357 70.8242 96.1974 70.8242 96.1602 70.832C95.4077 70.8978 94.6499 70.7953 93.9424 70.532C93.0232 70.1765 92.2834 69.473 91.8856 68.576C91.8003 68.3684 91.7317 68.1544 91.6804 67.936L91.6401 67.788L90.3763 67.888C89.5954 67.948 88.7663 68.012 87.9935 68.096C86.901 68.2299 85.834 68.521 84.8258 68.96C84.3267 69.168 83.8316 69.38 83.3365 69.596C82.9475 69.7667 82.557 69.9347 82.1653 70.1L82.1612 70.08Z" fill="white"/>
<path d="M68.3032 123.416C68.3032 123.416 71.4467 97.2841 74.5258 94.4241C78.1886 91.0281 81.5253 88.7241 82.1371 90.6641C82.7489 92.6041 83.3164 95.8401 78.3093 99.4641L79.0419 105.932C79.0419 105.932 83.9725 109.328 81.4045 120" fill="white"/>
<path d="M68.3032 123.6H68.275C68.2265 123.594 68.1824 123.569 68.1522 123.531C68.122 123.493 68.1083 123.444 68.114 123.396C68.2428 122.328 71.3018 97.1681 74.397 94.2961C77.939 91.0121 80.342 89.4961 81.5334 89.8201C81.7227 89.8719 81.8945 89.9736 82.0305 90.1144C82.1665 90.2552 82.2617 90.4299 82.3062 90.6201C83.6948 95.0201 81.0262 97.7201 78.5025 99.5721L79.2149 105.856C79.8348 106.328 84.0047 109.944 81.5776 120.052C81.5724 120.076 81.5625 120.098 81.5485 120.118C81.5345 120.137 81.5166 120.154 81.4959 120.167C81.4753 120.179 81.4523 120.188 81.4283 120.191C81.4043 120.195 81.3798 120.194 81.3563 120.188C81.3094 120.176 81.2692 120.146 81.2437 120.105C81.2183 120.064 81.2096 120.015 81.2194 119.968C83.727 109.536 78.9815 106.14 78.9332 106.108C78.9122 106.092 78.8947 106.072 78.8815 106.05C78.8684 106.027 78.86 106.002 78.8567 105.976L78.1242 99.5081C78.1205 99.4762 78.1252 99.444 78.1379 99.4145C78.1506 99.385 78.1709 99.3594 78.1966 99.3401C82.8616 95.9481 82.6563 92.9401 81.956 90.7281C81.9273 90.5988 81.8644 90.4795 81.7738 90.3825C81.6833 90.2855 81.5683 90.2142 81.4408 90.1761C80.4064 89.9041 77.9954 91.4641 74.6506 94.5761C71.652 97.3561 68.5125 123.192 68.4803 123.452C68.4728 123.493 68.4509 123.531 68.4186 123.558C68.3863 123.585 68.3454 123.6 68.3032 123.6Z" fill="#231F20"/>
<path d="M52.6781 140.88L64.733 126.344L89.6357 137.26L82.2981 153.336L52.6781 140.88Z" fill="#F9A825"/>
<path d="M145.297 135.744C145.297 135.744 135.927 117.42 128.867 109.164C127.901 108.036 126.674 107.848 125.804 108.432C124.782 109.12 124.742 111.428 124.742 111.428C124.742 111.428 122.061 109.884 120.777 110.204C119.493 110.524 119.344 112.544 119.344 112.544C119.344 112.544 116.482 111.604 115.319 112.616C114.156 113.628 114.112 115.472 114.112 115.472C114.112 115.472 99.022 103.42 97.3596 102.4C95.6973 101.38 92.7148 103.2 94.1879 105.328C95.1016 106.656 102.717 114.192 105.18 116.588C107.644 118.984 113.375 125.484 114.035 127.388C114.695 129.292 115.223 131.48 111.31 131.748C107.398 132.016 103.916 132.708 102.202 134.148C100.487 135.588 99.3601 137.768 100.217 138.196C101.075 138.624 114.905 137.052 120.157 139.18C125.41 141.308 132.232 149.092 132.232 149.092L145.297 135.744Z" fill="white"/>
<path d="M132.228 149.308C132.2 149.307 132.172 149.301 132.147 149.289C132.121 149.277 132.098 149.261 132.079 149.24C132.011 149.16 125.213 141.468 120.069 139.384C116.47 137.924 108.698 138.224 104.053 138.404C101.538 138.5 100.431 138.536 100.117 138.404C100.004 138.348 99.907 138.263 99.8365 138.159C99.766 138.054 99.7239 137.933 99.7143 137.808C99.6056 136.896 100.656 135.2 102.053 134.028C103.619 132.716 106.722 131.896 111.282 131.584C112.671 131.488 113.584 131.136 113.991 130.532C114.518 129.732 114.2 128.6 113.83 127.488C113.21 125.648 107.607 119.252 105.039 116.756C102.471 114.26 94.9447 106.8 94.035 105.448C93.7295 105.064 93.5763 104.582 93.6045 104.093C93.6327 103.604 93.8403 103.143 94.188 102.796C94.9366 102.02 96.4017 101.596 97.4764 102.236C99.022 103.176 111.757 113.336 113.939 115.08C114.027 114.09 114.468 113.163 115.182 112.468C116.241 111.556 118.459 112.068 119.207 112.284C119.292 111.704 119.61 110.284 120.761 110.008C121.912 109.732 123.852 110.704 124.589 111.096C124.645 110.412 124.863 108.848 125.724 108.268C126.738 107.584 128.074 107.892 129.053 109.036C136.048 117.212 145.414 135.468 145.511 135.652C145.529 135.69 145.535 135.732 145.529 135.774C145.522 135.815 145.503 135.853 145.475 135.884L132.405 149.248C132.382 149.27 132.354 149.287 132.324 149.297C132.293 149.308 132.26 149.311 132.228 149.308ZM110.28 137.848C114.027 137.848 117.927 138.084 120.214 139.012C125.092 140.988 131.194 147.652 132.236 148.812L145.052 135.708C144.203 134.064 135.372 117.076 128.71 109.308C127.877 108.332 126.754 108.052 125.917 108.612C125.152 109.132 124.955 110.832 124.943 111.448C124.942 111.482 124.933 111.516 124.915 111.545C124.898 111.575 124.872 111.599 124.842 111.616C124.812 111.634 124.777 111.643 124.742 111.643C124.706 111.643 124.672 111.634 124.641 111.616C124.613 111.616 122.017 110.116 120.825 110.416C119.698 110.696 119.55 112.56 119.545 112.576C119.543 112.606 119.534 112.635 119.519 112.662C119.504 112.688 119.483 112.71 119.458 112.727C119.432 112.744 119.404 112.755 119.374 112.759C119.344 112.764 119.313 112.761 119.284 112.752C119.256 112.752 116.515 111.864 115.436 112.788C114.357 113.712 114.297 115.476 114.297 115.496C114.295 115.533 114.284 115.569 114.263 115.6C114.243 115.631 114.214 115.656 114.18 115.672C114.147 115.688 114.109 115.694 114.072 115.69C114.035 115.686 114 115.671 113.971 115.648C113.818 115.528 98.8852 103.592 97.255 102.596C96.3534 102.048 95.1057 102.428 94.4697 103.092C94.1851 103.372 94.0155 103.746 93.9939 104.144C93.9724 104.541 94.1004 104.932 94.353 105.24C95.2466 106.54 102.806 114.04 105.321 116.472C107.627 118.716 113.524 125.324 114.212 127.364C114.615 128.564 114.957 129.824 114.325 130.756C113.838 131.48 112.852 131.884 111.306 131.988C106.835 132.292 103.812 133.084 102.314 134.336C100.918 135.508 100.032 137.084 100.113 137.764C100.113 137.823 100.13 137.882 100.161 137.932C100.192 137.983 100.237 138.024 100.29 138.052C100.519 138.16 102.226 138.092 104.033 138.024C105.84 137.956 108.01 137.848 110.28 137.848Z" fill="#231F20"/>
<path d="M143.937 130.448L124.899 145.88L134.341 159.768L156.322 141.628L143.937 130.448Z" fill="#F9A825"/>
<path d="M140.801 65.6481H116.39V83.5481H140.801V65.6481Z" fill="white"/>
<path d="M140.801 83.7481H116.39C116.336 83.7481 116.285 83.727 116.248 83.6895C116.21 83.652 116.189 83.6011 116.189 83.5481V65.6481C116.189 65.595 116.21 65.5441 116.248 65.5066C116.285 65.4691 116.336 65.4481 116.39 65.4481H140.801C140.855 65.4481 140.906 65.4691 140.944 65.5066C140.981 65.5441 141.003 65.595 141.003 65.6481V83.5481C141.003 83.6011 140.981 83.652 140.944 83.6895C140.906 83.727 140.855 83.7481 140.801 83.7481ZM116.591 83.3481H140.6V65.8481H116.575L116.591 83.3481Z" fill="#E6E7E8"/>
<path d="M136.962 71.332C136.89 71.4442 136.811 71.5512 136.724 71.652L128.292 80.02C128.249 80.0878 128.19 80.1436 128.119 80.1824C128.049 80.2211 127.97 80.2414 127.889 80.2414C127.809 80.2414 127.73 80.2211 127.659 80.1824C127.589 80.1436 127.529 80.0878 127.487 80.02L122.753 75.148C122.693 75.1034 122.645 75.0451 122.613 74.978C122.581 74.9109 122.565 74.837 122.568 74.7627C122.571 74.6883 122.592 74.6158 122.629 74.5512C122.666 74.4867 122.718 74.432 122.782 74.392L123.989 73.328C124.031 73.274 124.085 73.2303 124.147 73.2003C124.209 73.1702 124.276 73.1546 124.345 73.1546C124.414 73.1546 124.482 73.1702 124.544 73.2003C124.605 73.2303 124.659 73.274 124.701 73.328L127.519 76.168C127.562 76.2358 127.621 76.2916 127.691 76.3304C127.762 76.3691 127.841 76.3894 127.921 76.3894C128.002 76.3894 128.081 76.3691 128.151 76.3304C128.222 76.2916 128.281 76.2358 128.324 76.168L134.877 69.688C134.92 69.6245 134.978 69.5724 135.046 69.5365C135.114 69.5005 135.19 69.4817 135.267 69.4817C135.344 69.4817 135.42 69.5005 135.488 69.5365C135.556 69.5724 135.614 69.6245 135.657 69.688C136.028 70.06 136.398 70.428 136.764 70.8C136.848 70.8989 136.924 71.0032 136.994 71.112L136.962 71.332Z" fill="#083A59"/>
<path d="M116.172 93.372C116.122 93.3704 116.074 93.351 116.037 93.3172C116 93.2834 115.977 93.2376 115.971 93.188C115.968 93.1358 115.985 93.0842 116.018 93.044C116.052 93.0038 116.1 92.9781 116.152 92.972C118.225 92.78 119.851 91.948 120.982 90.504C123.611 87.152 122.778 81.544 122.769 81.488C122.765 81.462 122.767 81.4355 122.773 81.4099C122.779 81.3844 122.791 81.3603 122.806 81.3392C122.822 81.318 122.842 81.3001 122.865 81.2865C122.887 81.2729 122.912 81.2639 122.939 81.26C122.991 81.2531 123.045 81.2667 123.087 81.298C123.13 81.3293 123.159 81.3759 123.168 81.428C123.204 81.664 124.037 87.26 121.3 90.748C120.093 92.284 118.374 93.148 116.189 93.372H116.172Z" fill="#E6E7E8"/>
<path d="M83.723 142.552C83.6951 142.558 83.6663 142.558 83.6384 142.552L62.9379 132.952C62.9109 132.943 62.8861 132.929 62.8652 132.91C62.8442 132.891 62.8276 132.867 62.8163 132.841C62.8051 132.815 62.7995 132.787 62.7999 132.759C62.8003 132.731 62.8067 132.703 62.8187 132.678C62.8308 132.652 62.8481 132.629 62.8696 132.611C62.8911 132.592 62.9163 132.579 62.9435 132.571C62.9707 132.562 62.9994 132.56 63.0275 132.564C63.0557 132.568 63.0827 132.577 63.1069 132.592L83.8075 142.192C83.8316 142.203 83.8533 142.219 83.8713 142.239C83.8893 142.258 83.9032 142.281 83.9121 142.306C83.9211 142.331 83.925 142.357 83.9237 142.384C83.9223 142.41 83.9156 142.436 83.9041 142.46C83.8852 142.49 83.8583 142.515 83.8264 142.531C83.7945 142.547 83.7587 142.555 83.723 142.552Z" fill="white"/>
<path d="M128.904 148.4C128.872 148.4 128.842 148.392 128.814 148.379C128.786 148.365 128.762 148.345 128.743 148.32C128.711 148.278 128.697 148.224 128.704 148.172C128.712 148.119 128.74 148.072 128.783 148.04L145.177 135.6C145.219 135.568 145.272 135.553 145.325 135.56C145.378 135.567 145.426 135.594 145.458 135.636C145.491 135.678 145.505 135.731 145.498 135.783C145.492 135.836 145.464 135.884 145.422 135.916L129.024 148.38C128.987 148.4 128.945 148.407 128.904 148.4Z" fill="white"/>
<defs>
<linearGradient id="paint0_linear" x1="2119.27" y1="-851.094" x2="2507.51" y2="-683.388" gradientUnits="userSpaceOnUse">
<stop offset="0.01"/>
<stop offset="0.13" stop-opacity="0.69"/>
<stop offset="0.25" stop-opacity="0.32"/>
<stop offset="1" stop-opacity="0"/>
</linearGradient>
<linearGradient id="paint1_linear" x1="1136.68" y1="2210" x2="944.885" y2="2514.39" gradientUnits="userSpaceOnUse">
<stop offset="0.01"/>
<stop offset="0.13" stop-opacity="0.69"/>
<stop offset="0.25" stop-opacity="0.32"/>
<stop offset="1" stop-opacity="0"/>
</linearGradient>
<linearGradient id="paint2_linear" x1="1796.27" y1="3096" x2="1697.96" y2="3152.76" gradientUnits="userSpaceOnUse">
<stop offset="0.01"/>
<stop offset="0.13" stop-opacity="0.69"/>
<stop offset="0.25" stop-opacity="0.32"/>
<stop offset="1" stop-opacity="0"/>
</linearGradient>
</defs>
</svg>
