<svg width="233" height="190" viewBox="0 0 233 190" fill="none" xmlns="http://www.w3.org/2000/svg">
<ellipse cx="118.959" cy="93.733" rx="94.9591" ry="93.733" fill="#FEF1E1"/>
<path d="M106.316 61.8131C106.466 61.7424 106.6 61.64 106.707 61.5131C106.814 61.3861 106.893 61.2375 106.937 61.0774C106.579 61.0037 106.211 60.9853 105.847 61.0229L104.804 61.0747L104.117 61.1101C103.689 61.1346 103.681 61.3227 103.845 61.6169C103.921 61.7559 104.117 61.8676 104.199 62.0175C104.281 62.1673 104.294 62.3281 104.392 62.4425C104.665 62.7695 104.741 62.5842 105.093 62.3717C105.444 62.1592 105.916 62.0311 106.316 61.8131Z" fill="white"/>
<path d="M101.21 36.0361L111.174 28.7984L105.305 36.148L101.21 36.0361Z" fill="#F28705"/>
<path d="M110.5 29.9143L107.709 39.6806L104.631 37.2639L110.5 29.9143Z" fill="#F28705"/>
<path d="M110.5 29.9143L107.709 39.6806L104.631 37.2639L110.5 29.9143Z" fill="url(#paint0_linear)"/>
<path d="M105.16 40.9968L104.473 36.9192L110.342 29.5695L105.16 40.9968Z" fill="#F28705"/>
<path d="M119.768 49.3715C119.935 49.3118 120.083 49.2256 120.202 49.1185C120.321 49.0115 120.408 48.8863 120.458 48.7513C120.06 48.6891 119.652 48.6736 119.248 48.7054L118.089 48.749L117.327 48.7789C116.852 48.7995 116.843 48.958 117.025 49.2061C117.109 49.3232 117.327 49.4174 117.418 49.5437C117.509 49.6701 117.524 49.8056 117.633 49.9021C117.935 50.1777 118.02 50.0215 118.41 49.8423C118.8 49.6632 119.324 49.5552 119.768 49.3715Z" fill="white"/>
<path d="M125.831 26.8568L133.528 38.1448L126.297 31.0709L125.831 26.8568Z" fill="#F28705"/>
<path d="M132.323 36.3749L123.629 32.2154L125.263 29.4393L132.323 36.3749Z" fill="#F28705"/>
<path d="M131.618 36.5536L122.924 32.3941L124.557 29.618L131.618 36.5536Z" fill="url(#paint1_linear)"/>
<path d="M121.04 29.5206L124.478 29.4061L131.717 36.5705L121.04 29.5206Z" fill="#F28705"/>
<path d="M133.439 38.1957L126.793 30.7844L125.776 26.8887L126.297 31.0709L133.439 38.1957Z" fill="url(#paint2_linear)"/>
<path d="M151.485 163.453L159.11 125.682L161.626 102.5C161.626 102.5 136.305 77.5858 129.07 69.425C121.836 61.2642 113.687 49.5567 109.959 50.4317C106.231 51.3067 105.514 55.565 107.955 60.8092C108.957 62.9617 110.477 65.3533 111.164 67.5817C111.747 69.3958 111.555 74.5058 109.801 75.7892C107.698 77.3292 105.689 69.8858 103.021 71.21C101.617 71.9042 100.225 75.515 101.425 79.3767C102.146 81.2322 103.052 83.0106 104.128 84.685C106.324 88.2258 106.341 90.4367 107.745 94.3158C109.19 98.3058 108.823 92.9158 107.477 96.5733C105.84 101.013 103.539 106.204 103.44 111.017C103.289 118.711 112.539 131.165 116.343 137.238C120.146 143.31 112.807 157.73 112.807 157.73L151.485 163.453Z" fill="white"/>
<path d="M151.485 163.75H151.45L112.766 158.039C112.721 158.033 112.678 158.016 112.64 157.989C112.603 157.963 112.572 157.928 112.551 157.888C112.531 157.846 112.52 157.8 112.52 157.753C112.52 157.707 112.531 157.661 112.551 157.619C112.626 157.473 119.779 143.281 116.104 137.418C115.481 136.421 114.688 135.225 113.855 133.959C109.545 127.426 103.027 117.556 103.155 111.034C103.236 106.916 104.902 102.5 106.411 98.6034C106.685 97.8859 106.953 97.18 107.209 96.4975C107.341 96.0658 107.537 95.6567 107.792 95.2842C107.687 95.0625 107.576 94.7825 107.454 94.4384C106.976 93.1259 106.662 92.0175 106.365 90.9384C105.852 88.7918 105.007 86.7389 103.86 84.8542C102.769 83.1572 101.853 81.3531 101.128 79.47C99.8754 75.4217 101.326 71.7175 102.875 70.9475C104.425 70.1775 105.788 71.9567 106.953 73.5434C107.392 74.1985 107.898 74.8064 108.461 75.3575C109.044 75.8534 109.382 75.7367 109.626 75.5559C111.223 74.3892 111.456 69.4892 110.891 67.6692C110.347 66.1382 109.668 64.6585 108.863 63.2475C108.438 62.4425 108.036 61.6842 107.698 60.9142C106.137 57.5484 105.823 54.5734 106.813 52.5259C107.111 51.9169 107.544 51.3842 108.079 50.9687C108.614 50.5531 109.237 50.2657 109.9 50.1284C112.871 49.4459 117.921 55.565 123.77 62.6584C125.599 64.875 127.492 67.1675 129.303 69.215C136.439 77.2709 161.586 101.998 161.842 102.249C161.873 102.28 161.896 102.318 161.91 102.359C161.925 102.401 161.929 102.445 161.923 102.488L159.413 125.699L151.782 163.493C151.775 163.566 151.74 163.633 151.685 163.681C151.629 163.729 151.558 163.753 151.485 163.75ZM113.244 157.508L151.258 163.12L158.83 125.629L161.323 102.582C159.576 100.832 135.781 77.4342 128.861 69.6175C127.043 67.5642 125.144 65.2659 123.315 63.0434C118.073 56.685 112.644 50.0992 110.028 50.7175C109.448 50.8305 108.902 51.0775 108.434 51.4391C107.966 51.8006 107.588 52.2666 107.331 52.8C106.429 54.655 106.749 57.5309 108.223 60.6867C108.566 61.4217 108.962 62.1742 109.388 62.9734C110.205 64.4187 110.893 65.9335 111.444 67.5C112.026 69.3142 111.91 74.6109 109.97 76.0342C109.388 76.4542 108.764 76.3784 108.089 75.8067C107.485 75.231 106.948 74.5892 106.487 73.8934C105.415 72.4234 104.302 70.9009 103.149 71.4784C101.996 72.0559 100.516 75.48 101.704 79.3067C102.419 81.1403 103.313 82.8988 104.372 84.5567C105.552 86.4866 106.419 88.5912 106.941 90.7925C107.238 91.8484 107.524 92.945 108.019 94.24C108.124 94.5375 108.223 94.7767 108.304 94.9575C108.355 94.9518 108.405 94.9518 108.456 94.9575C108.613 95.0083 108.749 95.1108 108.841 95.2484C108.933 95.386 108.976 95.5508 108.962 95.7159C108.977 95.8189 108.952 95.9236 108.892 96.0089C108.833 96.0943 108.744 96.1542 108.642 96.1767C108.479 96.1767 108.316 96.1417 108.124 95.8617C107.98 96.1187 107.859 96.3881 107.762 96.6667C107.506 97.355 107.238 98.0667 106.959 98.7842C105.491 102.634 103.825 106.998 103.743 111.034C103.621 117.369 110.075 127.152 114.345 133.627C115.184 134.898 115.976 136.094 116.605 137.098C120.146 142.75 114.386 155.175 113.244 157.508Z" fill="#231F20"/>
<path d="M93.1053 127.057L132.045 139.188C133.615 139.677 135.284 138.799 135.772 137.227L161.674 53.8432C162.162 52.2712 161.286 50.6005 159.716 50.1115L120.776 37.9805C119.206 37.4915 117.538 38.3694 117.049 39.9414L91.1472 123.325C90.6589 124.897 91.5356 126.568 93.1053 127.057Z" fill="white"/>
<path d="M132.932 139.606C132.605 139.606 132.279 139.557 131.965 139.46L93.0253 127.327C92.2026 127.066 91.5157 126.491 91.1134 125.727C90.711 124.963 90.6257 124.07 90.8758 123.243L116.785 39.8442C117.044 39.0195 117.618 38.3306 118.382 37.9275C119.145 37.5243 120.037 37.4396 120.863 37.6917L159.797 49.825C160.621 50.0843 161.309 50.6589 161.711 51.4236C162.114 52.1884 162.198 53.0814 161.947 53.9083L136.06 137.302C135.851 137.969 135.435 138.552 134.873 138.966C134.31 139.38 133.631 139.605 132.932 139.606ZM93.2 126.767L132.134 138.9C132.813 139.111 133.547 139.046 134.177 138.718C134.807 138.39 135.283 137.827 135.501 137.15L161.405 53.7508C161.617 53.0716 161.553 52.3359 161.225 51.7043C160.898 51.0726 160.334 50.5962 159.657 50.3792L120.723 38.2458C120.045 38.0332 119.31 38.0979 118.679 38.4258C118.049 38.7536 117.573 39.3181 117.356 39.9958L91.4525 123.401C91.2404 124.079 91.3051 124.814 91.6326 125.445C91.9601 126.076 92.5236 126.551 93.2 126.767Z" fill="#231F20"/>
<path d="M96.3865 114.405L136.322 126.846L157.618 58.2901L117.683 45.849L96.3865 114.405Z" fill="#E6E7E8"/>
<path d="M117.31 131.807C117.095 131.808 116.881 131.776 116.675 131.713L109.102 129.345C108.836 129.262 108.59 129.127 108.376 128.949C108.162 128.77 107.985 128.551 107.856 128.304C107.727 128.057 107.647 127.787 107.622 127.509C107.597 127.231 107.627 126.951 107.71 126.685L108.613 123.768C108.781 123.231 109.154 122.781 109.652 122.519C110.15 122.256 110.732 122.202 111.269 122.368L118.842 124.737C119.379 124.905 119.827 125.279 120.089 125.777C120.351 126.276 120.406 126.858 120.24 127.397L119.337 130.313C119.201 130.745 118.931 131.123 118.567 131.391C118.202 131.66 117.762 131.805 117.31 131.807ZM110.611 122.864C110.283 122.864 109.963 122.97 109.699 123.165C109.435 123.36 109.24 123.635 109.143 123.949L108.24 126.866C108.179 127.059 108.157 127.263 108.175 127.465C108.193 127.667 108.25 127.864 108.345 128.043C108.439 128.223 108.568 128.382 108.724 128.511C108.88 128.64 109.06 128.738 109.254 128.797L116.826 131.165C117.019 131.226 117.223 131.249 117.424 131.231C117.626 131.213 117.822 131.155 118.002 131.06C118.181 130.966 118.34 130.837 118.469 130.681C118.598 130.524 118.695 130.344 118.754 130.15L119.657 127.233C119.778 126.842 119.739 126.419 119.549 126.056C119.359 125.693 119.034 125.42 118.644 125.297L111.071 122.934C110.922 122.888 110.767 122.864 110.611 122.864Z" fill="#D1D3D4"/>
<path d="M147.058 50.8284H146.976L135.6 47.2875C135.523 47.2643 135.458 47.2113 135.42 47.1402C135.382 47.0691 135.373 46.9857 135.396 46.9084C135.419 46.831 135.472 46.766 135.543 46.7277C135.614 46.6895 135.698 46.681 135.775 46.7042L147.145 50.245C147.219 50.2692 147.28 50.3211 147.316 50.3897C147.352 50.4583 147.36 50.5383 147.338 50.6125C147.321 50.6742 147.285 50.7287 147.234 50.7677C147.184 50.8067 147.122 50.828 147.058 50.8284Z" fill="#D1D3D4"/>
<path d="M134.138 46.6517H134.051L132.525 46.1734C132.447 46.1501 132.382 46.0972 132.344 46.0261C132.306 45.955 132.298 45.8715 132.321 45.7942C132.344 45.7168 132.397 45.6519 132.468 45.6136C132.539 45.5753 132.622 45.5668 132.699 45.59L134.225 46.0684C134.299 46.0925 134.36 46.1444 134.396 46.213C134.432 46.2816 134.44 46.3616 134.418 46.4359C134.4 46.497 134.364 46.551 134.313 46.5899C134.263 46.6287 134.202 46.6504 134.138 46.6517Z" fill="#D1D3D4"/>
<path d="M113.879 78.9217C113.665 79.7158 113.218 80.4268 112.594 80.9618C111.97 81.4968 111.2 81.8308 110.384 81.92C108.354 82.1628 106.308 81.6363 104.646 80.4442C103.691 79.7745 102.876 78.9244 102.246 77.9417C101.163 76.2442 100.819 74.3133 101.489 72.8317C102.584 70.4108 106.359 69.8509 109.609 71.28C112.65 72.6158 114.38 76.6583 113.879 78.9217Z" fill="white"/>
<path d="M109.388 82.2875C107.627 82.2573 105.917 81.6985 104.477 80.6834C103.491 79.9932 102.649 79.115 102.002 78.0992C100.837 76.2559 100.534 74.2375 101.221 72.7092C102.357 70.2125 106.166 69.4542 109.726 71.0175C112.854 72.3884 114.712 76.5009 114.158 78.9859C113.937 79.8383 113.462 80.6031 112.796 81.1784C112.13 81.7536 111.305 82.112 110.43 82.2059C110.086 82.2627 109.737 82.29 109.388 82.2875ZM106.015 70.8017C104.046 70.8017 102.374 71.56 101.745 72.9542C101.116 74.3484 101.407 76.1042 102.479 77.7842C103.089 78.7368 103.881 79.5595 104.809 80.205C106.405 81.3558 108.373 81.8657 110.326 81.6342C111.086 81.5566 111.805 81.2496 112.388 80.7538C112.97 80.258 113.389 79.5967 113.588 78.8575C114.036 76.8392 112.51 72.8784 109.51 71.5484C108.409 71.061 107.219 70.8068 106.015 70.8017Z" fill="#231F20"/>
<path d="M109.807 89.9934C109.984 90.5463 110.034 91.1323 109.952 91.7073C109.87 92.2822 109.66 92.8311 109.335 93.3125C108.886 93.8576 108.316 94.2892 107.669 94.5725C105.922 95.4242 103.831 95.7392 102.095 94.9109C101.053 94.3412 100.153 93.5437 99.4619 92.5775C98.1979 90.9675 97.0911 89.0775 97.1319 87.03C97.2018 84.0667 100.411 80.7009 103.475 82.095C106.015 83.215 109.079 87.3975 109.807 89.9934Z" fill="white"/>
<path d="M104.349 95.6925C103.526 95.7034 102.711 95.5258 101.967 95.1733C100.883 94.5783 99.9492 93.7445 99.2347 92.735C97.5629 90.6058 96.8057 88.7858 96.8465 87.0008C96.9118 86.0275 97.204 85.083 97.6997 84.2432C98.1953 83.4034 98.8807 82.6916 99.7007 82.165C100.267 81.7766 100.923 81.5399 101.606 81.4776C102.289 81.4154 102.977 81.5295 103.603 81.8092C106.207 82.9758 109.347 87.2575 110.087 89.9175C110.277 90.5139 110.329 91.1457 110.239 91.7652C110.149 92.3847 109.92 92.9756 109.568 93.4933C109.098 94.0703 108.499 94.5296 107.821 94.835C106.745 95.384 105.557 95.6774 104.349 95.6925ZM102.019 82.0425C101.311 82.0444 100.619 82.2466 100.021 82.6259C99.2824 83.1014 98.6646 83.7428 98.2167 84.4992C97.7687 85.2556 97.503 86.1062 97.4406 86.9833C97.3998 88.6283 98.1222 90.3317 99.7007 92.3442C100.365 93.2824 101.231 94.0597 102.235 94.6192C103.714 95.3367 105.654 95.2025 107.553 94.2808C108.16 94.024 108.695 93.6237 109.114 93.1142C109.412 92.6695 109.606 92.1627 109.679 91.632C109.753 91.1014 109.705 90.561 109.539 90.0517C108.846 87.5608 105.799 83.4192 103.37 82.3167C102.942 82.1268 102.476 82.0333 102.007 82.0425H102.019Z" fill="#231F20"/>
<path d="M105.514 98.2475C105.999 98.8678 106.343 99.5864 106.522 100.353C106.661 101.226 106.549 102.12 106.201 102.932C105.852 103.743 105.281 104.439 104.553 104.938C103.816 105.422 102.991 105.753 102.124 105.912C101.258 106.072 100.369 106.056 99.5085 105.866C98.4839 105.678 97.5105 105.275 96.6514 104.685C95.7923 104.095 95.0669 103.331 94.5223 102.442C93.9936 101.541 93.709 100.518 93.6967 99.4731C93.6845 98.4284 93.945 97.3987 94.4524 96.4858C97.2775 91.7492 103.05 94.9167 105.514 98.2475Z" fill="white"/>
<path d="M100.965 106.303C100.456 106.301 99.9491 106.251 99.4502 106.152C98.3858 105.954 97.3746 105.535 96.4825 104.921C95.5903 104.307 94.8371 103.512 94.2718 102.587C93.7148 101.642 93.4152 100.568 93.4029 99.4702C93.3907 98.3728 93.6662 97.2915 94.2019 96.3342C94.5848 95.6106 95.147 94.9977 95.8345 94.5544C96.522 94.1111 97.3118 93.8522 98.128 93.8025C100.924 93.645 104.087 95.8383 105.747 98.0725C106.259 98.7263 106.621 99.4851 106.807 100.295C106.955 101.223 106.837 102.174 106.468 103.038C106.099 103.902 105.494 104.643 104.722 105.177C103.615 105.93 102.303 106.323 100.965 106.303ZM98.4017 94.38H98.1571C97.4362 94.4218 96.7386 94.6509 96.1329 95.0447C95.5273 95.4385 95.0344 95.9834 94.7029 96.6258C94.2198 97.4929 93.9721 98.4715 93.9844 99.4643C93.9966 100.457 94.2685 101.429 94.7728 102.284C95.2961 103.139 95.9935 103.874 96.8195 104.441C97.6456 105.008 98.5816 105.394 99.5667 105.574C100.388 105.759 101.237 105.776 102.065 105.625C102.893 105.474 103.681 105.157 104.384 104.693C105.065 104.226 105.6 103.576 105.928 102.817C106.255 102.058 106.362 101.223 106.236 100.406C106.067 99.6808 105.741 99.0018 105.281 98.4167C103.761 96.375 100.947 94.38 98.4017 94.38Z" fill="#231F20"/>
<path d="M156.372 167.168L157.613 143.403L112.341 143.969L103.359 167.168H156.372Z" fill="#F9A825"/>
<path d="M156.372 167.454H103.365C103.318 167.454 103.272 167.442 103.231 167.421C103.189 167.4 103.154 167.369 103.126 167.332C103.1 167.293 103.083 167.248 103.078 167.201C103.073 167.154 103.08 167.107 103.097 167.063L112.079 143.864C112.099 143.809 112.136 143.762 112.184 143.729C112.231 143.695 112.288 143.677 112.347 143.678L157.619 143.094C157.658 143.091 157.698 143.098 157.734 143.113C157.77 143.128 157.803 143.152 157.828 143.182C157.856 143.21 157.877 143.244 157.891 143.281C157.905 143.318 157.912 143.358 157.91 143.398L156.692 167.18C156.69 167.219 156.68 167.258 156.663 167.293C156.645 167.329 156.621 167.36 156.591 167.386C156.561 167.411 156.526 167.431 156.488 167.442C156.451 167.454 156.411 167.458 156.372 167.454ZM103.784 166.871H156.11L157.322 143.689L112.556 144.273L103.784 166.871Z" fill="#F9A825"/>
<path d="M158.696 127C158.696 127 165.844 103.025 164.521 97.425C163.199 91.825 160.619 69.1683 158.294 68.2933C155.97 67.4183 151.304 73.8642 151.427 80.9167C151.459 85.0782 152.131 89.2098 153.419 93.1667C153.419 93.1667 145.695 96.5733 144.827 115.567" fill="white"/>
<path d="M158.696 127.303H158.615C158.541 127.279 158.479 127.228 158.443 127.159C158.406 127.091 158.396 127.011 158.417 126.936C158.492 126.697 165.523 102.978 164.242 97.5125C163.84 95.7625 163.316 92.4608 162.71 88.6225C161.545 81.3308 159.652 69.1333 158.201 68.5908C157.919 68.5341 157.628 68.5435 157.35 68.6184C157.072 68.6933 156.815 68.8316 156.599 69.0225C154.199 70.7083 151.654 75.7425 151.724 80.94C151.767 85.0611 152.433 89.1518 153.698 93.0733C153.724 93.1424 153.723 93.2187 153.695 93.2869C153.667 93.3551 153.614 93.4101 153.547 93.4408C153.547 93.4408 151.636 94.3217 149.668 97.46C147.839 100.377 145.59 105.883 145.124 115.584C145.123 115.623 145.115 115.662 145.099 115.697C145.082 115.733 145.059 115.765 145.03 115.791C145.001 115.817 144.967 115.837 144.93 115.85C144.893 115.863 144.854 115.867 144.815 115.864C144.739 115.86 144.668 115.825 144.617 115.769C144.565 115.712 144.538 115.637 144.542 115.561C145.334 98.2533 151.718 93.785 153.069 93.0267C151.84 89.1059 151.193 85.0258 151.147 80.9167C151.071 75.5325 153.751 70.2883 156.273 68.515C156.561 68.2619 156.906 68.0837 157.279 67.9962C157.652 67.9087 158.041 67.9146 158.411 68.0133C160.054 68.6317 161.469 76.8975 163.292 88.5C163.875 92.3325 164.416 95.64 164.813 97.3492C166.129 102.967 159.267 126.096 158.988 127.099C158.969 127.161 158.93 127.215 158.878 127.252C158.825 127.289 158.761 127.307 158.696 127.303Z" fill="#231F20"/>
<path d="M128.43 49.2067H73.5115C72.1319 49.2067 70.8088 49.7555 69.8333 50.7324C68.8578 51.7093 68.3098 53.0343 68.3098 54.4158V90.7283C68.309 91.4129 68.443 92.0909 68.704 92.7236C68.9651 93.3563 69.3481 93.9312 69.8312 94.4155C70.3143 94.8999 70.888 95.2841 71.5195 95.5462C72.151 95.8084 72.8279 95.9433 73.5115 95.9433H120.077L127.742 105.708V95.9433H128.43C129.113 95.9433 129.79 95.8084 130.422 95.5462C131.053 95.2841 131.627 94.8999 132.11 94.4155C132.593 93.9312 132.976 93.3563 133.237 92.7236C133.498 92.0909 133.632 91.4129 133.631 90.7283V54.4158C133.631 53.7318 133.497 53.0544 133.235 52.4224C132.974 51.7904 132.591 51.2161 132.108 50.7324C131.625 50.2487 131.051 49.865 130.42 49.6032C129.789 49.3414 129.113 49.2067 128.43 49.2067Z" fill="white"/>
<path d="M127.742 106C127.697 106 127.653 105.989 127.612 105.969C127.572 105.948 127.537 105.919 127.509 105.883L119.937 96.235H73.5115C72.0546 96.2319 70.6584 95.6506 69.6287 94.6184C68.5991 93.5862 68.0201 92.1873 68.0185 90.7283V54.4158C68.0201 52.9574 68.5993 51.5591 69.6291 50.5279C70.6589 49.4966 72.0551 48.9166 73.5115 48.915H128.43C129.886 48.9166 131.282 49.4966 132.312 50.5279C133.342 51.5591 133.921 52.9574 133.923 54.4158V90.7283C133.921 92.1873 133.342 93.5862 132.312 94.6184C131.283 95.6506 129.886 96.2319 128.43 96.235H128.034V105.708C128.032 105.769 128.013 105.827 127.977 105.876C127.942 105.925 127.892 105.962 127.835 105.983C127.806 105.994 127.774 106 127.742 106ZM73.5115 49.4983C72.2096 49.4999 70.9615 50.0185 70.041 50.9403C69.1204 51.8622 68.6026 53.1121 68.601 54.4158V90.7283C68.6026 92.0326 69.1202 93.2831 70.0406 94.2059C70.961 95.1287 72.2091 95.6486 73.5115 95.6517H120.077C120.121 95.6522 120.165 95.6624 120.205 95.6816C120.245 95.7007 120.281 95.7283 120.31 95.7625L127.451 104.863V95.9433C127.451 95.866 127.482 95.7918 127.536 95.7371C127.591 95.6824 127.665 95.6517 127.742 95.6517H128.43C129.732 95.6486 130.98 95.1287 131.9 94.2059C132.821 93.2831 133.339 92.0326 133.34 90.7283V54.4158C133.339 53.1121 132.821 51.8622 131.9 50.9403C130.98 50.0185 129.731 49.4999 128.43 49.4983H73.5115Z" fill="#231F20"/>
<path d="M118.859 67.5525L102.007 54.8592C101.707 54.6361 101.342 54.5157 100.968 54.5157C100.593 54.5157 100.229 54.6361 99.9279 54.8592L83.0761 67.5525V88.9084H118.859V67.5525Z" fill="#231F20"/>
<path d="M118.859 89.2H83.0761C83.0387 89.2 83.0015 89.1926 82.9669 89.1782C82.9323 89.1639 82.9008 89.1428 82.8743 89.1163C82.8478 89.0897 82.8268 89.0582 82.8124 89.0236C82.7981 88.9889 82.7907 88.9517 82.7907 88.9142V67.5525C82.7903 67.5071 82.8006 67.4623 82.8208 67.4218C82.8411 67.3812 82.8707 67.346 82.9072 67.3192L99.7531 54.6317C100.103 54.3681 100.53 54.2255 100.968 54.2255C101.406 54.2255 101.832 54.3681 102.182 54.6317L119.034 67.3192C119.069 67.3469 119.098 67.3823 119.118 67.4227C119.139 67.463 119.15 67.5074 119.15 67.5525V88.9142C119.15 88.9523 119.142 88.99 119.127 89.0251C119.112 89.0602 119.09 89.0919 119.063 89.1183C119.008 89.1712 118.935 89.2005 118.859 89.2ZM83.3674 88.6167H118.568V67.6983L101.838 55.0925C101.587 54.9023 101.28 54.7994 100.965 54.7994C100.649 54.7994 100.343 54.9023 100.091 55.0925L83.3674 67.6983V88.6167Z" fill="#231F20"/>
<path d="M114.63 60.5642H86.4197V87.3217H114.63V60.5642Z" fill="white"/>
<path d="M114.63 87.59H86.4197C86.3845 87.59 86.3497 87.5831 86.3171 87.5696C86.2846 87.5561 86.2551 87.5364 86.2302 87.5114C86.2053 87.4865 86.1856 87.4569 86.1721 87.4244C86.1587 87.3918 86.1517 87.3569 86.1517 87.3217V60.5642C86.1517 60.529 86.1587 60.4941 86.1721 60.4615C86.1856 60.429 86.2053 60.3994 86.2302 60.3745C86.2551 60.3495 86.2846 60.3298 86.3171 60.3163C86.3497 60.3028 86.3845 60.2959 86.4197 60.2959H114.63C114.701 60.2974 114.768 60.3261 114.818 60.3761C114.868 60.4261 114.897 60.4935 114.898 60.5642V87.3334C114.894 87.402 114.864 87.4665 114.814 87.514C114.764 87.5616 114.699 87.5887 114.63 87.59ZM86.6702 87.0592H114.351V60.8092H86.6818L86.6702 87.0592Z" fill="#231F20"/>
<path d="M110.489 74.8267H90.5613C90.484 74.8267 90.4099 74.7959 90.3553 74.7412C90.3007 74.6865 90.27 74.6124 90.27 74.535C90.27 74.4577 90.3007 74.3835 90.3553 74.3288C90.4099 74.2741 90.484 74.2433 90.5613 74.2433H110.489C110.566 74.2433 110.64 74.2741 110.695 74.3288C110.749 74.3835 110.78 74.4577 110.78 74.535C110.778 74.6119 110.747 74.6852 110.693 74.7396C110.639 74.794 110.565 74.8252 110.489 74.8267Z" fill="#D1D3D4"/>
<path d="M101.437 77.6792H90.5613C90.484 77.6792 90.4099 77.6485 90.3553 77.5938C90.3007 77.5391 90.27 77.4649 90.27 77.3875C90.27 77.3102 90.3007 77.236 90.3553 77.1813C90.4099 77.1266 90.484 77.0959 90.5613 77.0959H101.437C101.514 77.0959 101.588 77.1266 101.642 77.1813C101.697 77.236 101.728 77.3102 101.728 77.3875C101.728 77.4649 101.697 77.5391 101.642 77.5938C101.588 77.6485 101.514 77.6792 101.437 77.6792Z" fill="#D1D3D4"/>
<path d="M110.489 66.2633H90.5613C90.484 66.2633 90.4099 66.2326 90.3553 66.1779C90.3007 66.1232 90.27 66.049 90.27 65.9717C90.27 65.8943 90.3007 65.8201 90.3553 65.7654C90.4099 65.7107 90.484 65.68 90.5613 65.68H110.489C110.566 65.68 110.64 65.7107 110.695 65.7654C110.749 65.8201 110.78 65.8943 110.78 65.9717C110.78 66.049 110.749 66.1232 110.695 66.1779C110.64 66.2326 110.566 66.2633 110.489 66.2633Z" fill="#D1D3D4"/>
<path d="M110.489 69.1159H90.5613C90.484 69.1159 90.4099 69.0851 90.3553 69.0304C90.3007 68.9757 90.27 68.9016 90.27 68.8242C90.27 68.7468 90.3007 68.6727 90.3553 68.618C90.4099 68.5633 90.484 68.5325 90.5613 68.5325H110.489C110.565 68.534 110.639 68.5652 110.693 68.6196C110.747 68.674 110.778 68.7473 110.78 68.8242C110.78 68.9016 110.749 68.9757 110.695 69.0304C110.64 69.0851 110.566 69.1159 110.489 69.1159Z" fill="#D1D3D4"/>
<path d="M110.489 71.9742H90.5613C90.484 71.9742 90.4099 71.9434 90.3553 71.8888C90.3007 71.8341 90.27 71.7599 90.27 71.6825C90.27 71.6052 90.3007 71.531 90.3553 71.4763C90.4099 71.4216 90.484 71.3908 90.5613 71.3908H110.489C110.566 71.3908 110.64 71.4216 110.695 71.4763C110.749 71.531 110.78 71.6052 110.78 71.6825C110.778 71.7594 110.747 71.8327 110.693 71.8871C110.639 71.9415 110.565 71.9727 110.489 71.9742Z" fill="#D1D3D4"/>
<path d="M118.859 67.5525V90.5067H83.082V67.5525L100.971 81.0275L118.859 67.5525Z" fill="white"/>
<path d="M118.859 90.775H83.0762C83.0412 90.775 83.0067 90.768 82.9745 90.7545C82.9423 90.7409 82.9131 90.7211 82.8887 90.6961C82.8643 90.6711 82.8451 90.6414 82.8323 90.6089C82.8195 90.5764 82.8133 90.5416 82.814 90.5067V67.5525C82.8146 67.5032 82.8284 67.455 82.854 67.4129C82.8797 67.3708 82.9162 67.3364 82.9597 67.3133C83.0017 67.2876 83.0501 67.2739 83.0995 67.2739C83.1488 67.2739 83.1972 67.2876 83.2393 67.3133L100.971 80.6717L118.702 67.3133C118.744 67.2876 118.792 67.2739 118.842 67.2739C118.891 67.2739 118.939 67.2876 118.981 67.3133C119.025 67.3364 119.061 67.3708 119.087 67.4129C119.113 67.455 119.127 67.5032 119.127 67.5525V90.5067C119.127 90.5778 119.099 90.6461 119.049 90.6964C118.998 90.7467 118.93 90.775 118.859 90.775ZM83.3266 90.2442H118.574V68.0833L101.099 81.2375C101.052 81.2712 100.996 81.2893 100.939 81.2893C100.881 81.2893 100.825 81.2712 100.778 81.2375L83.3441 68.0833L83.3266 90.2442Z" fill="#231F20"/>
<path d="M83.0762 90.775C83.0355 90.775 82.9953 90.7655 82.9589 90.7473C82.9225 90.7291 82.8909 90.7026 82.8665 90.67C82.8238 90.6141 82.8048 90.5436 82.8135 90.4738C82.8222 90.404 82.858 90.3404 82.9131 90.2967L97.86 78.5834C97.9158 78.5406 97.9862 78.5216 98.0559 78.5303C98.1257 78.539 98.1892 78.5748 98.2328 78.63C98.2547 78.6574 98.2708 78.6889 98.2804 78.7227C98.2899 78.7564 98.2925 78.7917 98.2882 78.8265C98.2839 78.8613 98.2726 78.8949 98.2551 78.9253C98.2376 78.9557 98.2141 78.9822 98.1862 79.0034L83.2451 90.7167C83.1971 90.7549 83.1375 90.7755 83.0762 90.775Z" fill="#231F20"/>
<path d="M118.859 90.775C118.802 90.7746 118.747 90.7562 118.702 90.7225L103.458 79.2425C103.41 79.1971 103.381 79.1358 103.375 79.0701C103.37 79.0045 103.389 78.9391 103.428 78.8865C103.468 78.8339 103.526 78.7977 103.59 78.7848C103.655 78.772 103.721 78.7833 103.778 78.8167L119.022 90.2967C119.065 90.3311 119.097 90.3781 119.113 90.4313C119.128 90.4844 119.127 90.541 119.109 90.5934C119.091 90.6458 119.058 90.6914 119.013 90.7239C118.968 90.7564 118.914 90.7742 118.859 90.775Z" fill="#231F20"/>
<path d="M118.859 86.5284C122.993 86.5284 126.344 83.1723 126.344 79.0325C126.344 74.8927 122.993 71.5367 118.859 71.5367C114.725 71.5367 111.374 74.8927 111.374 79.0325C111.374 83.1723 114.725 86.5284 118.859 86.5284Z" fill="#083A59"/>
<path d="M118.859 76.5009L116.529 77.6675V75.8592L118.97 74.6167H120.647V81.6867H118.83L118.859 76.5009Z" fill="white"/>
<path d="M79.0278 65.8084H78.9579L72.2591 64.2159C72.1819 64.1981 72.1149 64.1503 72.0728 64.083C72.0307 64.0157 72.0171 63.9345 72.0349 63.8571C72.0526 63.7798 72.1003 63.7126 72.1675 63.6705C72.2347 63.6284 72.3158 63.6147 72.3931 63.6325L79.0918 65.225C79.1293 65.2332 79.1647 65.2489 79.1959 65.2711C79.2272 65.2933 79.2537 65.3216 79.2738 65.3542C79.2939 65.3869 79.3072 65.4233 79.313 65.4612C79.3188 65.4991 79.3168 65.5378 79.3074 65.575C79.2962 65.6409 79.2619 65.7007 79.2107 65.7435C79.1594 65.7863 79.0945 65.8093 79.0278 65.8084Z" fill="#D1D3D4"/>
<path d="M80.8336 61.9583C80.7705 61.9588 80.709 61.9383 80.6588 61.9L74.1348 56.8425C74.104 56.8196 74.0781 56.7907 74.0587 56.7575C74.0393 56.7244 74.0268 56.6876 74.0219 56.6495C74.017 56.6114 74.0198 56.5727 74.0302 56.5357C74.0406 56.4987 74.0583 56.4642 74.0824 56.4342C74.1305 56.3745 74.1997 56.3357 74.2757 56.3259C74.3517 56.3161 74.4285 56.3361 74.4901 56.3817L81.0141 61.4392C81.0611 61.4769 81.0952 61.5282 81.1118 61.5861C81.1284 61.6441 81.1267 61.7057 81.1069 61.7626C81.0871 61.8195 81.0502 61.8689 81.0013 61.9039C80.9523 61.939 80.8937 61.958 80.8336 61.9583Z" fill="#D1D3D4"/>
<path d="M84.7887 57.8283C84.7297 57.828 84.6722 57.81 84.6234 57.7768C84.5747 57.7435 84.5369 57.6965 84.5149 57.6417L82.8024 52.975C82.7775 52.9014 82.7817 52.8211 82.8142 52.7505C82.8467 52.68 82.9051 52.6246 82.9771 52.5958C83.0497 52.5696 83.1298 52.5733 83.1997 52.6061C83.2696 52.6389 83.3236 52.6981 83.3499 52.7708L85.0625 57.4375C85.0763 57.4734 85.0827 57.5118 85.0813 57.5503C85.08 57.5888 85.0709 57.6266 85.0545 57.6615C85.0382 57.6963 85.015 57.7275 84.9864 57.7532C84.9577 57.7789 84.9241 57.7985 84.8877 57.8108C84.8561 57.8227 84.8225 57.8287 84.7887 57.8283Z" fill="#D1D3D4"/>
<defs>
<linearGradient id="paint0_linear" x1="2143.27" y1="-851.094" x2="2531.51" y2="-683.388" gradientUnits="userSpaceOnUse">
<stop offset="0.01"/>
<stop offset="0.13" stop-opacity="0.69"/>
<stop offset="0.25" stop-opacity="0.32"/>
<stop offset="1" stop-opacity="0"/>
</linearGradient>
<linearGradient id="paint1_linear" x1="1160.68" y1="2210" x2="968.885" y2="2514.39" gradientUnits="userSpaceOnUse">
<stop offset="0.01"/>
<stop offset="0.13" stop-opacity="0.69"/>
<stop offset="0.25" stop-opacity="0.32"/>
<stop offset="1" stop-opacity="0"/>
</linearGradient>
<linearGradient id="paint2_linear" x1="1820.27" y1="3096" x2="1721.96" y2="3152.76" gradientUnits="userSpaceOnUse">
<stop offset="0.01"/>
<stop offset="0.13" stop-opacity="0.69"/>
<stop offset="0.25" stop-opacity="0.32"/>
<stop offset="1" stop-opacity="0"/>
</linearGradient>
</defs>
</svg>
