<svg width="190" height="188" viewBox="0 0 190 188" fill="none" xmlns="http://www.w3.org/2000/svg">
<ellipse cx="94.9591" cy="93.733" rx="94.9591" ry="93.733" fill="#FEF1E1"/>
<path d="M82.316 61.8131C82.4664 61.7424 82.5997 61.64 82.707 61.5131C82.8142 61.3861 82.8927 61.2375 82.9373 61.0774C82.5789 61.0037 82.2113 60.9853 81.8474 61.0229L80.8038 61.0747L80.1171 61.1101C79.6893 61.1346 79.6812 61.3227 79.8446 61.6169C79.9209 61.7559 80.1171 61.8676 80.1989 62.0175C80.2806 62.1673 80.2942 62.3281 80.3923 62.4425C80.6648 62.7695 80.7411 62.5842 81.0926 62.3717C81.4441 62.1592 81.9155 62.0311 82.316 61.8131Z" fill="white"/>
<path d="M77.2098 36.0361L87.1738 28.7984L81.3049 36.148L77.2098 36.0361Z" fill="#F28705"/>
<path d="M86.4996 29.9143L83.7092 39.6806L80.6307 37.2639L86.4996 29.9143Z" fill="#F28705"/>
<path d="M86.4996 29.9143L83.7092 39.6806L80.6307 37.2639L86.4996 29.9143Z" fill="url(#paint0_linear)"/>
<path d="M81.1599 40.9968L80.4732 36.9192L86.3422 29.5695L81.1599 40.9968Z" fill="#F28705"/>
<path d="M95.7681 49.3715C95.9351 49.3118 96.0831 49.2256 96.2021 49.1185C96.3211 49.0115 96.4083 48.8863 96.4578 48.7513C96.0599 48.6891 95.6519 48.6736 95.2479 48.7054L94.0895 48.749L93.3273 48.7789C92.8524 48.7995 92.8433 48.958 93.0248 49.2061C93.1095 49.3232 93.3273 49.4174 93.418 49.5437C93.5087 49.6701 93.5239 49.8056 93.6327 49.9021C93.9352 50.1777 94.0199 50.0215 94.4101 49.8423C94.8003 49.6632 95.3235 49.5552 95.7681 49.3715Z" fill="white"/>
<path d="M101.831 26.8568L109.528 38.1448L102.297 31.0709L101.831 26.8568Z" fill="#F28705"/>
<path d="M108.323 36.3749L99.6292 32.2154L101.263 29.4393L108.323 36.3749Z" fill="#F28705"/>
<path d="M107.618 36.5536L98.9235 32.3941L100.557 29.618L107.618 36.5536Z" fill="url(#paint1_linear)"/>
<path d="M97.0399 29.5206L100.478 29.4061L107.717 36.5705L97.0399 29.5206Z" fill="#F28705"/>
<path d="M109.439 38.1957L102.793 30.7844L101.776 26.8887L102.297 31.0709L109.439 38.1957Z" fill="url(#paint2_linear)"/>
<path opacity="0.37" d="M103.273 157.767C96.4683 157.202 89.3567 156.139 83.0081 158.657C82.8785 160.448 85.2635 161.161 87.0582 161.262L115.802 162.88C124.684 163.359 133.711 163.866 142.377 161.851C143.337 161.626 144.57 160.927 144.234 159.988C144.073 159.654 143.804 159.383 143.471 159.218C137.914 155.809 131.681 157.154 125.659 157.695C118.213 158.363 110.723 158.387 103.273 157.767Z" fill="url(#paint3_linear)"/>
<path opacity="0.37" d="M82.8209 151.457C79.2699 152.96 74.6632 152.414 70.8866 152.692C65.6465 153.065 60.5024 154.286 55.2526 154.492C54.8984 154.531 54.5401 154.512 54.1921 154.435C52.4166 152.574 50.6859 150.673 49 148.732C51.2698 147.603 53.9522 147.66 56.5051 147.775C64.5764 148.12 72.7053 148.756 80.6855 148.191C83.5503 148.024 87.0245 149.685 82.8209 151.457Z" fill="url(#paint4_linear)"/>
<path d="M96.5883 155.9C97.9799 155.206 99.5731 155.34 101.099 155.483C101.329 155.479 101.553 155.555 101.732 155.699C101.889 155.88 101.994 156.1 102.035 156.335C102.256 157.133 102.452 157.931 102.625 158.729C102.742 159.081 102.73 159.463 102.591 159.806C102.472 159.975 102.305 160.105 102.112 160.18C101.041 160.711 99.8322 160.74 98.6565 160.759L92.5047 160.865C91.9031 160.919 91.2971 160.834 90.734 160.616C90.4325 160.476 90.1761 160.255 89.9939 159.977C89.8116 159.7 89.7106 159.377 89.7023 159.045C89.7023 158.193 90.4317 157.609 91.1179 157.326C92.1003 156.973 93.135 156.785 94.1794 156.771C95.096 156.738 95.7774 156.307 96.5883 155.9Z" fill="#606161"/>
<path d="M101.281 155.89C101.229 156.181 101.088 156.448 100.878 156.656C100.512 156.897 100.071 156.999 99.6356 156.943C99.4073 156.959 99.1788 156.915 98.9733 156.814C98.8169 156.713 98.6935 156.568 98.6182 156.398C98.3339 155.673 98.2558 154.884 98.3927 154.119C98.3923 154.031 98.4191 153.946 98.4695 153.874C98.5192 153.826 98.583 153.794 98.6518 153.783C99.2133 153.621 100.499 153.439 101.003 153.86C101.507 154.281 101.406 155.344 101.281 155.89Z" fill="url(#paint5_linear)"/>
<path d="M134.358 151.414C134.82 151.712 135.259 152.043 135.673 152.405C135.841 152.533 135.979 152.696 136.076 152.883C136.145 153.063 136.171 153.257 136.153 153.448C136.048 154.292 135.678 155.081 135.097 155.703C134.555 156.35 133.922 156.919 133.418 157.618C132.914 158.317 132.554 159.055 131.892 159.534C131.377 159.858 130.806 160.083 130.207 160.194C129.065 160.477 127.808 160.73 126.738 160.266C126.648 160.234 126.567 160.18 126.503 160.108C126.444 160.01 126.416 159.897 126.421 159.782C126.416 159.381 126.499 158.984 126.665 158.618C126.831 158.252 127.075 157.927 127.381 157.666C128.154 157.02 129.272 156.819 129.905 156.034C130.246 155.558 130.443 154.995 130.471 154.411C130.466 153.983 130.567 153.56 130.764 153.18C131.03 152.875 131.357 152.629 131.724 152.457C132.166 152.16 132.555 151.791 132.876 151.366C133.322 150.896 133.907 151.117 134.358 151.414Z" fill="#606161"/>
<path d="M132.161 153.233C131.854 153.344 131.527 153.388 131.201 153.362C131.081 153.362 130.962 153.348 130.846 153.319C130.698 153.252 130.566 153.156 130.458 153.036C130.35 152.915 130.268 152.774 130.217 152.62C130.049 152.26 129.92 151.883 129.833 151.495C129.56 150.284 131.206 149.072 132.281 149.815C133.356 150.557 133.562 152.635 132.161 153.233Z" fill="url(#paint6_linear)"/>
<path d="M103.196 128.236C102.629 129.053 102.182 129.946 101.867 130.889C101.611 131.973 101.515 133.09 101.583 134.202L101.78 152.07C101.849 152.706 101.726 153.348 101.425 153.913C100.758 154.87 98.4883 155.349 97.7637 154.416C97.0391 153.482 95.0285 139.928 94.4046 132.234C94.2175 129.96 94.0399 127.638 94.5198 125.416C95.1484 122.515 105.557 105.404 107.529 105.681C109.501 105.959 116.277 106.701 117.246 108.592C118.508 111.058 114.031 113.528 112.52 115.353C109.135 119.441 106.021 123.745 103.196 128.236Z" fill="#606161"/>
<path opacity="0.37" d="M103.196 128.236C102.629 129.053 102.182 129.946 101.867 130.889C101.611 131.973 101.515 133.09 101.583 134.202L101.78 152.07C101.849 152.706 101.726 153.348 101.425 153.913C100.758 154.87 98.4883 155.349 97.7637 154.416C97.0391 153.482 95.0285 139.928 94.4046 132.234C94.2175 129.96 94.0399 127.638 94.5198 125.416C95.1484 122.515 105.557 105.404 107.529 105.681C109.501 105.959 116.277 106.701 117.246 108.592C118.508 111.058 114.031 113.528 112.52 115.353C109.135 119.441 106.021 123.745 103.196 128.236Z" fill="url(#paint7_linear)"/>
<path d="M98.5026 82.9111C99.0299 83.1193 99.4782 83.4878 99.7839 83.9644C100.02 84.5657 100.044 85.2294 99.851 85.846C99.8062 86.2736 99.6264 86.6759 99.3376 86.995C98.9293 87.2865 98.4229 87.4068 97.9268 87.3302C96.0368 87.2191 94.222 86.5528 92.7107 85.4151C90.7912 83.9548 89.4716 81.8243 87.6721 80.2013C87.1298 79.7225 86.4868 79.1288 86.5876 78.4059C86.7193 78.0034 86.888 77.614 87.0914 77.2425C87.2229 76.6327 87.1625 75.9974 86.9187 75.4231L86.41 73.8145C87.3698 74.14 87.6625 75.4566 88.5502 75.9833C88.6828 76.0768 88.8402 76.129 89.0025 76.1333C89.1648 76.1375 89.3247 76.0937 89.462 76.0072C89.7643 75.7631 89.7883 75.2077 90.1674 75.1215C90.7096 75.6386 90.2202 76.6057 90.5561 77.2712C90.6856 77.5297 90.9304 77.7212 91.0359 77.9941C91.1008 78.2987 91.1008 78.6136 91.0359 78.9182C90.9688 80.2587 93.2097 80.8332 94.1838 81.2067C95.6378 81.7716 97.1158 82.236 98.5026 82.9111Z" fill="url(#paint8_linear)"/>
<path d="M125.068 89.4511C122.933 94.2867 124.516 99.8836 124.108 105.184C124.115 105.238 124.115 105.292 124.108 105.346C124.05 106.051 123.946 106.752 123.796 107.443C123.494 108.798 122.914 110.244 121.661 110.852C121.143 111.103 120.563 111.201 119.991 111.135C119.031 111.063 117.006 109.186 116.128 108.741C113.547 107.415 112.069 107.204 109.204 106.682C108.311 106.519 107.342 106.448 106.622 105.883C105.61 105.093 105.475 103.575 105.835 102.325C106.195 101.076 106.924 99.9889 107.371 98.7824C107.571 98.2364 107.715 97.6718 107.803 97.0971C107.877 96.7338 107.927 96.3659 107.951 95.9959C108.013 94.9794 107.994 93.9596 107.894 92.9462C107.831 92.2041 107.745 91.4572 107.668 90.7151C107.55 89.6515 107.49 88.5822 107.491 87.5121C107.484 87.3941 107.484 87.2758 107.491 87.1578C107.499 86.4794 107.646 85.8098 107.923 85.1901C108.82 83.433 111.07 82.9303 113.024 82.8537C114.977 82.7771 116.56 82.7052 118.379 82.0637C120.048 81.4499 121.889 81.4927 123.528 82.1834C125.02 82.8106 126.273 84.2229 126.287 85.8316C126.321 87.1099 125.577 88.259 125.068 89.4511Z" fill="#1D5377"/>
<path d="M109.832 77.6781C110.111 78.6069 110.475 79.6314 111.344 80.0719C112.011 80.3975 112.923 80.34 113.355 80.9433C113.527 81.1779 113.604 83.0547 113.834 83.2366C114.031 83.3636 114.262 83.4287 114.497 83.4233C115.634 83.5047 116.771 81.8577 117.884 81.6231C118.166 81.5939 118.429 81.4648 118.623 81.2593C118.74 81.0687 118.803 80.8504 118.806 80.6273L119.372 74.882C119.497 73.642 119.598 72.3015 118.964 71.229C118.458 70.4736 117.743 69.8814 116.906 69.5246C116.235 69.1767 115.507 68.9559 114.756 68.8735C112.784 68.7107 110.763 70.0417 110.643 72.0573C110.669 72.9288 110.376 73.7798 109.818 74.4511C108.945 75.5475 109.444 76.4045 109.832 77.6781Z" fill="url(#paint9_linear)"/>
<path d="M111.805 67.9973C112.043 67.6475 112.386 67.3815 112.785 67.2372C113.184 67.0928 113.618 67.0773 114.026 67.193C114.185 67.2504 114.357 67.327 114.506 67.2456C114.581 67.1919 114.647 67.1273 114.703 67.0541C114.87 66.9289 115.066 66.8472 115.273 66.8162C115.48 66.7853 115.691 66.8062 115.888 66.877C117.389 67.1403 118.77 67.8651 119.838 68.9501C120.359 69.5007 120.722 70.1806 120.891 70.9189C121.06 71.6573 121.028 72.4273 120.797 73.1489C120.471 74.0155 119.79 74.7719 119.737 75.696C119.737 76.0742 119.804 76.4572 119.794 76.8354C119.806 77.0264 119.768 77.2171 119.684 77.3891C119.6 77.561 119.472 77.7084 119.314 77.8169C119.1 77.9042 118.862 77.9142 118.642 77.8452C118.421 77.7761 118.231 77.6324 118.105 77.4387C117.865 77.044 117.723 76.5973 117.693 76.1364C117.666 76.0357 117.676 75.9287 117.721 75.8348C117.792 75.7571 117.883 75.7021 117.985 75.6768C118.157 75.5976 118.311 75.4831 118.435 75.3407C118.56 75.1984 118.653 75.0314 118.709 74.8508C118.765 74.6701 118.782 74.4797 118.759 74.292C118.736 74.1044 118.673 73.9237 118.575 73.7617C118.379 73.4745 117.966 73.2829 117.683 73.4745C117.4 73.666 117.438 73.9532 117.313 74.1926C117.189 74.432 116.766 74.5661 116.68 74.3075C116.659 74.2308 116.659 74.1496 116.68 74.0729C116.802 73.6768 116.87 73.2662 116.882 72.8521C116.885 72.645 116.834 72.4406 116.734 72.2591C116.634 72.0777 116.488 71.9256 116.311 71.8179C116.038 71.7162 115.747 71.669 115.456 71.6791C114.857 71.6281 114.28 71.4334 113.773 71.1116C113.266 70.7898 112.844 70.3505 112.544 69.831C112.505 69.7592 111.584 70.7885 111.353 69.831C111.26 69.1845 111.422 68.5271 111.805 67.9973Z" fill="#606161"/>
<path opacity="0.37" d="M124.128 105.184C124.135 105.238 124.135 105.292 124.128 105.346C124.07 106.051 123.965 106.752 123.816 107.443C123.514 108.798 122.933 110.244 121.681 110.852C121.162 111.103 120.583 111.201 120.011 111.135C119.869 111.041 119.754 110.912 119.676 110.761C119.598 110.611 119.559 110.442 119.564 110.273C119.531 109.454 120.083 108.41 120.251 107.606C120.507 106.387 120.652 105.146 120.682 103.9C120.727 102.485 120.638 101.068 120.418 99.6681C120.41 99.5312 120.369 99.3983 120.299 99.2803C120.107 98.9978 119.689 98.9978 119.339 99.0313C115.686 99.3124 112.016 98.7945 108.585 97.5136C108.302 97.4263 108.041 97.2775 107.822 97.0779C107.747 97.0108 107.688 96.9278 107.649 96.8351C107.61 96.7424 107.592 96.6422 107.597 96.5417C107.611 96.4251 107.652 96.3134 107.717 96.2154C107.782 96.1174 107.869 96.0357 107.971 95.9768C108.02 95.935 108.075 95.9011 108.134 95.8762C108.425 95.791 108.728 95.7506 109.031 95.7565L115.788 95.7086C116.533 95.7673 117.282 95.6406 117.966 95.34C118.387 95.0669 118.786 94.7628 119.161 94.4303C120.279 93.5542 121.724 93.1951 123.115 92.8839C123.143 92.8637 123.177 92.8528 123.211 92.8528C123.246 92.8528 123.279 92.8637 123.307 92.8839C123.327 92.9 123.342 92.9206 123.353 92.9439C123.363 92.9672 123.367 92.9926 123.365 93.018C123.972 97.0434 124.227 101.114 124.128 105.184Z" fill="url(#paint10_linear)"/>
<path d="M109.525 88.4647C109.391 88.6171 109.288 88.7945 109.223 88.9866C108.743 90.0016 108.119 91.9933 107.999 91.548C107.927 91.2529 107.817 90.9682 107.673 90.7006C107.121 89.7 106.233 89.6425 105.557 89.5515C103.919 89.3036 102.298 88.9517 100.705 88.4982C100.279 88.3915 99.8708 88.2204 99.496 87.9907C99.3276 87.8681 99.1815 87.7175 99.0641 87.5455C98.8576 87.14 98.76 86.688 98.781 86.2337C98.7679 85.4167 98.8225 84.6 98.9441 83.7919C98.9595 83.5962 99.033 83.4095 99.1553 83.2557C99.3332 83.1156 99.5525 83.0382 99.7791 83.0355C102.658 82.7051 104.645 82.5567 113.043 82.8392C115.864 82.9445 110.998 87.0811 109.525 88.4647Z" fill="#1D5377"/>
<path opacity="0.37" d="M109.674 92.2039C109.674 92.7066 109.583 93.3194 109.122 93.5253C108.912 93.5911 108.685 93.5844 108.479 93.5063C108.273 93.4281 108.099 93.2831 107.985 93.0944C107.948 93.0451 107.919 92.9901 107.899 92.9316C107.836 92.1895 107.75 91.4427 107.673 90.7006C107.121 89.6999 106.233 89.6425 105.557 89.5515C103.919 89.3035 102.298 88.9517 100.705 88.4982C100.279 88.3915 99.8709 88.2203 99.4961 87.9907C99.4884 87.9255 99.4884 87.8596 99.4961 87.7944C99.5249 87.0954 99.9472 86.8608 100.585 86.7842C102.438 86.5783 104.554 86.9614 106.421 87.0236C106.792 87.0107 107.164 87.051 107.524 87.1433C107.585 87.1508 107.644 87.1653 107.702 87.1864C108.075 87.3552 108.406 87.6041 108.671 87.9153C108.937 88.2265 109.13 88.5923 109.237 88.9866C109.399 89.4144 109.51 89.8594 109.568 90.3128C109.64 90.9406 109.675 91.572 109.674 92.2039Z" fill="url(#paint11_linear)"/>
<path d="M126.282 87.8855C126.285 88.5699 126.251 89.2539 126.181 89.9347C125.967 91.9252 125.078 93.7831 123.662 95.2012C122.956 95.8978 122.116 96.4442 121.192 96.8071C120.268 97.17 119.28 97.342 118.288 97.3125C118.096 97.3107 117.906 97.2767 117.726 97.212C117.439 97.0614 117.206 96.8255 117.059 96.5369C116.421 95.4405 116.344 94.1143 116.282 92.8456C116.247 92.5252 116.268 92.2013 116.344 91.8881C116.575 91.3761 116.948 90.9408 117.419 90.6337C118.373 89.8535 119.25 88.9847 120.039 88.0387C120.699 87.1349 121.454 86.3036 122.29 85.5587C123.014 84.9938 124.521 84.2612 125.428 84.831C126.335 85.4007 126.297 86.9902 126.282 87.8855Z" fill="#1D5377"/>
<path d="M104.583 92.2328C103.872 92.2524 103.162 92.1995 102.462 92.0748C101.869 91.9387 101.296 91.7313 100.754 91.4572C100.101 91.1401 99.4766 90.7686 98.8869 90.3464C98.695 90.5427 98.8293 90.8731 99.0213 91.0646C99.2132 91.2561 99.4675 91.4045 99.5587 91.6583C99.5707 91.6863 99.5769 91.7164 99.5769 91.7468C99.5769 91.7773 99.5707 91.8074 99.5587 91.8354C99.5107 91.9264 99.3764 91.9312 99.266 91.9168L95.1536 91.4859C95.1974 91.649 95.282 91.7982 95.3996 91.9196C95.5171 92.0411 95.6636 92.1307 95.8254 92.1801C96.1502 92.2733 96.4568 92.4206 96.7323 92.6158C97.1786 93.018 97.169 93.6978 97.3225 94.2771C97.4508 94.7017 97.6707 95.0931 97.9666 95.4239C98.2625 95.7547 98.6274 96.017 99.0357 96.1922C99.8656 96.5421 100.791 96.5945 101.656 96.3407C102.044 96.2305 102.419 96.0678 102.812 95.972C103.779 95.8078 104.769 95.8453 105.72 96.0821C108.964 96.671 112.227 97.3269 115.529 97.279C116.282 97.279 117.098 97.1929 117.659 96.6949C118.758 95.7374 118.988 92.7211 117.223 92.3573C116.071 92.1227 114.761 92.2807 113.59 92.2759L109.348 92.2472L104.583 92.2328Z" fill="url(#paint12_linear)"/>
<path d="M118.437 129.194C118.286 129.759 118.252 130.348 118.336 130.927C118.528 131.822 119.252 132.488 119.924 133.11C124.889 137.696 129.073 143.056 132.314 148.982C132.556 149.34 132.684 149.761 132.684 150.193C132.569 150.688 132.288 151.129 131.887 151.442L130.63 152.673C130.516 152.819 130.371 152.938 130.205 153.021C130.039 153.104 129.856 153.149 129.67 153.152C129.468 153.098 129.282 152.992 129.133 152.845C123.56 148.199 118.397 143.085 113.7 137.558C112.501 136.146 111.301 134.661 110.73 132.904C110.329 131.465 110.14 129.975 110.169 128.481L109.991 122.438C109.89 118.967 109.799 115.448 110.6 112.063C110.826 111.106 111.124 110.177 111.421 109.239C111.527 108.918 111.642 107.874 111.901 107.683C112.135 107.556 112.398 107.495 112.664 107.506C115.73 107.41 121.873 109.512 121.479 113.433C120.985 118.68 119.459 124.018 118.437 129.194Z" fill="#606161"/>
<path opacity="0.37" d="M118.437 129.194C118.286 129.759 118.252 130.348 118.336 130.927C118.528 131.822 119.252 132.488 119.924 133.11C124.889 137.696 129.073 143.056 132.314 148.982C132.556 149.34 132.684 149.761 132.684 150.193C132.569 150.688 132.288 151.129 131.887 151.442L130.63 152.673C130.516 152.819 130.371 152.938 130.205 153.021C130.039 153.104 129.856 153.149 129.67 153.152C129.468 153.098 129.282 152.992 129.133 152.845C123.56 148.199 118.397 143.085 113.7 137.558C112.501 136.146 111.301 134.661 110.73 132.904C110.329 131.465 110.14 129.975 110.169 128.481L109.991 122.438C109.89 118.967 109.799 115.448 110.6 112.063C110.826 111.106 111.124 110.177 111.421 109.239C111.527 108.918 111.642 107.874 111.901 107.683C112.135 107.556 112.398 107.495 112.664 107.506C115.73 107.41 121.873 109.512 121.479 113.433C120.985 118.68 119.459 124.018 118.437 129.194Z" fill="url(#paint13_linear)"/>
<path d="M118.331 80.5891C118.509 80.462 118.714 80.3799 118.931 80.3499C119.147 80.3199 119.368 80.3428 119.574 80.4167C119.737 80.5397 119.855 80.7127 119.909 80.9091C119.964 81.1055 119.952 81.3144 119.876 81.5035C119.714 81.8755 119.484 82.2146 119.199 82.5042C118.053 83.8687 117.203 85.6066 115.591 86.3678C115.557 86.3678 115.255 84.6155 115.221 84.4528C115.116 83.9453 114.463 83.1649 114.612 82.6861C114.761 82.2073 115.692 81.9201 116.085 81.7286L118.331 80.5891Z" fill="#F4F4F6"/>
<path d="M61.3275 138.75C60.9052 140.095 60.3678 141.455 60.4733 142.863C60.5863 143.466 60.6137 144.081 60.5549 144.692C60.3715 145.303 60.0287 145.855 59.5616 146.291C58.6008 147.317 57.5559 148.262 56.4377 149.115C56.1891 149.34 55.8838 149.492 55.5547 149.556C55.392 149.583 55.225 149.549 55.0859 149.461C54.9467 149.373 54.8454 149.236 54.8013 149.077C54.7971 148.862 54.8609 148.651 54.9837 148.474C55.5985 147.431 56.0942 146.323 56.4617 145.17C56.8915 143.465 57.1139 141.715 57.1239 139.957C57.3398 135.169 57.5558 130.381 57.3974 125.593C57.3014 122.62 57.0663 119.647 57.2822 116.679C57.2814 116.416 57.3474 116.157 57.4742 115.927C58.1796 114.879 61.0348 114.682 62.0281 115.396C63.0214 116.109 62.9878 117.555 62.9878 118.646C62.9878 122.955 63.0358 127.288 62.6663 131.573C62.479 134.006 62.0302 136.413 61.3275 138.75Z" fill="#F0DECD"/>
<path d="M60.7135 145.936C60.6235 147.366 60.4197 148.786 60.1041 150.183C59.846 149.992 59.6441 149.735 59.5192 149.44C59.3943 149.144 59.351 148.821 59.3939 148.503C58.271 148.819 57.7911 150.159 56.8218 150.81C56.0524 151.223 55.1846 151.418 54.3121 151.375C54.0938 151.401 53.8725 151.378 53.6643 151.308C53.464 151.199 53.3072 151.024 53.2199 150.813C53.1327 150.602 53.1201 150.368 53.1844 150.15C53.318 149.711 53.5549 149.31 53.8754 148.981C54.0354 148.739 54.2667 148.551 54.5376 148.445C54.7519 148.407 54.9712 148.407 55.1854 148.445C55.7689 148.463 56.3496 148.359 56.8907 148.141C57.4318 147.922 57.9215 147.594 58.3286 147.176C59.0388 146.511 59.3987 145.601 60.0417 144.912C60.3824 144.548 60.368 144.337 60.6607 144.912C60.7625 145.244 60.7806 145.596 60.7135 145.936Z" fill="#606161"/>
<path d="M75.5124 115.104C78.2243 113.372 81.3769 112.454 84.5963 112.456C85.1268 112.52 85.6638 112.411 86.1271 112.145C86.3476 111.942 86.5455 111.715 86.7173 111.47C87.7298 110.287 89.5341 110.316 91.0841 110.44C92.0438 110.517 93.1475 110.704 93.5554 111.561C92.5956 112.518 91.1944 112.906 89.9036 113.361C86.2902 114.644 83.0108 116.718 80.3063 119.432C79.5529 120.193 78.8667 121.002 78.0317 121.701C77.2091 122.406 76.2897 122.989 75.3013 123.434C74.8038 123.714 74.2255 123.816 73.6619 123.724C73.0983 123.632 72.5831 123.351 72.2014 122.927C69.8186 121.055 68.2511 118.339 67.825 115.343C67.7328 114.919 67.7713 114.476 67.9354 114.074C68.1529 113.732 68.4554 113.452 68.8135 113.26C69.922 112.542 72.0574 111.034 73.4778 111.599C74.0345 111.824 75.642 115.022 75.5124 115.104Z" fill="#F0DECD"/>
<path d="M93.8816 112.719C94.2678 112.855 94.6774 112.912 95.0861 112.887C95.291 112.871 95.4868 112.796 95.6489 112.67C95.8111 112.544 95.9324 112.373 95.9978 112.178C96.0213 111.976 95.9981 111.772 95.9298 111.58C95.8616 111.388 95.7503 111.215 95.6043 111.072C95.1479 110.529 94.5741 110.095 93.9259 109.804C93.2777 109.513 92.5719 109.372 91.8614 109.392C91.4274 109.446 90.9878 109.438 90.5562 109.368C90.4493 109.346 90.3501 109.296 90.2682 109.224C90.1805 109.113 90.1289 108.978 90.1204 108.837C90.1118 108.696 90.1466 108.555 90.2203 108.434C90.3687 108.194 90.4834 107.935 90.561 107.664C90.5752 107.61 90.5752 107.554 90.561 107.501C90.5383 107.456 90.5049 107.418 90.4639 107.39C90.4229 107.362 90.3754 107.344 90.3258 107.338C90.1947 107.322 90.0616 107.335 89.9367 107.379C89.8119 107.422 89.6987 107.493 89.606 107.587C89.4207 107.772 89.2476 107.969 89.0878 108.176C88.6799 108.655 88.128 108.952 87.7058 109.378C87.4693 109.574 87.288 109.828 87.1794 110.115C87.0709 110.402 87.039 110.712 87.0867 111.015C87.1078 111.098 87.1509 111.174 87.2115 111.235C87.2735 111.273 87.3427 111.297 87.4146 111.306C87.4865 111.315 87.5596 111.309 87.629 111.288C88.8766 111.111 90.1963 110.867 91.4295 111.235C91.9117 111.375 92.3242 111.689 92.586 112.116C92.8931 112.547 93.3874 112.595 93.8816 112.719Z" fill="#606161"/>
<path d="M81.866 73.8145C81.5772 74.4261 81.1934 74.9884 80.7288 75.4806C80.6136 75.6146 80.4792 75.7487 80.3593 75.8828C79.6251 76.6584 78.6701 77.434 77.6144 77.2712C76.0933 77.0318 75.2151 74.9779 73.6747 75.1119C73.1517 75.155 72.715 75.4519 72.1968 75.5428C71.3984 75.5964 70.6109 75.3351 70.0038 74.8151C69.407 74.2964 68.7398 73.8644 68.0219 73.532C67.1794 73.3167 66.3054 73.2518 65.4403 73.3405C64.3078 73.3692 63.1849 73.3405 62.3835 72.4739C61.2942 71.3009 61.2031 68.6054 60.9919 67.1021C60.8311 66.2172 60.8311 65.3106 60.9919 64.4257C61.2454 63.5451 61.755 62.7593 62.4563 62.1679C63.1577 61.5764 64.0191 61.2058 64.9316 61.1031C65.8446 61.0231 66.7638 61.1543 67.6177 61.4864C68.4716 61.8186 69.2372 62.3427 69.855 63.0182C70.3591 63.6469 70.9127 64.2345 71.5106 64.7753C72.5567 65.5652 73.9099 65.7328 75.1959 66.0248C76.482 66.3169 77.8352 66.9345 78.315 68.141C78.4337 68.6015 78.5943 69.0503 78.7949 69.4816C79.2124 70.1471 80.0809 70.3865 80.8535 70.5061C81.141 70.5242 81.4188 70.6166 81.6597 70.7743C81.8357 70.9173 81.9659 71.1088 82.034 71.3248C82.3106 72.1442 82.2502 73.0395 81.866 73.8145Z" fill="#606161"/>
<path opacity="0.37" d="M80.7285 75.4852C80.6134 75.6193 80.479 75.7534 80.359 75.8874C79.6248 76.663 78.6699 77.4386 77.6142 77.2758C76.093 77.0365 75.2149 74.9825 73.6745 75.1166C73.1515 75.1597 72.7148 75.4565 72.1965 75.5475C71.3982 75.6011 70.6107 75.3398 70.0036 74.8198C69.4068 74.3011 68.7396 73.8691 68.0217 73.5366C67.1792 73.3213 66.3052 73.2565 65.44 73.3451C65.2321 73.0847 65.0564 72.8002 64.917 72.4977C64.2452 70.9944 64.6339 68.9979 65.9919 68.0451C66.7981 67.4802 68.1081 66.8243 69.111 67.1833C70.2454 67.553 71.2842 68.1677 72.1534 68.9835C72.9883 69.9076 73.1995 71.3056 74.1352 72.1099C74.9894 72.8376 76.2082 72.8999 77.2975 73.1823C78.0507 73.3693 78.7675 73.68 79.4185 74.1016C79.961 74.4096 80.4051 74.8644 80.6997 75.4134C80.7141 75.4422 80.7285 75.4565 80.7285 75.4852Z" fill="url(#paint14_linear)"/>
<path d="M61.9803 75.3225C61.1211 76.2664 60.0667 77.0129 58.89 77.5105C58.677 77.6236 58.4436 77.6933 58.2034 77.7157C57.9632 77.7381 57.7209 77.7127 57.4906 77.641C57.2603 77.5693 57.0466 77.4527 56.8617 77.298C56.6769 77.1433 56.5247 76.9535 56.4139 76.7397C56.2939 76.5721 56.174 76.4094 56.0732 76.2609C55.2764 74.9754 54.6322 73.6016 54.1537 72.1674C53.7507 71.0806 53.362 70.0082 52.9589 68.9357C52.8566 68.7226 52.8104 68.487 52.8245 68.2511C52.8775 67.9718 53.0188 67.7168 53.2276 67.5234C53.3052 67.4363 53.3903 67.3562 53.4819 67.284C54.0592 66.7076 54.7505 66.2576 55.5118 65.9626C56.0924 65.7232 56.8218 65.6035 57.316 66.02C57.5983 66.3312 57.7935 66.711 57.8823 67.1212C58.6885 69.5486 60.2528 71.2913 62.2011 72.809C63.5159 73.7618 62.9784 74.2932 61.9803 75.3225Z" fill="#F4F4F6"/>
<path opacity="0.37" d="M56.0732 76.2466C55.2764 74.961 54.6322 73.5873 54.1537 72.1531C53.7507 71.0663 53.362 69.9939 52.9589 68.9214C52.8566 68.7083 52.8104 68.4727 52.8245 68.2368C52.8775 67.9575 53.0188 67.7024 53.2276 67.509C53.3052 67.422 53.3903 67.3419 53.4819 67.2697C53.8574 67.348 54.2229 67.4684 54.5712 67.6287C54.7414 67.6779 54.8982 67.7651 55.0295 67.8837C55.1609 68.0023 55.2635 68.1493 55.3294 68.3134C55.382 68.5386 55.382 68.7728 55.3294 68.998C55.1231 70.6641 56.2411 71.7366 56.769 73.1968C57.0761 74.0586 57.0761 76.1556 56.0732 76.2466Z" fill="url(#paint15_linear)"/>
<path d="M57.1432 66.5705C57.0825 66.7175 56.9909 66.8497 56.8745 66.9583L56.3946 67.4658L56.3035 67.552C56.1361 67.723 55.9455 67.8696 55.7372 67.9877C55.5306 68.0784 55.3151 68.1474 55.0942 68.1936C54.5819 68.3246 54.0579 68.4048 53.5298 68.4329C53.3406 68.4378 53.1513 68.4282 52.9636 68.4042C52.9063 68.3978 52.8533 68.3705 52.8148 68.3276C52.8005 68.289 52.8005 68.2465 52.8148 68.2079C52.8529 68.0212 52.9526 67.8527 53.0979 67.7291C53.1699 67.6525 53.2467 67.5951 53.3331 67.5185C53.573 67.3413 53.7698 67.1163 54.0049 66.9392C54.5034 66.5587 55.0525 66.2494 55.6364 66.0199C55.8232 65.9406 56.0178 65.8813 56.2171 65.8428C56.3393 65.8209 56.4644 65.8209 56.5866 65.8428C56.6711 65.854 56.7525 65.8817 56.8263 65.9244C56.9 65.967 56.9646 66.0238 57.0163 66.0914C57.068 66.159 57.1058 66.2361 57.1276 66.3183C57.1494 66.4006 57.1547 66.4863 57.1432 66.5705Z" fill="#606161"/>
<path d="M77.5807 83.0356C77.4174 84.1506 77.1638 85.2506 76.8225 86.3248C76.7649 86.5306 76.1507 87.7084 75.9731 87.7084C73.8377 87.5313 71.7935 85.9513 70.0804 84.673C69.6485 84.357 69.0775 83.9884 68.6408 84.2229C68.5976 84.2229 68.5688 84.2565 68.5208 84.2852C68.3665 84.4148 68.2448 84.5788 68.1657 84.764C67.8346 85.4199 67.5083 86.0902 67.1772 86.7461C66.7205 87.5476 66.3965 88.4173 66.2175 89.3219C66.1374 90.2408 66.1777 91.1663 66.3375 92.0748C66.4177 92.8701 66.4529 93.6694 66.443 94.4687C66.4651 94.6425 66.4472 94.8191 66.3906 94.985C66.3341 95.1509 66.2404 95.3018 66.1167 95.4262C65.9643 95.5293 65.7903 95.5964 65.6081 95.6225C65.3681 95.6656 65.1282 95.6943 64.8931 95.7374C62.975 96.0188 61.0292 96.059 59.1011 95.8571C57.6615 95.7087 56.2219 95.3783 55.1806 94.4208C54.8188 94.0914 54.5548 93.669 54.4176 93.1999C54.3601 92.7998 54.3601 92.3935 54.4176 91.9934C54.5088 91.0359 54.5952 90.1023 54.6863 89.1495C54.8831 87.0238 55.0606 84.8406 54.48 82.7818C54.1489 81.6184 53.5827 80.5173 53.4051 79.3251C53.3619 79.0481 53.3717 78.7654 53.4339 78.4921C53.5603 78.1831 53.7654 77.9124 54.0289 77.7069C54.7919 77.0653 55.7468 76.6344 56.3563 75.8445C56.8361 75.2508 57.0761 74.4752 57.6855 74.0299C58.2949 73.5847 59.1779 73.6277 59.9553 73.6996C61.5484 73.8671 63.1464 74.0874 64.7539 74.3698C64.9794 74.4177 65.2338 74.4464 65.4737 74.4752C66.486 74.5555 67.4782 74.8013 68.4105 75.2029C69.1139 75.6174 69.7593 76.1229 70.3299 76.7062C71.3904 77.6877 72.4941 78.6213 73.641 79.4927C74.7879 80.3641 75.9396 81.2163 77.1488 82.0062C77.3552 82.1116 77.5231 82.2791 77.6287 82.485C77.6673 82.6693 77.6506 82.8608 77.5807 83.0356Z" fill="#F4F4F6"/>
<path opacity="0.37" d="M73.5691 79.4783C72.811 79.7464 71.9424 79.4017 71.1986 79.0762C70.6065 78.8219 70.0325 78.5276 69.4807 78.1952C68.6601 77.659 67.9931 76.9313 67.1246 76.4716C66.5151 76.1413 65.3635 76.0982 64.9172 75.5141C64.4709 74.93 64.826 74.6475 65.397 74.4704C66.4093 74.5507 67.4015 74.7965 68.3338 75.1981C69.0372 75.6126 69.6826 76.1181 70.2533 76.7014C71.3186 77.6734 72.4319 78.6022 73.5691 79.4783Z" fill="url(#paint16_linear)"/>
<path d="M75.5943 86.9375C75.5943 87.1194 75.5319 87.3253 75.7047 87.3827C75.8775 87.4402 76.0358 87.2966 76.151 87.1625C76.2661 87.0284 76.3285 86.9518 76.4149 86.8465C76.5233 86.7208 76.6079 86.5764 76.6644 86.4204C76.706 86.2512 76.7142 86.0756 76.6884 85.9033C76.6832 85.7701 76.6607 85.6381 76.6212 85.5107C76.5997 85.4473 76.5657 85.3888 76.5212 85.3386C76.4767 85.2885 76.4226 85.2477 76.3621 85.2187C75.4264 84.8261 75.5751 86.497 75.5943 86.9375Z" fill="#606161"/>
<path d="M66.7886 74.772C66.8032 74.8702 66.7933 74.9705 66.7598 75.064C66.6933 75.1655 66.5957 75.2428 66.4814 75.2842C65.6781 75.5716 64.9037 75.9338 64.1685 76.3663C63.4871 76.845 62.9544 77.5967 62.1483 77.8313C62.0433 77.6756 61.9713 77.5002 61.9366 77.3158C61.902 77.1314 61.9054 76.9419 61.9467 76.7589C62.0298 76.3925 62.1389 76.0326 62.273 75.6816C62.5434 74.6873 62.6471 73.6552 62.5801 72.6271C62.5322 72.1526 62.5746 71.6734 62.7049 71.2147C62.7748 70.9868 62.9121 70.7854 63.0988 70.6367C63.2855 70.4881 63.5128 70.3992 63.751 70.3816C64.2789 70.3816 64.658 70.8604 65.0466 71.2147C65.5265 71.6504 66.3567 71.7701 66.5582 72.3206C66.8125 72.9861 66.7166 74.0203 66.7886 74.772Z" fill="#F0DECD"/>
<path d="M68.2044 71.6409C67.9988 72.3103 67.5662 72.8874 66.9807 73.2735C66.6534 73.4326 66.294 73.5153 65.9298 73.5153C65.5657 73.5153 65.2063 73.4326 64.8789 73.2735C64.0403 72.8702 63.3636 72.1951 62.9595 71.3584C62.559 70.5223 62.3352 69.6129 62.302 68.6868C62.2586 68.1424 62.3023 67.5945 62.4316 67.0638C62.6137 66.4337 62.9639 65.8649 63.4448 65.418C63.9257 64.971 64.5192 64.6628 65.162 64.5263C65.6213 64.4465 66.0888 64.424 66.5537 64.4593C66.8175 64.4661 67.0792 64.5096 67.331 64.5886C67.6285 64.7104 67.8992 64.8893 68.1276 65.1152C68.4129 65.3641 68.646 65.6667 68.8138 66.0057C69.0795 66.8011 69.1454 67.6494 69.0058 68.4762C68.8624 69.5585 68.5935 70.6205 68.2044 71.6409Z" fill="#F0DECD"/>
<path d="M85.8344 78.2525C85.4361 76.8162 86.2471 75.2937 86.0455 73.8191C86.0023 73.5079 85.9735 73.0866 86.2759 72.986C86.3672 72.9676 86.4618 72.9733 86.5502 73.0027C86.6386 73.0321 86.7178 73.0841 86.7797 73.1536C86.9893 73.3464 87.1494 73.5867 87.2463 73.8542C87.3432 74.1217 87.3741 74.4085 87.3364 74.6905C87.7634 74.5612 88.1905 74.4415 88.6224 74.3314C88.7567 74.2853 88.9012 74.277 89.0399 74.3075C89.2798 74.3841 89.3758 74.6617 89.443 74.9059C89.7741 76.1172 90.0908 77.4673 89.4958 78.5733C89.2288 79.0142 88.8917 79.4087 88.4976 79.7415C87.0065 81.1344 85.4295 82.4328 83.7758 83.6291C82.6158 84.523 81.3448 85.2632 79.9944 85.8315C78.6307 86.4025 77.1283 86.5591 75.6756 86.2815C75.2678 86.1858 76.3043 83.7105 76.4434 83.4903C77.0673 82.4992 78.0318 82.1784 79.0491 81.6662L85.8344 78.2525Z" fill="#F0DECD"/>
<path d="M56.3706 67.4658L56.2794 67.552C56.112 67.723 55.9214 67.8696 55.7132 67.9877C55.5066 68.0784 55.2911 68.1474 55.0701 68.1936C54.5579 68.3246 54.0339 68.4048 53.5058 68.4329C53.3483 68.2085 53.2041 67.9751 53.0739 67.7339C52.6996 67.1068 52.4021 66.47 52.2198 66.1253C51.8394 65.2443 51.5702 64.3196 51.4184 63.3723C50.9584 61.4005 50.6234 59.4016 50.4155 57.3877C50.413 56.8523 50.3071 56.3223 50.1035 55.8269C49.9853 55.6374 49.8857 55.437 49.806 55.2284C49.7323 55.0131 49.7109 54.7834 49.7436 54.5581C49.785 54.1534 49.9132 53.7622 50.1193 53.4111C50.3255 53.0601 50.6048 52.7573 50.9385 52.5234C51.133 52.3972 51.3174 52.2563 51.4904 52.102C51.7015 51.8675 51.8215 51.494 52.1334 51.3887C52.2644 51.3561 52.4021 51.3628 52.5292 51.408C52.6564 51.4531 52.7674 51.5347 52.8484 51.6424C53.0108 51.8645 53.1222 52.1195 53.1747 52.3893C53.309 52.8681 53.4434 53.3229 53.5778 53.8017C53.7202 53.5584 53.912 53.3476 54.1409 53.1827C54.3698 53.0178 54.6308 52.9025 54.907 52.8441C54.2208 54.1368 53.5202 55.5396 53.6114 57.0095C53.7161 57.836 53.9425 58.6427 54.2832 59.4033C54.6095 60.2364 54.907 61.0694 55.2189 61.9169C55.658 63.1895 55.9981 64.4941 56.2362 65.8189C56.316 66.3645 56.3608 66.9146 56.3706 67.4658Z" fill="#F0DECD"/>
<path d="M76.6306 108.903C76.635 109.111 76.5944 109.316 76.5115 109.506C76.4287 109.697 76.3056 109.866 76.1507 110.005C75.359 110.895 74.5864 111.79 73.809 112.681C73.3324 113.278 72.797 113.827 72.2111 114.318C72.0173 114.495 71.8085 114.656 71.5872 114.797C70.6704 115.293 69.6757 115.63 68.6457 115.793C63.4252 116.891 58.0664 117.182 52.7573 116.655C53.3977 114.713 53.8382 112.711 54.0722 110.68C54.148 108.666 54.0533 106.65 53.789 104.652C53.5331 101.866 53.4083 99.0727 53.4147 96.2735C53.4147 95.0191 53.4915 93.6498 54.3409 92.7449C57.2201 94.4541 61.1118 93.2955 64.0054 94.9473C64.1589 95.0334 64.3221 95.1388 64.4852 95.2297C64.7963 95.4377 65.154 95.5659 65.5265 95.6032C66.3951 95.6032 66.4095 94.8132 67.3788 95.0669C68.1226 95.2728 68.8568 96.0915 69.2983 96.7043C69.9386 97.6931 70.4742 98.7457 70.8962 99.8451C72.2509 102.89 74.0561 105.714 76.2515 108.224C76.4346 108.414 76.5652 108.648 76.6306 108.903Z" fill="#F28705"/>
<path d="M112.544 82.8537C112.169 83.8112 111.824 84.7305 111.517 85.688C112.361 85.0704 113 84.1033 114.002 83.816C114.042 83.8094 114.079 83.791 114.108 83.7633C114.118 83.7273 114.118 83.6893 114.108 83.6532C114.1 83.37 114.03 83.0921 113.902 82.8393C113.759 82.6171 113.646 82.3773 113.566 82.126C113.532 81.944 113.647 81.7525 113.446 81.7669C113.244 81.7812 113.071 82.0829 112.966 82.1738C112.773 82.3635 112.628 82.5966 112.544 82.8537Z" fill="#F4F4F6"/>
<path d="M117.443 89.8054C117.181 89.7658 116.913 89.8237 116.69 89.9682C116.582 90.0438 116.506 90.1563 116.476 90.2843C116.446 90.4123 116.464 90.5469 116.527 90.6624C116.251 90.7191 115.996 90.8505 115.791 91.0422C115.585 91.234 115.436 91.4786 115.361 91.7492C115.329 91.8328 115.319 91.9228 115.33 92.0114C115.342 92.1 115.376 92.1842 115.428 92.2567C115.482 92.3034 115.544 92.3406 115.61 92.3668C116.023 92.5536 116.469 92.6445 116.896 92.7977C117.333 92.9269 117.711 93.2026 117.966 93.5781C118.095 93.8432 118.155 94.1358 118.142 94.4298C118.13 94.7238 118.045 95.0102 117.894 95.2634C117.592 95.7696 117.249 96.25 116.868 96.6997C116.7 96.9247 116.541 97.2312 116.676 97.4753C116.771 97.6154 116.917 97.7132 117.083 97.7482C117.345 97.8286 117.619 97.856 117.891 97.8289C118.163 97.8018 118.427 97.7206 118.667 97.5902C118.721 97.5554 118.781 97.531 118.845 97.5184C118.938 97.5217 119.028 97.5481 119.108 97.595C119.362 97.6724 119.635 97.6615 119.882 97.5641C120.128 97.4666 120.335 97.2885 120.467 97.0588C120.723 96.5944 120.854 96.0713 120.846 95.5411C120.909 94.716 120.888 93.8867 120.783 93.0658C120.746 92.7153 120.654 92.3727 120.51 92.0508C120.217 91.462 119.636 91.2561 119.243 90.7821C119.025 90.506 118.753 90.2771 118.444 90.1092C118.134 89.9413 117.794 89.8379 117.443 89.8054Z" fill="#F4F4F6"/>
<path d="M100.264 82.485C100.111 82.4681 99.9573 82.4963 99.8208 82.5661C99.6843 82.6359 99.5714 82.7442 99.4961 82.8776C99.4481 82.6238 99.0594 82.576 98.8626 82.7435C98.6874 82.9375 98.5856 83.1864 98.5747 83.4473C98.3314 84.7587 98.262 86.0964 98.3684 87.4259C98.3796 87.7847 98.5251 88.1263 98.7763 88.3834C99.0546 88.6132 99.5872 88.5319 99.6544 88.1776C99.7764 88.3932 99.9673 88.5618 100.197 88.6563C100.256 88.6845 100.323 88.6945 100.389 88.6851C100.454 88.6707 100.513 88.6354 100.557 88.5845C100.905 88.2165 101.093 87.7259 101.08 87.22C101.063 86.7167 101.005 86.2155 100.907 85.7215C100.798 84.9974 100.771 84.2636 100.825 83.5335C100.864 83.0547 100.902 82.5664 100.264 82.485Z" fill="#F4F4F6"/>
<path d="M66.2801 66.3168C66.8074 66.743 67.4411 67.0178 68.1132 67.1116C68.7802 67.2408 69.4616 67.2887 70.119 67.4611C70.2486 67.4946 70.4261 67.509 70.4789 67.3893C70.5004 67.3338 70.5004 67.2724 70.4789 67.2169C70.4199 67.0356 70.3393 66.862 70.239 66.6998C69.8249 65.9129 69.2815 65.2009 68.6314 64.5932C67.9766 63.9834 67.1268 63.6239 66.2321 63.5782C65.7522 63.5782 64.2311 63.8081 64.519 64.6124C64.6342 64.938 65.1188 65.0481 65.3636 65.2779C65.7139 65.5987 65.9394 66.0056 66.2801 66.3168Z" fill="#606161"/>
<path opacity="0.37" d="M68.6167 84.2229C68.5735 84.2229 68.5447 84.2564 68.4967 84.2851C68.3424 84.4147 68.2207 84.5787 68.1416 84.7639C67.8105 85.4198 67.4842 86.0901 67.1531 86.746C66.6964 87.5475 66.3724 88.4173 66.1934 89.3218C66.1133 90.2408 66.1536 91.1662 66.3134 92.0747C66.3936 92.8701 66.4289 93.6693 66.4189 94.4686C66.441 94.6425 66.4231 94.819 66.3665 94.9849C66.31 95.1509 66.2163 95.3017 66.0926 95.4261C65.9402 95.5292 65.7662 95.5963 65.584 95.6224C65.344 95.6655 65.1041 95.6943 64.869 95.7373C64.5261 95.6324 64.1949 95.4928 63.8805 95.3208C63.7187 95.2466 63.5807 95.1289 63.4822 94.9809C63.3961 94.7476 63.3843 94.4934 63.4486 94.2532C63.6453 92.8839 63.0599 91.5146 63.0023 90.1262C62.9111 88.0291 64.0004 86.0662 65.0609 84.2468C65.254 83.8639 65.5122 83.5172 65.8239 83.2223C66.4477 82.7004 67.8201 82.5951 68.372 83.3276C68.5477 83.5921 68.6335 83.906 68.6167 84.2229Z" fill="url(#paint17_linear)"/>
<path opacity="0.37" d="M76.6305 108.904C76.6349 109.111 76.5943 109.316 76.5115 109.507C76.4286 109.697 76.3055 109.867 76.1507 110.005C75.3589 110.895 74.5863 111.791 73.8089 112.681C73.3323 113.279 72.797 113.827 72.211 114.318C72.2306 113.786 72.2851 113.255 72.3741 112.729C72.5996 110.139 70.733 107.817 70.3779 105.241C70.2723 104.556 70.2867 103.857 70.1811 103.173C69.778 100.673 67.8874 98.7057 65.9919 97.0252C65.6464 96.714 64.4563 95.8187 64.4851 95.2394C64.7962 95.4473 65.1539 95.5756 65.5264 95.6129C66.395 95.6129 66.4094 94.8229 67.3787 95.0766C68.1225 95.2825 68.8567 96.1012 69.2982 96.714C69.9385 97.7028 70.4741 98.7554 70.8961 99.8548C72.2508 102.899 74.0561 105.724 76.2514 108.233C76.4331 108.421 76.5636 108.651 76.6305 108.904Z" fill="url(#paint18_linear)"/>
<path opacity="0.37" d="M117.688 74.6714C117.73 74.6591 117.768 74.635 117.797 74.6019C117.826 74.5688 117.845 74.5281 117.851 74.4847C117.851 74.3746 117.75 74.2788 117.765 74.1735C117.779 74.0682 117.875 74.0203 117.966 73.982C118.026 73.9581 118.09 73.9482 118.154 73.9533C118.207 73.966 118.257 73.9902 118.3 74.0241C118.343 74.058 118.378 74.1008 118.403 74.1496C118.486 74.2602 118.539 74.3905 118.557 74.5278C118.556 74.656 118.526 74.7824 118.469 74.8975C118.413 75.0127 118.331 75.1138 118.23 75.1933C118.123 75.3019 117.989 75.381 117.842 75.4231C117.769 75.4423 117.693 75.4431 117.62 75.4256C117.547 75.408 117.48 75.3726 117.424 75.3226C117.377 75.2732 117.341 75.2145 117.319 75.1502C117.285 75.0668 117.272 74.9765 117.28 74.8869C117.323 74.614 117.501 74.7337 117.688 74.6714Z" fill="url(#paint19_linear)"/>
<path d="M124.175 60.495C124.525 61.3998 124.542 62.3988 124.223 63.3149C123.955 64.2342 123.513 65.1007 123.211 66.0104C122.544 68.0213 122.534 70.2571 121.493 72.1052C121.445 72.2168 121.355 72.3058 121.243 72.3541C121.143 72.3749 121.039 72.3632 120.946 72.3206C118.892 71.5977 116.032 69.989 115.063 67.9159C114.54 66.7908 115.855 66.2163 116.646 65.6274C117.808 64.7592 118.987 63.9166 120.183 63.0995C120.509 62.8792 124.195 60.5381 124.175 60.495Z" fill="#1D5377"/>
<g opacity="0.24">
<path opacity="0.24" d="M107.28 35.1009C107.163 35.1562 107.062 35.2403 106.987 35.3451C106.948 35.4494 106.934 35.5614 106.947 35.672C106.959 35.7827 106.998 35.8888 107.059 35.9818C107.182 36.2713 107.36 36.5346 107.582 36.7574C107.694 36.8673 107.829 36.9507 107.978 37.0012C108.127 37.0518 108.285 37.0683 108.441 37.0495C108.645 37.0025 108.836 36.9127 109.002 36.7862L111.464 35.2349C111.529 35.205 111.58 35.1521 111.608 35.0865C111.622 35.0332 111.622 34.9771 111.608 34.9237C111.224 33.7795 111.258 33.1858 110.01 33.7316C109.06 34.1386 108.163 34.603 107.28 35.1009Z" fill="#1D5377"/>
<path opacity="0.24" d="M128.019 35.5127L126.1 34.2679C125.888 34.0931 125.621 33.9982 125.346 33.9998C125.095 34.0673 124.872 34.2153 124.713 34.4211L122.688 36.5277C122.601 36.5974 122.53 36.6846 122.48 36.7836C122.429 36.8827 122.4 36.9913 122.395 37.1022C122.434 37.2716 122.531 37.4221 122.669 37.5284C123.716 38.5249 124.869 39.4032 126.109 40.1472C127.352 38.9969 128.088 37.4034 128.158 35.7138" fill="#1D5377"/>
<path opacity="0.24" d="M118.691 30.5047L117.386 31.5532C117.341 31.5786 117.303 31.6131 117.273 31.6543C117.244 31.6956 117.223 31.7427 117.213 31.7926C117.22 31.8807 117.257 31.9637 117.318 32.0272C117.529 32.2833 117.755 32.5263 117.995 32.7549C118.042 32.8029 118.099 32.8391 118.163 32.8602C118.242 32.8664 118.321 32.8424 118.384 32.7932C118.596 32.6569 118.772 32.4709 118.895 32.2514C119.019 32.032 119.087 31.7857 119.094 31.534C119.094 31.2807 119.033 31.031 118.915 30.8067C118.797 30.5823 118.626 30.3899 118.417 30.2461" fill="#1D5377"/>
<path opacity="0.24" d="M124.507 31.0075C124.279 30.9029 124.021 30.8875 123.782 30.9644C123.664 31.0053 123.563 31.0858 123.498 31.1923C123.432 31.2988 123.405 31.4246 123.422 31.5485C123.464 31.6779 123.542 31.7926 123.648 31.8788C123.874 32.0716 124.161 32.1799 124.459 32.1852C124.509 32.1913 124.56 32.1795 124.603 32.1517C124.626 32.1276 124.644 32.099 124.655 32.0677C124.667 32.0364 124.672 32.0031 124.67 31.9698C124.68 31.6623 124.616 31.3568 124.483 31.0793" fill="#1D5377"/>
<path opacity="0.24" d="M129.464 27.3736C129.409 27.3414 129.349 27.3202 129.286 27.3114C129.203 27.3214 129.124 27.3565 129.061 27.4119C128.845 27.5651 128.61 27.7614 128.605 28.0247C128.611 28.1387 128.642 28.2498 128.696 28.3503C128.817 28.629 128.956 28.8993 129.114 29.1594C129.131 29.193 129.158 29.2211 129.19 29.2408C129.231 29.2525 129.274 29.2525 129.315 29.2408C130.577 28.8099 130.611 28.0295 129.464 27.3736Z" fill="#1D5377"/>
<path opacity="0.24" d="M133.283 32.4677C132.936 32.4079 132.58 32.4079 132.232 32.4677C131.979 32.4871 131.741 32.5957 131.561 32.7742C131.473 32.8637 131.423 32.984 131.423 33.1093C131.423 33.2346 131.473 33.3549 131.561 33.4444C131.707 33.5256 131.876 33.5543 132.04 33.5258L133.12 33.4492C133.211 33.1512 133.211 32.8328 133.12 32.5348" fill="#1D5377"/>
<path opacity="0.24" d="M130.976 38.1698C130.983 38.1856 130.997 38.1977 131.014 38.2034C131.014 38.2034 131.047 38.2034 131.062 38.2034L131.441 37.9879C131.494 37.9602 131.541 37.9228 131.58 37.8778C131.657 37.7677 131.58 37.6193 131.542 37.4996C131.332 37.0934 131.075 36.714 130.774 36.3697C130.743 36.3243 130.697 36.2906 130.644 36.2739C130.602 36.2621 130.557 36.2621 130.515 36.2739C130.316 36.3339 130.122 36.4091 129.934 36.4989C130.054 37.0687 130.64 37.6815 130.976 38.1698Z" fill="#1D5377"/>
<path opacity="0.24" d="M113.407 28.4316L113.148 29.7674H113.806C113.819 29.773 113.832 29.776 113.847 29.776C113.861 29.776 113.874 29.773 113.887 29.7674C113.905 29.7492 113.915 29.7254 113.916 29.7003L114.089 28.0965C113.81 28.164 113.538 28.2586 113.278 28.3789" fill="#1D5377"/>
<path opacity="0.24" d="M114.42 38.9551C114.447 38.9785 114.464 39.0109 114.468 39.046C114.467 39.0675 114.461 39.0884 114.451 39.1074C114.441 39.1264 114.428 39.143 114.411 39.1562C114.22 39.336 113.993 39.4721 113.744 39.5548C113.495 39.6375 113.231 39.6649 112.971 39.6349C112.734 39.6217 112.51 39.521 112.342 39.3525C111.93 38.8737 111.68 37.514 112.443 37.2076C113.206 36.9011 114.022 38.4859 114.42 38.9551Z" fill="#1D5377"/>
<path opacity="0.24" d="M119.425 36.9969L118.629 38.0837L119.084 38.3518C119.128 38.3853 119.183 38.4022 119.238 38.3997C119.268 38.3909 119.297 38.3763 119.321 38.3566C119.346 38.3368 119.367 38.3124 119.382 38.2848L119.718 37.806C119.791 37.7184 119.844 37.6152 119.871 37.5044C119.91 37.2027 119.579 37.0256 119.3 36.8867" fill="#1D5377"/>
<path opacity="0.24" d="M105.236 28.9199C105.361 29.4364 105.551 29.9351 105.802 30.4041C106.126 30.2798 106.472 30.218 106.819 30.2222C106.699 29.8152 106.56 29.4131 106.406 29.0157C106.373 28.9391 106.335 28.8529 106.253 28.8242C106.195 28.8055 106.133 28.8055 106.075 28.8242L105.202 29.1067" fill="#1D5377"/>
<path opacity="0.24" d="M120.385 25.3963C120.385 25.3723 121.901 24.544 121.037 24.0365C120.788 23.8929 120.428 24.2041 120.293 24.4244C120.202 24.5746 120.161 24.7503 120.178 24.9253C120.194 25.1004 120.267 25.2655 120.385 25.3963Z" fill="#1D5377"/>
</g>
<g opacity="0.24">
<path opacity="0.24" d="M107.28 35.1009C107.163 35.1562 107.062 35.2403 106.987 35.3451C106.948 35.4494 106.934 35.5614 106.947 35.672C106.959 35.7827 106.998 35.8888 107.059 35.9818C107.182 36.2713 107.36 36.5346 107.582 36.7574C107.694 36.8673 107.829 36.9507 107.978 37.0012C108.127 37.0518 108.285 37.0683 108.441 37.0495C108.645 37.0025 108.836 36.9127 109.002 36.7862L111.464 35.2349C111.529 35.205 111.58 35.1521 111.608 35.0865C111.622 35.0332 111.622 34.9771 111.608 34.9237C111.224 33.7795 111.258 33.1858 110.01 33.7316C109.06 34.1386 108.163 34.603 107.28 35.1009Z" fill="#1D5377"/>
<path opacity="0.24" d="M128.019 35.5127L126.1 34.2679C125.888 34.0931 125.621 33.9982 125.346 33.9998C125.095 34.0673 124.872 34.2153 124.713 34.4211L122.688 36.5277C122.601 36.5974 122.53 36.6846 122.48 36.7836C122.429 36.8827 122.4 36.9913 122.395 37.1022C122.434 37.2716 122.531 37.4221 122.669 37.5284C123.716 38.5249 124.869 39.4032 126.109 40.1472C127.352 38.9969 128.088 37.4034 128.158 35.7138" fill="#1D5377"/>
<path opacity="0.24" d="M118.691 30.5047L117.386 31.5532C117.341 31.5786 117.303 31.6131 117.273 31.6543C117.244 31.6956 117.223 31.7427 117.213 31.7926C117.22 31.8807 117.257 31.9637 117.318 32.0272C117.529 32.2833 117.755 32.5263 117.995 32.7549C118.042 32.8029 118.099 32.8391 118.163 32.8602C118.242 32.8664 118.321 32.8424 118.384 32.7932C118.596 32.6569 118.772 32.4709 118.895 32.2514C119.019 32.032 119.087 31.7857 119.094 31.534C119.094 31.2807 119.033 31.031 118.915 30.8067C118.797 30.5823 118.626 30.3899 118.417 30.2461" fill="#1D5377"/>
<path opacity="0.24" d="M124.507 31.0075C124.279 30.9029 124.021 30.8875 123.782 30.9644C123.664 31.0053 123.563 31.0858 123.498 31.1923C123.432 31.2988 123.405 31.4246 123.422 31.5485C123.464 31.6779 123.542 31.7926 123.648 31.8788C123.874 32.0716 124.161 32.1799 124.459 32.1852C124.509 32.1913 124.56 32.1795 124.603 32.1517C124.626 32.1276 124.644 32.099 124.655 32.0677C124.667 32.0364 124.672 32.0031 124.67 31.9698C124.68 31.6623 124.616 31.3568 124.483 31.0793" fill="#1D5377"/>
<path opacity="0.24" d="M129.464 27.3736C129.409 27.3414 129.349 27.3202 129.286 27.3114C129.203 27.3214 129.124 27.3565 129.061 27.4119C128.845 27.5651 128.61 27.7614 128.605 28.0247C128.611 28.1387 128.642 28.2498 128.696 28.3503C128.817 28.629 128.956 28.8993 129.114 29.1594C129.131 29.193 129.158 29.2211 129.19 29.2408C129.231 29.2525 129.274 29.2525 129.315 29.2408C130.577 28.8099 130.611 28.0295 129.464 27.3736Z" fill="#1D5377"/>
<path opacity="0.24" d="M133.283 32.4677C132.936 32.4079 132.58 32.4079 132.232 32.4677C131.979 32.4871 131.741 32.5957 131.561 32.7742C131.473 32.8637 131.423 32.984 131.423 33.1093C131.423 33.2346 131.473 33.3549 131.561 33.4444C131.707 33.5256 131.876 33.5543 132.04 33.5258L133.12 33.4492C133.211 33.1512 133.211 32.8328 133.12 32.5348" fill="#1D5377"/>
<path opacity="0.24" d="M130.976 38.1698C130.983 38.1856 130.997 38.1977 131.014 38.2034C131.014 38.2034 131.047 38.2034 131.062 38.2034L131.441 37.9879C131.494 37.9602 131.541 37.9228 131.58 37.8778C131.657 37.7677 131.58 37.6193 131.542 37.4996C131.332 37.0934 131.075 36.714 130.774 36.3697C130.743 36.3243 130.697 36.2906 130.644 36.2739C130.602 36.2621 130.557 36.2621 130.515 36.2739C130.316 36.3339 130.122 36.4091 129.934 36.4989C130.054 37.0687 130.64 37.6815 130.976 38.1698Z" fill="#1D5377"/>
<path opacity="0.24" d="M113.407 28.4316L113.148 29.7674H113.806C113.819 29.773 113.832 29.776 113.847 29.776C113.861 29.776 113.874 29.773 113.887 29.7674C113.905 29.7492 113.915 29.7254 113.916 29.7003L114.089 28.0965C113.81 28.164 113.538 28.2586 113.278 28.3789" fill="#1D5377"/>
<path opacity="0.24" d="M114.42 38.9551C114.447 38.9785 114.464 39.0109 114.468 39.046C114.467 39.0675 114.461 39.0884 114.451 39.1074C114.441 39.1264 114.428 39.143 114.411 39.1562C114.22 39.336 113.993 39.4721 113.744 39.5548C113.495 39.6375 113.231 39.6649 112.971 39.6349C112.734 39.6217 112.51 39.521 112.342 39.3525C111.93 38.8737 111.68 37.514 112.443 37.2076C113.206 36.9011 114.022 38.4859 114.42 38.9551Z" fill="#1D5377"/>
<path opacity="0.24" d="M119.425 36.9969L118.629 38.0837L119.084 38.3518C119.128 38.3853 119.183 38.4022 119.238 38.3997C119.268 38.3909 119.297 38.3763 119.321 38.3566C119.346 38.3368 119.367 38.3124 119.382 38.2848L119.718 37.806C119.791 37.7184 119.844 37.6152 119.871 37.5044C119.91 37.2027 119.579 37.0256 119.3 36.8867" fill="#1D5377"/>
<path opacity="0.24" d="M105.236 28.9199C105.361 29.4364 105.551 29.9351 105.802 30.4041C106.126 30.2798 106.472 30.218 106.819 30.2222C106.699 29.8152 106.56 29.4131 106.406 29.0157C106.373 28.9391 106.335 28.8529 106.253 28.8242C106.195 28.8055 106.133 28.8055 106.075 28.8242L105.202 29.1067" fill="#1D5377"/>
<path opacity="0.24" d="M120.385 25.3963C120.385 25.3723 121.901 24.544 121.037 24.0365C120.788 23.8929 120.428 24.2041 120.293 24.4244C120.202 24.5746 120.161 24.7503 120.178 24.9253C120.194 25.1004 120.267 25.2655 120.385 25.3963Z" fill="#1D5377"/>
</g>
<path d="M144.666 38.7971C144.548 38.8513 144.447 38.9356 144.373 39.0413C144.334 39.1464 144.32 39.2592 144.333 39.3706C144.345 39.482 144.384 39.5889 144.445 39.6828C144.566 39.9707 144.742 40.2324 144.963 40.4536C145.076 40.5633 145.211 40.6464 145.36 40.6969C145.508 40.7475 145.666 40.7641 145.822 40.7457C146.026 40.6975 146.219 40.6097 146.389 40.4872L148.85 38.9312C148.913 38.8996 148.962 38.847 148.989 38.7827C149.004 38.731 149.004 38.6765 148.989 38.6247C148.601 37.4757 148.639 36.882 147.392 37.4278C146.46 37.8375 145.55 38.2945 144.666 38.7971Z" fill="white"/>
<path d="M147.343 47.7835L146.547 48.8703L147.027 49.1384C147.048 49.1584 147.075 49.1727 147.103 49.1802C147.132 49.1878 147.162 49.1882 147.191 49.1817C147.219 49.1751 147.246 49.1616 147.269 49.1424C147.291 49.1232 147.308 49.0988 147.319 49.0714L147.655 48.5926C147.73 48.5056 147.782 48.4023 147.809 48.291C147.847 47.9942 147.516 47.8122 147.243 47.6782" fill="white"/>
<path d="M73.257 43.9727C73.1403 44.028 73.0395 44.112 72.9643 44.2168C72.9275 44.3218 72.9153 44.4337 72.9286 44.5441C72.9419 44.6545 72.9803 44.7604 73.041 44.8536C73.1624 45.1429 73.3383 45.4062 73.5593 45.6292C73.6715 45.7388 73.8069 45.822 73.9556 45.8725C74.1042 45.9231 74.2623 45.9397 74.4183 45.9213C74.6222 45.8731 74.8146 45.7852 74.9845 45.6627L77.4414 44.1067C77.5062 44.0768 77.5575 44.0239 77.5854 43.9583C77.6019 43.9069 77.6019 43.8517 77.5854 43.8003C77.2015 42.6513 77.2351 42.0576 75.9874 42.6034C75.0373 43.0103 74.1399 43.4747 73.257 43.9727Z" fill="white"/>
<path d="M105.442 59.3221L103.522 58.082C103.43 57.9829 103.316 57.9067 103.189 57.8595C103.062 57.8123 102.925 57.7955 102.79 57.8104C102.656 57.8253 102.526 57.8715 102.412 57.9453C102.299 58.019 102.204 58.1184 102.136 58.2353L100.111 60.3418C100.024 60.4115 99.9529 60.4987 99.9024 60.5978C99.852 60.6968 99.8231 60.8054 99.8179 60.9164C99.8569 61.0857 99.9536 61.2362 100.091 61.3425C101.137 62.3391 102.291 63.2159 103.532 63.9566C104.773 62.8074 105.51 61.2159 105.581 59.5279" fill="white"/>
<path d="M94.5535 44.9781L93.2483 46.0458C93.2047 46.0719 93.1669 46.1066 93.1372 46.1477C93.1075 46.1889 93.0866 46.2356 93.0756 46.2851C93.0827 46.3741 93.1219 46.4575 93.1859 46.5197C93.3934 46.7755 93.6178 47.017 93.8577 47.2427C93.9038 47.2949 93.9636 47.3331 94.0305 47.3528C94.1078 47.3542 94.1835 47.3307 94.2464 47.2858C94.4612 47.1521 94.6389 46.9667 94.7632 46.7466C94.8875 46.5265 94.9544 46.2788 94.9577 46.0262C94.9611 45.7736 94.9008 45.5242 94.7824 45.3009C94.6639 45.0777 94.4912 44.8876 94.28 44.7483" fill="white"/>
<path d="M103.052 41.119C102.823 41.0152 102.563 40.9982 102.323 41.0712C102.205 41.1129 102.106 41.1938 102.041 41.3002C101.976 41.4066 101.95 41.532 101.967 41.6553C102.003 41.7876 102.083 41.904 102.193 41.9856C102.418 42.178 102.703 42.2863 102.999 42.292C103.051 42.3007 103.105 42.2887 103.148 42.2585C103.171 42.2356 103.189 42.2078 103.199 42.1771C103.21 42.1464 103.214 42.1137 103.21 42.0814C103.223 41.7726 103.16 41.4654 103.028 41.1861" fill="white"/>
<path d="M108.004 37.4804C107.954 37.4438 107.894 37.4223 107.832 37.4182C107.748 37.4257 107.669 37.4592 107.606 37.5139C107.39 37.6671 107.126 37.8634 107.126 38.1268C107.131 38.2418 107.16 38.3544 107.213 38.4571C107.336 38.7329 107.476 39.0014 107.63 39.2615C107.646 39.2959 107.673 39.3244 107.707 39.3428C107.747 39.3571 107.791 39.3571 107.832 39.3428C109.122 38.9072 109.151 38.1411 108.004 37.4804Z" fill="white"/>
<path d="M127.559 42.0432C127.211 41.9857 126.856 41.9857 126.508 42.0432C126.255 42.0625 126.016 42.1711 125.836 42.3496C125.748 42.4391 125.699 42.5594 125.699 42.6847C125.699 42.81 125.748 42.9304 125.836 43.0198C125.981 43.1046 126.151 43.1335 126.316 43.1012L127.396 43.0246C127.487 42.7266 127.487 42.4082 127.396 42.1102" fill="white"/>
<path d="M115.586 46.7781C115.594 46.7939 115.608 46.8059 115.625 46.8116C115.632 46.8148 115.64 46.8164 115.649 46.8164C115.657 46.8164 115.665 46.8148 115.673 46.8116L116.052 46.5962C116.106 46.5722 116.153 46.5362 116.191 46.4909C116.268 46.3807 116.191 46.2323 116.152 46.1126C115.945 45.7039 115.687 45.3227 115.385 44.9779C115.353 44.9344 115.307 44.9024 115.255 44.887C115.213 44.8751 115.168 44.8751 115.126 44.887C114.928 44.9445 114.735 45.0182 114.55 45.1072C114.66 45.6722 115.265 46.2898 115.586 46.7781Z" fill="white"/>
<path d="M91.9481 38.5433L91.6937 39.86H92.3463C92.3744 39.8695 92.4047 39.8695 92.4327 39.86C92.4395 39.8365 92.4395 39.8116 92.4327 39.7882L92.6055 38.1891C92.3253 38.2522 92.0532 38.3469 91.7945 38.4715" fill="white"/>
<path d="M94.0259 60.2365C94.0483 60.263 94.0647 60.294 94.0739 60.3275C94.0721 60.3499 94.0655 60.3716 94.0548 60.3914C94.0441 60.4112 94.0293 60.4285 94.0115 60.4424C93.8214 60.6225 93.5939 60.7588 93.3451 60.8415C93.0964 60.9242 92.8324 60.9514 92.5719 60.9211C92.3346 60.9079 92.1106 60.8072 91.9433 60.6387C91.5306 60.1599 91.2763 58.7954 92.0393 58.4938C92.8023 58.1921 93.642 59.7721 94.0259 60.2365Z" fill="white"/>
<path d="M75.9395 52.9592L75.1429 54.046L75.5988 54.3141C75.6424 54.3484 75.697 54.3654 75.7524 54.362C75.7828 54.3533 75.8111 54.3386 75.8359 54.3189C75.8606 54.2992 75.8811 54.2748 75.8963 54.2471L76.2322 53.7683C76.3062 53.6817 76.3573 53.578 76.381 53.4667C76.4194 53.1651 76.0931 52.9879 75.8148 52.8491" fill="white"/>
<path d="M83.7804 39.0268C83.9043 39.5447 84.0929 40.0449 84.3419 40.5158C84.6684 40.3922 85.0148 40.329 85.364 40.3291C85.2392 39.9221 85.1049 39.52 84.9465 39.1274C84.9377 39.0857 84.9192 39.0467 84.8925 39.0134C84.8659 38.9802 84.8318 38.9536 84.793 38.9359C84.7366 38.9194 84.6766 38.9194 84.6202 38.9359L83.7421 39.2231" fill="white"/>
<path d="M98.925 35.5127C98.925 35.484 100.446 34.6557 99.5824 34.153C99.3329 34.0046 98.973 34.3158 98.8386 34.5408C98.7466 34.6906 98.7053 34.866 98.7209 35.041C98.7364 35.216 98.808 35.3814 98.925 35.5127Z" fill="white"/>
<g opacity="0.24">
<path opacity="0.24" d="M72.5231 41.5213C72.4319 41.5333 72.3457 41.5697 72.2736 41.6266C72.2275 41.6901 72.1966 41.7632 72.1833 41.8404C72.17 41.9176 72.1746 41.9968 72.1968 42.0719C72.2211 42.2895 72.2862 42.5007 72.3888 42.6943C72.4421 42.7909 72.5163 42.8744 72.6059 42.939C72.6955 43.0036 72.7983 43.0475 72.907 43.0677C73.0551 43.0733 73.2031 43.0523 73.3437 43.0055L75.3111 42.4501C75.3605 42.4433 75.4052 42.4175 75.4359 42.3783C75.4476 42.3425 75.4476 42.304 75.4359 42.2682C75.4071 41.4208 75.5511 41.0234 74.6009 41.1431C73.9023 41.2337 73.2088 41.3599 72.5231 41.5213Z" fill="#1D5377"/>
<path opacity="0.24" d="M91.0986 58.3261L90.0621 57.1053C89.9558 56.9453 89.7959 56.8282 89.6111 56.7749C89.4277 56.7687 89.2474 56.8225 89.0976 56.9281L87.3077 57.9431C87.1733 58.0197 87.0246 58.1155 86.9958 58.2687C86.9866 58.392 87.0224 58.5144 87.0966 58.6134C87.5965 59.4954 88.1954 60.3178 88.8817 61.0647C89.9469 60.5392 90.761 59.6152 91.1466 58.4937" fill="#1D5377"/>
<path opacity="0.24" d="M86.6597 46.4765L85.5704 46.9217C85.5367 46.9257 85.5046 46.9382 85.4772 46.9582C85.4498 46.9782 85.428 47.0049 85.414 47.0357C85.4 47.0665 85.3942 47.1005 85.3973 47.1342C85.4003 47.1679 85.412 47.2003 85.4313 47.2282C85.52 47.442 85.6226 47.6499 85.7384 47.8506C85.7584 47.8949 85.792 47.9318 85.8343 47.9559C85.8854 47.975 85.9417 47.975 85.9927 47.9559C86.1641 47.909 86.3209 47.8199 86.4487 47.6968C86.5766 47.5737 86.6714 47.4205 86.7244 47.2512C86.7774 47.082 86.787 46.9022 86.7522 46.7284C86.7174 46.5545 86.6394 46.3922 86.5254 46.2563" fill="#1D5377"/>
<path opacity="0.24" d="M93.1621 45.5669C93.0305 45.4492 92.859 45.3858 92.6823 45.3897C92.5948 45.3949 92.5117 45.4294 92.4464 45.4876C92.3811 45.5459 92.3374 45.6244 92.3224 45.7105C92.3236 45.8065 92.3537 45.8999 92.4088 45.9786C92.5208 46.1535 92.6905 46.2839 92.8886 46.3473C92.9228 46.3593 92.96 46.3593 92.9942 46.3473C93.0374 46.3473 93.0566 46.285 93.071 46.2419C93.1427 46.0361 93.1625 45.8157 93.1286 45.6004" fill="#1D5377"/>
<path opacity="0.24" d="M97.2359 44.1305C97.2078 44.0964 97.1715 44.07 97.1303 44.0539C97.0743 44.0349 97.0136 44.0349 96.9576 44.0539C96.78 44.1161 96.5833 44.1975 96.5257 44.3747C96.5088 44.4536 96.5088 44.5352 96.5257 44.6141C96.5513 44.8256 96.5914 45.0352 96.6457 45.2413C96.6487 45.2668 96.6605 45.2905 96.6792 45.3083C96.7072 45.3181 96.7377 45.3181 96.7656 45.3083C97.6966 45.3131 97.8645 44.8056 97.2359 44.1305Z" fill="#1D5377"/>
<path opacity="0.24" d="M109.482 51.1301C109.261 51.0189 109.023 50.9445 108.777 50.9099C108.603 50.8729 108.421 50.8983 108.263 50.9817C108.187 51.0258 108.131 51.0983 108.107 51.1835C108.084 51.2687 108.095 51.3596 108.139 51.4365C108.224 51.5231 108.335 51.5787 108.455 51.5945L109.199 51.7573C109.32 51.574 109.385 51.3593 109.386 51.1397" fill="#1D5377"/>
<path opacity="0.24" d="M100.466 51.9155C100.463 51.9199 100.462 51.9248 100.462 51.9298C100.462 51.9348 100.463 51.9397 100.466 51.9442C100.466 51.9442 100.49 51.9442 100.504 51.9442L100.801 51.8772C100.843 51.8717 100.882 51.857 100.917 51.8341C100.947 51.7982 100.967 51.755 100.976 51.7088C100.984 51.6626 100.98 51.615 100.965 51.5707C100.907 51.2551 100.811 50.9479 100.677 50.6563C100.666 50.6189 100.642 50.5867 100.609 50.5653C100.58 50.558 100.548 50.558 100.518 50.5653C100.374 50.5666 100.229 50.5778 100.086 50.5988C100.143 51.0548 100.271 51.4991 100.466 51.9155Z" fill="#1D5377"/>
<path opacity="0.24" d="M86.2039 41.6171L85.7672 42.4549L86.2039 42.5985C86.224 42.6059 86.2461 42.6059 86.2663 42.5985C86.2809 42.5882 86.2912 42.5729 86.2951 42.5554L86.7365 41.5117C86.5345 41.5022 86.3321 41.5118 86.1319 41.5405" fill="#1D5377"/>
<path opacity="0.24" d="M83.2382 56.6505C83.245 56.674 83.245 56.6989 83.2382 56.7223C83.2382 56.7558 83.1998 56.7702 83.171 56.7846C83.0078 56.87 82.8278 56.9185 82.6437 56.9268C82.4596 56.9351 82.2759 56.9028 82.1057 56.8324C81.947 56.7773 81.8151 56.6645 81.7362 56.5165C81.5538 56.1191 81.6642 55.1424 82.2161 55.0801C82.7679 55.0179 83.0606 56.2579 83.2382 56.6505Z" fill="#1D5377"/>
<path opacity="0.24" d="M72.5133 48.1091L71.7551 48.6836L72.0095 48.9565C72.0327 48.9862 72.0645 49.0079 72.1006 49.0188C72.1237 49.0203 72.1468 49.0169 72.1683 49.0086C72.1899 49.0003 72.2094 48.9875 72.2254 48.9709L72.5421 48.7267C72.6094 48.6829 72.6653 48.6239 72.7053 48.5544C72.7916 48.3629 72.6093 48.1618 72.4461 48.0277" fill="#1D5377"/>
<path opacity="0.24" d="M80.5894 40.3004C80.571 40.6742 80.5984 41.0488 80.671 41.416C80.9155 41.3974 81.1613 41.425 81.3956 41.4974C81.3956 41.1957 81.3956 40.8989 81.3572 40.6021C81.359 40.5721 81.3544 40.542 81.3437 40.5139C81.3329 40.4859 81.3162 40.4604 81.2948 40.4393C81.2545 40.4247 81.2103 40.4247 81.17 40.4393H80.5222" fill="#1D5377"/>
<path opacity="0.24" d="M91.5159 40.9755C91.5159 40.9755 92.7156 40.7074 92.2357 40.1903C92.0965 40.0419 91.7894 40.1903 91.655 40.3052C91.5629 40.3872 91.4996 40.4967 91.4745 40.6174C91.4494 40.7381 91.4639 40.8636 91.5159 40.9755Z" fill="#1D5377"/>
</g>
<defs>
<linearGradient id="paint0_linear" x1="2119.27" y1="-851.094" x2="2507.51" y2="-683.388" gradientUnits="userSpaceOnUse">
<stop offset="0.01"/>
<stop offset="0.13" stop-opacity="0.69"/>
<stop offset="0.25" stop-opacity="0.32"/>
<stop offset="1" stop-opacity="0"/>
</linearGradient>
<linearGradient id="paint1_linear" x1="1136.67" y1="2210" x2="944.885" y2="2514.39" gradientUnits="userSpaceOnUse">
<stop offset="0.01"/>
<stop offset="0.13" stop-opacity="0.69"/>
<stop offset="0.25" stop-opacity="0.32"/>
<stop offset="1" stop-opacity="0"/>
</linearGradient>
<linearGradient id="paint2_linear" x1="1796.27" y1="3096" x2="1697.96" y2="3152.76" gradientUnits="userSpaceOnUse">
<stop offset="0.01"/>
<stop offset="0.13" stop-opacity="0.69"/>
<stop offset="0.25" stop-opacity="0.32"/>
<stop offset="1" stop-opacity="0"/>
</linearGradient>
<linearGradient id="paint3_linear" x1="12289.6" y1="2374.91" x2="12291.4" y2="2816.53" gradientUnits="userSpaceOnUse">
<stop stop-color="#010101" stop-opacity="0"/>
<stop offset="0.95" stop-color="#010101"/>
</linearGradient>
<linearGradient id="paint4_linear" x1="3798.28" y1="2272.62" x2="3786.92" y2="3153.22" gradientUnits="userSpaceOnUse">
<stop stop-color="#010101" stop-opacity="0"/>
<stop offset="0.95" stop-color="#010101"/>
</linearGradient>
<linearGradient id="paint5_linear" x1="101.373" y1="155.272" x2="98.3447" y2="155.272" gradientUnits="userSpaceOnUse">
<stop stop-color="#E4C5D5"/>
<stop offset="0.42" stop-color="#E9D3CF"/>
<stop offset="1" stop-color="#EFE8CA"/>
</linearGradient>
<linearGradient id="paint6_linear" x1="1091.65" y1="1481.73" x2="1115.1" y2="1481.73" gradientUnits="userSpaceOnUse">
<stop stop-color="#E4C5D5"/>
<stop offset="0.42" stop-color="#E9D3CF"/>
<stop offset="1" stop-color="#EFE8CA"/>
</linearGradient>
<linearGradient id="paint7_linear" x1="3801" y1="15271" x2="4928" y2="15271" gradientUnits="userSpaceOnUse">
<stop stop-color="#010101" stop-opacity="0"/>
<stop offset="0.95" stop-color="#010101"/>
</linearGradient>
<linearGradient id="paint8_linear" x1="4925.64" y1="2837.52" x2="5309.41" y2="2837.52" gradientUnits="userSpaceOnUse">
<stop stop-color="#E4C5D5"/>
<stop offset="0.42" stop-color="#E9D3CF"/>
<stop offset="1" stop-color="#EFE8CA"/>
</linearGradient>
<linearGradient id="paint9_linear" x1="3311.04" y1="2907.09" x2="3524.81" y2="2907.09" gradientUnits="userSpaceOnUse">
<stop stop-color="#E4C5D5"/>
<stop offset="0.42" stop-color="#E9D3CF"/>
<stop offset="1" stop-color="#EFE8CA"/>
</linearGradient>
<linearGradient id="paint10_linear" x1="3163.44" y1="4837.07" x2="4638.2" y2="4277.96" gradientUnits="userSpaceOnUse">
<stop stop-color="#010101" stop-opacity="0"/>
<stop offset="0.95" stop-color="#010101"/>
</linearGradient>
<linearGradient id="paint11_linear" x1="2045.7" y1="1523.54" x2="1840.13" y2="1956.59" gradientUnits="userSpaceOnUse">
<stop stop-color="#010101" stop-opacity="0"/>
<stop offset="0.95" stop-color="#010101"/>
</linearGradient>
<linearGradient id="paint12_linear" x1="7525.06" y1="1697.83" x2="8662.61" y2="1697.83" gradientUnits="userSpaceOnUse">
<stop stop-color="#E4C5D5"/>
<stop offset="0.42" stop-color="#E9D3CF"/>
<stop offset="1" stop-color="#EFE8CA"/>
</linearGradient>
<linearGradient id="paint13_linear" x1="4159.43" y1="14411.2" x2="5358.66" y2="14327.3" gradientUnits="userSpaceOnUse">
<stop stop-color="#010101" stop-opacity="0"/>
<stop offset="0.95" stop-color="#010101"/>
</linearGradient>
<linearGradient id="paint14_linear" x1="2103.89" y1="1973.54" x2="1772.02" y2="1973.54" gradientUnits="userSpaceOnUse">
<stop stop-color="#010101" stop-opacity="0"/>
<stop offset="0.95" stop-color="#010101"/>
</linearGradient>
<linearGradient id="paint15_linear" x1="407.769" y1="1727.02" x2="143.192" y2="1738.31" gradientUnits="userSpaceOnUse">
<stop stop-color="#010101" stop-opacity="0"/>
<stop offset="0.95" stop-color="#010101"/>
</linearGradient>
<linearGradient id="paint16_linear" x1="1001.59" y1="1097.21" x2="1036.01" y2="952.731" gradientUnits="userSpaceOnUse">
<stop stop-color="#010101" stop-opacity="0"/>
<stop offset="0.95" stop-color="#010101"/>
</linearGradient>
<linearGradient id="paint17_linear" x1="587.176" y1="2844.35" x2="1066.22" y2="3090.5" gradientUnits="userSpaceOnUse">
<stop stop-color="#010101" stop-opacity="0"/>
<stop offset="0.95" stop-color="#010101"/>
</linearGradient>
<linearGradient id="paint18_linear" x1="1247.65" y1="5003.89" x2="1555.68" y2="5003.89" gradientUnits="userSpaceOnUse">
<stop stop-color="#010101" stop-opacity="0"/>
<stop offset="0.95" stop-color="#010101"/>
</linearGradient>
<linearGradient id="paint19_linear" x1="385.139" y1="359.292" x2="379.955" y2="358.163" gradientUnits="userSpaceOnUse">
<stop stop-color="#010101" stop-opacity="0"/>
<stop offset="0.95" stop-color="#010101"/>
</linearGradient>
</defs>
</svg>
