<svg width="112" height="109" viewBox="0 0 112 109" fill="none" xmlns="http://www.w3.org/2000/svg">
<ellipse cx="55.5548" cy="54.5" rx="55.5548" ry="54.5" fill="#FEF1E1"/>
<path opacity="0.1" d="M58.3395 81.2431C74.8053 81.2431 88.1534 80.0149 88.1534 78.4999C88.1534 76.9848 74.8053 75.7566 58.3395 75.7566C41.8738 75.7566 28.5256 76.9848 28.5256 78.4999C28.5256 80.0149 41.8738 81.2431 58.3395 81.2431Z" fill="#1D5377"/>
<path opacity="0.1" d="M78.9916 79.7001C78.7975 79.7074 77.6943 79.7001 77.6943 79.7001C77.6781 79.6832 77.663 79.6654 77.6489 79.6467C77.9311 79.5506 78.5407 79.4065 78.9916 79.7001Z" fill="black"/>
<path opacity="0.1" d="M82.1471 79.7001C81.953 79.7074 80.8498 79.7001 80.8498 79.7001C80.8337 79.6832 80.8185 79.6654 80.8044 79.6467C81.0853 79.5506 81.6949 79.4065 82.1471 79.7001Z" fill="black"/>
<path d="M76.1667 57.8107C76.4983 57.8107 76.767 57.6285 76.767 57.4038C76.767 57.179 76.4983 56.9968 76.1667 56.9968C75.8352 56.9968 75.5664 57.179 75.5664 57.4038C75.5664 57.6285 75.8352 57.8107 76.1667 57.8107Z" fill="#575A89"/>
<path d="M56.5994 80.0563C67.9639 80.0563 77.1766 70.8419 77.1766 59.4752C77.1766 48.1086 67.9639 38.8942 56.5994 38.8942C45.2349 38.8942 36.0222 48.1086 36.0222 59.4752C36.0222 70.8419 45.2349 80.0563 56.5994 80.0563Z" fill="#FC682D"/>
<path d="M67.3964 69.8178C67.3964 73.0667 62.2898 70.0953 56.815 70.0953C51.3402 70.0953 45.8027 72.944 45.8027 69.695C45.8027 67.8424 47.5676 65.2659 50.0996 63.3946C52.0072 61.9843 54.3498 60.9743 56.703 60.9743C59.1229 60.9743 61.4934 62.0677 63.3844 63.5688C65.7709 65.4614 67.3964 68.0045 67.3964 69.8178Z" fill="#444053"/>
<path d="M63.3837 63.5674C60.4736 63.1291 55.2102 62.5947 50.0996 63.3933C52.0073 61.983 54.3498 60.9729 56.703 60.9729C59.1222 60.9729 61.4928 62.0664 63.3837 63.5674Z" fill="#F6F8FB"/>
<path opacity="0.05" d="M45.8027 44.9471C45.8027 44.9471 39.6042 48.9105 39.6549 55.1102C39.7055 61.3098 45.8027 44.9471 45.8027 44.9471Z" fill="black"/>
<path d="M80.1066 76.6092C80.1066 76.6092 85.7228 76.9475 85.0605 73.0114C85.0605 73.0114 85.1939 72.3162 84.5615 72C84.5615 72 84.5515 72.2916 83.9859 72.1928C83.7843 72.1591 83.5795 72.1492 83.3756 72.1635C83.1001 72.1822 82.8382 72.2904 82.6299 72.4717V72.4717C82.6299 72.4717 81.0511 73.1235 80.4368 75.7046C80.4368 75.7046 79.9825 76.2677 80.0005 76.4118L80.9484 76.0075C80.9484 76.0075 80.6249 75.3237 80.8817 74.7553C80.8817 74.7553 80.9123 75.9821 81.0944 75.9561C81.1311 75.9501 81.5867 75.7193 81.5867 75.7193C81.5867 75.7193 81.0297 74.5278 81.4533 73.6625C81.4533 73.6625 81.2939 75.1302 81.7641 75.6332L82.4311 75.2436C82.4311 75.2436 81.7801 74.0134 82.2217 73.0094C82.2217 73.0094 82.1083 74.5491 82.5712 75.1489L83.1762 74.6772C83.1762 74.6772 82.5645 73.4644 82.9374 72.6318C82.9374 72.6318 82.9861 74.4244 83.3069 74.5598C83.3069 74.5598 83.8358 74.0928 83.9165 73.9013C83.9165 73.9013 83.4977 73.0214 83.7571 72.5571C83.7571 72.5571 83.9165 73.7512 84.0473 73.7579C84.0473 73.7579 84.5742 72.9667 84.6296 72.4236C84.6296 72.4236 84.6062 73.2309 84.1753 73.8333C84.1753 73.8333 84.6849 73.7459 84.9817 73.415C84.9817 73.415 84.8997 73.9747 84.0479 74.0234C84.0479 74.0234 83.6124 74.6239 83.4957 74.6599C83.4957 74.6599 84.3461 74.7313 84.8617 74.5024C84.8617 74.5024 84.4081 75.0301 83.3402 74.7906L82.7399 75.2776C82.7399 75.2776 83.8592 75.4311 84.3341 75.2616C84.3341 75.2616 83.7878 75.7286 82.5792 75.3884L81.9289 75.7773C81.9289 75.7773 82.8833 75.9828 83.4523 75.9108C83.4523 75.9108 82.852 76.2343 81.7388 75.8834L81.2719 76.0922C81.2719 76.0922 81.9715 76.2296 82.1763 76.251C82.3811 76.2723 82.3918 76.3297 82.3918 76.3297C81.9474 76.402 81.4917 76.3491 81.0758 76.1769C81.0758 76.1769 80.0899 76.5472 80.1066 76.6092Z" fill="#FC682D"/>
<path d="M76.0073 39.1066C76.0073 39.1066 75.669 44.7228 79.6051 44.0605C79.6051 44.0605 80.3003 44.1939 80.6165 43.5615C80.6165 43.5615 80.325 43.5515 80.4237 42.9859C80.4574 42.7843 80.4673 42.5795 80.4531 42.3756C80.4343 42.1001 80.3261 41.8382 80.1448 41.6299C80.1448 41.6299 79.493 40.0511 76.9119 39.4368C76.9119 39.4368 76.3488 38.9825 76.2047 39.0005L76.609 39.9484C76.609 39.9484 77.2928 39.6249 77.8612 39.8817C77.8612 39.8817 76.6344 39.9123 76.6604 40.0944C76.6664 40.1311 76.8972 40.5867 76.8972 40.5867C76.8972 40.5867 78.0887 40.0297 78.954 40.4533C78.954 40.4533 77.4863 40.2939 76.9833 40.7641L77.3729 41.4311C77.3729 41.4311 78.6031 40.7801 79.6071 41.2217C79.6071 41.2217 78.0674 41.1083 77.4676 41.5712L77.9393 42.1762C77.9393 42.1762 79.1521 41.5645 79.9847 41.9374C79.9847 41.9374 78.1921 41.9861 78.0567 42.3069C78.0567 42.3069 78.5237 42.8358 78.7152 42.9165C78.7152 42.9165 79.5951 42.4977 80.0594 42.7571C80.0594 42.7571 78.8653 42.9165 78.8586 43.0473C78.8586 43.0473 79.6498 43.5742 80.1929 43.6296C80.1929 43.6296 79.3856 43.6062 78.7832 43.1753C78.7832 43.1753 78.8706 43.6849 79.2015 43.9817C79.2015 43.9817 78.6418 43.8997 78.5931 43.0479C78.5931 43.0479 77.9927 42.6124 77.9566 42.4957C77.9566 42.4957 77.8853 43.3461 78.1141 43.8617C78.1141 43.8617 77.5864 43.4081 77.8259 42.3402L77.3389 41.7399C77.3389 41.7399 77.1854 42.8592 77.3549 43.3341C77.3549 43.3341 76.8879 42.7878 77.2281 41.5792L76.8392 40.9289C76.8392 40.9289 76.6337 41.8833 76.7058 42.4523C76.7058 42.4523 76.3822 41.852 76.7331 40.7388L76.5243 40.2719C76.5243 40.2719 76.3869 40.9715 76.3655 41.1763C76.3442 41.3811 76.2868 41.3918 76.2868 41.3918C76.2145 40.9474 76.2674 40.4917 76.4396 40.0758C76.4396 40.0758 76.0693 39.0899 76.0073 39.1066Z" fill="#1D5377"/>
<path d="M32.0082 54.0073C32.0082 54.0073 26.392 53.669 27.0543 57.6051C27.0543 57.6051 26.9209 58.3003 27.5532 58.6165C27.5532 58.6165 27.5632 58.325 28.1288 58.4237C28.3304 58.4574 28.5353 58.4673 28.7392 58.4531C29.0147 58.4343 29.2765 58.3261 29.4849 58.1448C29.4849 58.1448 31.0637 57.493 31.678 54.9119C31.678 54.9119 32.1322 54.3488 32.1142 54.2047L31.1664 54.609C31.1664 54.609 31.4899 55.2928 31.2331 55.8612C31.2331 55.8612 31.2024 54.6344 31.0203 54.6604C30.9836 54.6664 30.5281 54.8972 30.5281 54.8972C30.5281 54.8972 31.085 56.0887 30.6615 56.954C30.6615 56.954 30.8209 55.4863 30.3506 54.9833L29.6836 55.3729C29.6836 55.3729 30.3346 56.6031 29.8931 57.6071C29.8931 57.6071 30.0065 56.0674 29.5436 55.4676L28.9386 55.9393C28.9386 55.9393 29.5502 57.1521 29.1774 57.9847C29.1774 57.9847 29.1287 56.1921 28.8079 56.0567C28.8079 56.0567 28.2789 56.5237 28.1982 56.7152C28.1982 56.7152 28.6171 57.5951 28.3576 58.0594C28.3576 58.0594 28.1982 56.8653 28.0675 56.8586C28.0675 56.8586 27.5405 57.6498 27.4852 58.1929C27.4852 58.1929 27.5085 57.3856 27.9394 56.7832C27.9394 56.7832 27.4298 56.8706 27.133 57.2015C27.133 57.2015 27.215 56.6418 28.0668 56.5931C28.0668 56.5931 28.5024 55.9927 28.6191 55.9566C28.6191 55.9566 27.7687 55.8853 27.2531 56.1141C27.2531 56.1141 27.7066 55.5864 28.7745 55.8259L29.3748 55.3389C29.3748 55.3389 28.2556 55.1854 27.7807 55.3549C27.7807 55.3549 28.3269 54.8879 29.5356 55.2281L30.1859 54.8392C30.1859 54.8392 29.2314 54.6337 28.6624 54.7058C28.6624 54.7058 29.2628 54.3822 30.376 54.7331L30.8429 54.5243C30.8429 54.5243 30.1432 54.3869 29.9384 54.3655C29.7337 54.3442 29.723 54.2868 29.723 54.2868C30.1673 54.2145 30.623 54.2674 31.039 54.4396C31.039 54.4396 32.0248 54.0693 32.0082 54.0073Z" fill="#FC682D"/>
<path d="M34.0082 44.0073C34.0082 44.0073 28.392 43.669 29.0543 47.6051C29.0543 47.6051 28.9209 48.3003 29.5532 48.6165C29.5532 48.6165 29.5632 48.325 30.1288 48.4237C30.3304 48.4574 30.5353 48.4673 30.7392 48.4531C31.0147 48.4343 31.2765 48.3261 31.4849 48.1448C31.4849 48.1448 33.0637 47.493 33.678 44.9119C33.678 44.9119 34.1322 44.3488 34.1142 44.2047L33.1664 44.609C33.1664 44.609 33.4899 45.2928 33.2331 45.8612C33.2331 45.8612 33.2024 44.6344 33.0203 44.6604C32.9836 44.6664 32.5281 44.8972 32.5281 44.8972C32.5281 44.8972 33.085 46.0887 32.6615 46.954C32.6615 46.954 32.8209 45.4863 32.3506 44.9833L31.6836 45.3729C31.6836 45.3729 32.3346 46.6031 31.8931 47.6071C31.8931 47.6071 32.0065 46.0674 31.5436 45.4676L30.9386 45.9393C30.9386 45.9393 31.5502 47.1521 31.1774 47.9847C31.1774 47.9847 31.1287 46.1921 30.8079 46.0567C30.8079 46.0567 30.2789 46.5237 30.1982 46.7152C30.1982 46.7152 30.6171 47.5951 30.3576 48.0594C30.3576 48.0594 30.1982 46.8653 30.0675 46.8586C30.0675 46.8586 29.5405 47.6498 29.4852 48.1929C29.4852 48.1929 29.5085 47.3856 29.9394 46.7832C29.9394 46.7832 29.4298 46.8706 29.133 47.2015C29.133 47.2015 29.215 46.6418 30.0668 46.5931C30.0668 46.5931 30.5024 45.9927 30.6191 45.9566C30.6191 45.9566 29.7687 45.8853 29.2531 46.1141C29.2531 46.1141 29.7066 45.5864 30.7745 45.8259L31.3748 45.3389C31.3748 45.3389 30.2556 45.1854 29.7807 45.3549C29.7807 45.3549 30.3269 44.8879 31.5356 45.2281L32.1859 44.8392C32.1859 44.8392 31.2314 44.6337 30.6624 44.7058C30.6624 44.7058 31.2628 44.3822 32.376 44.7331L32.8429 44.5243C32.8429 44.5243 32.1432 44.3869 31.9384 44.3655C31.7337 44.3442 31.723 44.2868 31.723 44.2868C32.1673 44.2145 32.623 44.2674 33.039 44.4396C33.039 44.4396 34.0248 44.0693 34.0082 44.0073Z" fill="#1D5377"/>
<path d="M46.471 61.027C46.471 61.027 44.7243 62.87 46.2771 63.7864C46.2771 63.7864 46.4797 64.0339 46.7721 63.9074C46.7721 63.9074 46.6725 63.8186 46.8729 63.6524C46.9428 63.5923 47.0057 63.5244 47.0602 63.45C47.1334 63.3488 47.1721 63.2267 47.1703 63.1018C47.1703 63.1018 47.4027 62.3661 46.6878 61.4039C46.6878 61.4039 46.6251 61.0832 46.5716 61.0452L46.4364 61.4907C46.4364 61.4907 46.7673 61.5769 46.8899 61.8304C46.8899 61.8304 46.4562 61.4848 46.4137 61.5562C46.403 61.569 46.3523 61.7954 46.3523 61.7954C46.3523 61.7954 46.9267 61.9484 47.104 62.3453C47.104 62.3453 46.6423 61.8638 46.3317 61.8801L46.2729 62.2243C46.2729 62.2243 46.8882 62.3566 47.1075 62.801C47.1075 62.801 46.607 62.3149 46.2654 62.3007L46.2526 62.647C46.2526 62.647 46.8497 62.7875 47.0299 63.1581C47.0299 63.1581 46.3953 62.6544 46.2548 62.7263C46.2548 62.7263 46.2628 63.0448 46.3057 63.1286C46.3057 63.1286 46.7341 63.2408 46.8175 63.4641C46.8175 63.4641 46.3578 63.1723 46.3168 63.2181C46.3168 63.2181 46.4372 63.6299 46.6078 63.8053C46.4416 63.6509 46.3187 63.4556 46.2514 63.2389C46.1831 63.3608 46.152 63.4999 46.1619 63.6393C46.1619 63.6393 45.9918 63.4486 46.2232 63.1386C46.2232 63.1386 46.1422 62.8138 46.1633 62.7627C46.1633 62.7627 45.8918 63.0365 45.8214 63.2812C45.8214 63.2812 45.7701 62.9709 46.1612 62.6687L46.1646 62.3232C46.1646 62.3232 45.7885 62.6676 45.7066 62.8793C45.7066 62.8793 45.7038 62.5548 46.173 62.2354L46.2267 61.8973C46.2267 61.8973 45.8787 62.1678 45.7388 62.3865C45.7388 62.3865 45.8013 62.0846 46.2462 61.8014L46.3087 61.5796C46.3087 61.5796 46.058 61.7819 45.9917 61.8464C45.9253 61.9109 45.9015 61.8988 45.9015 61.8988C46.0047 61.724 46.1546 61.5813 46.3342 61.4869C46.3342 61.4869 46.4972 61.0394 46.471 61.027Z" fill="#1D5377"/>
<path opacity="0.1" d="M25.1022 82.8856C26.0942 82.8856 26.8984 82.7497 26.8984 82.5821C26.8984 82.4144 26.0942 82.2785 25.1022 82.2785C24.1101 82.2785 23.3059 82.4144 23.3059 82.5821C23.3059 82.7497 24.1101 82.8856 25.1022 82.8856Z" fill="#1D5377"/>
<path opacity="0.1" d="M35.5294 83.2665C36.5214 83.2665 37.3257 83.1306 37.3257 82.963C37.3257 82.7953 36.5214 82.6594 35.5294 82.6594C34.5374 82.6594 33.7332 82.7953 33.7332 82.963C33.7332 83.1306 34.5374 83.2665 35.5294 83.2665Z" fill="#1D5377"/>
<path d="M74.5097 79.5881C75.9909 79.5881 77.1917 79.385 77.1917 79.1344C77.1917 78.8839 75.9909 78.6808 74.5097 78.6808C73.0284 78.6808 71.8276 78.8839 71.8276 79.1344C71.8276 79.385 73.0284 79.5881 74.5097 79.5881Z" fill="#1D5377"/>
<path d="M90.7356 80.0443C90.858 79.9444 90.9473 79.8097 90.9917 79.658C91.0244 79.5053 90.959 79.3211 90.813 79.2651C90.6489 79.2024 90.4735 79.3165 90.3407 79.4312C90.208 79.546 90.0552 79.6767 89.8811 79.6527C89.9707 79.5716 90.0377 79.4687 90.0755 79.354C90.1134 79.2393 90.1209 79.1167 90.0973 78.9982C90.0897 78.9492 90.0689 78.9031 90.0372 78.8648C89.9459 78.7674 89.7811 78.8088 89.6717 78.8855C89.3249 79.1297 89.2282 79.6007 89.2262 80.025C89.1915 79.8722 89.2208 79.7127 89.2202 79.558C89.2195 79.4032 89.1761 79.2244 89.0441 79.1423C88.9621 79.0986 88.8701 79.077 88.7773 79.0796C88.6212 79.0736 88.4478 79.089 88.341 79.2031C88.2076 79.3452 88.243 79.5827 88.3584 79.7368C88.4738 79.8909 88.6485 79.9909 88.8093 80.0984C88.9386 80.1753 89.049 80.2804 89.1321 80.4059C89.1418 80.4236 89.1499 80.4421 89.1561 80.4613H90.1333C90.3519 80.3501 90.5545 80.2098 90.7356 80.0443V80.0443Z" fill="#1D5377"/>
<path d="M25.9406 74.4504C25.9406 74.4504 26.3068 74.9294 25.7711 75.6512C25.2355 76.3731 24.794 76.9855 24.9707 77.4365C24.9707 77.4365 25.7785 76.0929 26.4382 76.0735C27.0978 76.0542 26.6636 75.2583 25.9406 74.4504Z" fill="#1D5377"/>
<path opacity="0.1" d="M25.9405 74.4504C25.9723 74.4967 25.9974 74.5472 26.0152 74.6005C26.6568 75.3543 26.9983 76.0582 26.382 76.0755C25.8071 76.0922 25.1147 77.1196 24.9526 77.3791C24.9583 77.3992 24.965 77.419 24.9726 77.4385C24.9726 77.4385 25.7804 76.0949 26.4401 76.0755C27.0997 76.0562 26.6635 75.2583 25.9405 74.4504Z" fill="black"/>
<path d="M26.6216 75.0608C26.6216 75.2296 26.6022 75.3664 26.5789 75.3664C26.5555 75.3664 26.5369 75.2329 26.5369 75.0608C26.5369 74.8887 26.5602 74.9714 26.5842 74.9714C26.6082 74.9714 26.6216 74.892 26.6216 75.0608Z" fill="#FFD037"/>
<path d="M26.8522 75.2623C26.7041 75.343 26.5754 75.3917 26.564 75.371C26.5527 75.3503 26.6641 75.269 26.8122 75.1882C26.9602 75.1075 26.9015 75.1662 26.9129 75.1882C26.9242 75.2102 27.0029 75.1816 26.8522 75.2623Z" fill="#FFD037"/>
<path d="M24.0048 74.4504C24.0048 74.4504 23.6386 74.9294 24.1735 75.6512C24.7085 76.3731 25.1507 76.9855 24.974 77.4365C24.974 77.4365 24.1655 76.0929 23.5065 76.0735C22.8475 76.0542 23.2811 75.2583 24.0048 74.4504Z" fill="#1D5377"/>
<path opacity="0.1" d="M24.0048 74.4504C23.9727 74.4965 23.9475 74.5471 23.9301 74.6005C23.2884 75.3543 22.9462 76.0582 23.5632 76.0755C24.1375 76.0922 24.8305 77.1196 24.9919 77.3791C24.9865 77.3992 24.9801 77.419 24.9726 77.4385C24.9726 77.4385 24.1642 76.0949 23.5052 76.0755C22.8462 76.0562 23.2811 75.2583 24.0048 74.4504Z" fill="black"/>
<path d="M23.3237 75.0608C23.3237 75.2296 23.3424 75.3664 23.3658 75.3664C23.3891 75.3664 23.4078 75.2329 23.4078 75.0608C23.4078 74.8887 23.3844 74.9714 23.3611 74.9714C23.3377 74.9714 23.3237 74.892 23.3237 75.0608Z" fill="#FFD037"/>
<path d="M23.0897 75.2623C23.2378 75.343 23.3672 75.3917 23.3785 75.371C23.3899 75.3503 23.2785 75.269 23.1304 75.1882C22.9823 75.1075 23.0404 75.1662 23.0297 75.1882C23.019 75.2102 22.9416 75.1816 23.0897 75.2623Z" fill="#FFD037"/>
<path d="M23.4404 77.3758C23.4404 77.3758 24.465 77.3444 24.7744 77.1243C25.0839 76.9041 26.3506 76.6419 26.4273 76.9908C26.504 77.3397 27.9667 78.7454 26.8102 78.7547C25.6536 78.7641 24.1228 78.5739 23.8146 78.3865C23.5065 78.199 23.4404 77.3758 23.4404 77.3758Z" fill="#A8A8A8"/>
<path opacity="0.2" d="M26.8295 78.6353C25.6729 78.6446 24.1421 78.4545 23.834 78.267C23.5992 78.1243 23.5058 77.6113 23.4744 77.3744H23.4404C23.4404 77.3744 23.5071 78.201 23.8133 78.3885C24.1194 78.5759 25.6522 78.7661 26.8088 78.7567C27.1423 78.7567 27.2577 78.6346 27.2517 78.4592C27.205 78.5666 27.0783 78.6333 26.8295 78.6353Z" fill="black"/>
<path d="M49.2837 56.7766C49.6753 56.7546 51.5182 56.6159 52.6888 55.9481C52.8768 55.8374 53.0892 55.7749 53.3071 55.7659C53.6793 55.7553 54.1075 55.9107 53.8334 56.7806C53.3892 58.2036 50.8098 59.8048 49.209 59.716C47.6696 59.6306 45.8433 59.0102 44.6374 56.8287C44.5218 56.6188 44.4649 56.3817 44.4726 56.1422C44.4866 55.7019 44.6467 55.1502 45.4731 55.7653C46.5897 56.5958 48.7081 56.7533 49.133 56.7766C49.1832 56.7793 49.2335 56.7793 49.2837 56.7766V56.7766Z" fill="#444053"/>
<path d="M64.0911 56.7766C64.4826 56.7546 66.3256 56.6159 67.4962 55.9481C67.6842 55.8374 67.8966 55.7749 68.1145 55.7659C68.4867 55.7553 68.9149 55.9107 68.6408 56.7806C68.1965 58.2036 65.6172 59.8048 64.0164 59.716C62.477 59.6306 60.6507 59.0102 59.4447 56.8287C59.3292 56.6188 59.2723 56.3817 59.28 56.1422C59.294 55.7019 59.4541 55.1502 60.2805 55.7653C61.3971 56.5958 63.5155 56.7533 63.9404 56.7766C63.9906 56.7793 64.0409 56.7793 64.0911 56.7766V56.7766Z" fill="#444053"/>
</svg>
