<svg width="112" height="109" viewBox="0 0 112 109" fill="none" xmlns="http://www.w3.org/2000/svg">
<ellipse cx="55.5548" cy="54.5" rx="55.5548" ry="54.5" fill="#FEF1E1"/>
<g clip-path="url(#clip0)">
<path d="M69.8758 92C57.1046 92 46.7516 91.3015 46.7516 90.4398C46.7516 89.5782 57.1046 88.8796 69.8758 88.8796C82.6469 88.8796 93 89.5782 93 90.4398C93 91.3015 82.6469 92 69.8758 92Z" fill="#E6E6E6"/>
<path d="M60.6566 60.8625C60.4296 59.6095 59.2548 58.8731 58.0834 58.5784C56.7464 58.242 55.3212 58.2834 53.9606 58.4352C51.2206 58.7407 48.5301 59.5663 45.7496 59.4383C43.332 59.3187 40.9887 58.5773 38.9538 57.2884C36.9069 55.9948 35.2574 54.177 34.1829 52.0306C33.1007 49.8704 32.6208 47.4667 32.7921 45.0646C32.8148 44.766 32.8494 44.4687 32.892 44.1722C32.9226 43.96 33.2503 44.0503 33.2199 44.2611C32.889 46.6492 33.2309 49.0809 34.2086 51.2912C35.1683 53.479 36.7279 55.3614 38.713 56.7282C40.6921 58.0871 43.005 58.9006 45.4118 59.0841C48.1568 59.2812 50.8241 58.5055 53.5217 58.1541C54.8841 57.9766 56.2737 57.9105 57.634 58.1431C58.8389 58.3492 60.0751 58.879 60.6936 59.9764C60.8345 60.2246 60.9328 60.494 60.9845 60.7736C61.0226 60.984 60.6949 61.0743 60.6566 60.8625H60.6566Z" fill="#3F3D56"/>
<path d="M34.1691 44.8603C26.3437 44.8603 19.9999 38.6236 19.9999 30.9302C19.9999 23.2367 26.3437 17 34.1691 17C41.9946 17 48.3384 23.2367 48.3384 30.9302C48.3384 38.6236 41.9946 44.8603 34.1691 44.8603Z" fill="#F28705"/>
<path d="M39.4969 31.7102C37.4936 31.7102 35.8696 30.1136 35.8696 28.1441C35.8696 26.1746 37.4936 24.578 39.4969 24.578C41.5003 24.578 43.1243 26.1746 43.1243 28.1441C43.1243 30.1136 41.5003 31.7102 39.4969 31.7102Z" fill="white"/>
<path d="M40.8572 31.2088C39.7929 31.2088 38.9301 30.3606 38.9301 29.3143C38.9301 28.268 39.7929 27.4198 40.8572 27.4198C41.9214 27.4198 42.7842 28.268 42.7842 29.3143C42.7842 30.3606 41.9214 31.2088 40.8572 31.2088Z" fill="#3F3D56"/>
<path d="M40.177 28.9799C39.9265 28.9799 39.7235 28.7804 39.7235 28.5342C39.7235 28.288 39.9265 28.0884 40.177 28.0884C40.4274 28.0884 40.6304 28.288 40.6304 28.5342C40.6304 28.7804 40.4274 28.9799 40.177 28.9799Z" fill="white"/>
<path d="M27.7081 31.766C25.7048 31.766 24.0808 30.1694 24.0808 28.1999C24.0808 26.2303 25.7048 24.6337 27.7081 24.6337C29.7114 24.6337 31.3354 26.2303 31.3354 28.1999C31.3354 30.1694 29.7114 31.766 27.7081 31.766Z" fill="white"/>
<path d="M29.0683 31.2088C28.0041 31.2088 27.1413 30.3606 27.1413 29.3143C27.1413 28.268 28.0041 27.4198 29.0683 27.4198C30.1326 27.4198 30.9954 28.268 30.9954 29.3143C30.9954 30.3606 30.1326 31.2088 29.0683 31.2088Z" fill="#3F3D56"/>
<path d="M28.3884 28.9799C28.138 28.9799 27.935 28.7804 27.935 28.5342C27.935 28.288 28.138 28.0884 28.3884 28.0884C28.6388 28.0884 28.8418 28.288 28.8418 28.5342C28.8418 28.7804 28.6388 28.9799 28.3884 28.9799Z" fill="white"/>
<path d="M33.9425 33.4933C33.1912 33.4933 32.5822 32.8946 32.5822 32.156C32.5822 31.4175 33.1912 30.8187 33.9425 30.8187C34.6937 30.8187 35.3027 31.4175 35.3027 32.156C35.3027 32.8946 34.6937 33.4933 33.9425 33.4933Z" fill="#3F3D56"/>
<path d="M31.9022 44.0803H34.396V45.9748H31.9022V44.0803Z" fill="#F28705"/>
<path d="M67.6924 81.3149C67.6924 81.3149 66.0922 85.922 66.778 87.6075L64.7207 89.4054L63.4634 87.8322C63.4634 87.8322 64.835 86.4838 64.7207 85.4725C64.6064 84.4612 64.4921 80.8654 64.4921 80.8654L67.6924 81.3149Z" fill="#FFB9B9"/>
<path d="M60.0352 90.3037C60.1286 90.3574 60.2177 90.4083 60.2997 90.4549H67.3938C67.4596 90.4179 67.5124 90.3622 67.5452 90.2951C67.5781 90.2279 67.5895 90.1526 67.5778 90.079C67.5448 89.9122 67.46 89.5731 67.355 89.183C67.1063 88.2601 66.7412 87.0518 66.6621 87.1804C66.662 87.1804 66.6618 87.1804 66.6616 87.1805C66.6614 87.1806 66.6613 87.1807 66.6611 87.1808C66.661 87.1809 66.6609 87.1811 66.6608 87.1813C66.6607 87.1815 66.6607 87.1816 66.6607 87.1818C66.55 87.3825 66.3214 88.2813 65.7493 88.1697C65.1772 88.0566 64.2629 87.8319 64.2629 87.8319C64.2629 87.8319 64.5892 87.1112 64.2773 86.82C64.2102 86.7587 64.1252 86.7197 64.0344 86.7084C63.3487 86.5967 63.3487 87.6072 63.3487 87.6072L60.8344 88.9555C60.6177 89.0144 60.4062 89.0905 60.2019 89.183C59.6916 89.4176 59.187 89.819 60.0352 90.3037Z" fill="#1D5377"/>
<path d="M72.2644 79.6294L75.2361 83.1128L76.0361 84.9107L75.0075 85.6973L74.0931 85.3602C74.0931 85.3602 73.293 83.3375 72.493 83.0004C71.6929 82.6633 69.7498 80.416 69.7498 80.416L72.2644 79.6294Z" fill="#FFB9B9"/>
<path d="M66.035 76.9562L67.5506 79.7182L68.6364 81.6958C68.9838 81.8992 69.4467 81.8959 69.9451 81.7756C70.1773 81.7172 70.4049 81.6425 70.6263 81.552C71.9864 81.0048 73.366 79.9182 73.366 79.9182L70.7554 76.7112L69.9028 75.6651L69.7005 75.4156L68.7255 75.8258L67.0054 76.5483L66.035 76.9562Z" fill="#2F2E41"/>
<path d="M72.7989 53.106L74.0095 57.9882L72.7634 64.2518C72.7634 64.2518 72.7327 66.8123 71.5907 66.618C70.4488 66.4236 71.6455 63.8413 71.6455 63.8413L72.2041 58.7055L70.4182 53.6316C70.2735 53.2206 70.4562 52.7794 70.8752 52.5278C71.5824 52.1032 72.5873 52.4053 72.7989 53.106Z" fill="#FFB9B9"/>
<path d="M68.5495 48.8969L69.5782 52.0432L71.5212 51.0318C71.5212 51.0318 70.7212 48.7845 70.7212 48.4474C70.7212 48.1103 68.5495 48.8969 68.5495 48.8969Z" fill="#FFB9B9"/>
<path d="M69.3498 50.1329C68.0242 50.1329 66.9496 49.0764 66.9496 47.7732C66.9496 46.47 68.0242 45.4135 69.3498 45.4135C70.6754 45.4135 71.75 46.47 71.75 47.7732C71.75 49.0764 70.6754 50.1329 69.3498 50.1329Z" fill="#FFB9B9"/>
<path d="M68.721 52.7735L69.1782 52.3241L69.2925 51.7622C69.2925 51.7622 70.7783 49.852 72.0356 50.5262C72.4285 50.7369 72.7209 51.2219 72.9373 51.7892C73.4884 53.272 73.437 54.9066 72.7937 56.3531L70.7783 60.9764L66.2065 60.5269L67.0065 57.6054C67.0065 57.6054 66.2065 55.8075 67.6923 54.5714L68.721 52.7735Z" fill="#1D5377"/>
<path opacity="0.3" d="M66.035 76.9562L67.5506 79.7182L68.6364 81.6958C68.9838 81.8992 69.4467 81.8959 69.9451 81.7756C70.0319 81.207 69.513 78.2023 69.9211 75.7527L69.9028 75.6651L69.7005 75.4156L68.7255 75.8258L67.0054 76.5483L66.035 76.9562Z" fill="black"/>
<path d="M66.0352 60.246C66.0352 60.246 69.0069 58.4481 71.0642 60.6955L70.9499 61.3697C70.9499 61.3697 72.6643 63.2799 71.6357 67.3251C70.607 71.3704 69.0069 81.9329 69.0069 81.9329C69.0069 81.9329 65.2351 82.1576 63.5206 80.9216C63.5206 80.9216 64.0921 66.988 66.0352 65.6396V60.246Z" fill="#2F2E41"/>
<path d="M72.2319 53.9875L69.007 57.8863L63.1778 60.6955C63.1778 60.6955 61.0843 62.2188 60.5516 61.2069C60.019 60.195 62.835 59.5718 62.835 59.5718L67.3346 56.9056L70.3672 52.4404C70.6129 52.0787 71.0809 51.9551 71.538 52.1313C72.3094 52.4286 72.6719 53.3983 72.2319 53.9875Z" fill="#FFB9B9"/>
<path d="M74.3682 85.1133C74.3682 85.1133 73.6676 84.247 73.2491 84.7928C72.8306 85.3386 73.7427 85.8064 73.7427 85.8064L73.7957 88.6218C73.7957 88.6218 73.298 90.7746 74.6418 89.9428C75.9855 89.1111 76.0383 89.0115 76.3026 88.5133C76.5669 88.0152 77.1131 86.014 77.5845 85.3686C78.0559 84.7232 78.4875 83.4237 77.928 83.2635C77.3684 83.1033 74.7602 82.5328 74.8902 82.7228C75.0201 82.9129 75.7251 83.5279 75.3594 83.974C74.9938 84.4202 74.3682 85.1133 74.3682 85.1133Z" fill="#1D5377"/>
<path d="M68.0927 45.7592C68.0927 45.7563 68.0925 45.7534 68.0925 45.7506C68.0925 45.1061 68.2869 44.476 68.6511 43.9402C69.0153 43.4043 69.533 42.9866 70.1387 42.74C70.7443 42.4933 71.4108 42.4288 72.0537 42.5545C72.6967 42.6803 73.2873 42.9906 73.7509 43.4464C74.2144 43.9021 74.5301 44.4827 74.658 45.1148C74.7859 45.747 74.7202 46.4022 74.4694 46.9976C74.2185 47.593 73.7937 48.102 73.2486 48.46C72.7035 48.8181 72.0627 49.0092 71.4071 49.0092C71.3301 49.0092 71.0256 49.5761 70.9499 49.5711C70.9454 47.851 69.8136 45.8746 68.0927 45.7592Z" fill="#2F2E41"/>
<path d="M74.9502 45.4135C73.7508 45.4135 72.7786 44.4576 72.7786 43.2785C72.7786 42.0994 73.7508 41.1435 74.9502 41.1435C76.1496 41.1435 77.1218 42.0994 77.1218 43.2785C77.1218 44.4576 76.1496 45.4135 74.9502 45.4135Z" fill="#2F2E41"/>
<path d="M75.0498 40.0443C74.5265 40.0411 74.0197 40.224 73.6228 40.5593C73.2259 40.8946 72.9657 41.3597 72.8902 41.8688C72.8147 42.3779 72.929 42.8967 73.2121 43.3294C73.4951 43.7622 73.9278 44.0797 74.4303 44.2234C74.1191 44.2229 73.8117 44.1567 73.5289 44.0291C73.2461 43.9016 72.9946 43.7158 72.7912 43.4842C72.5879 43.2527 72.4376 42.9809 72.3505 42.6873C72.2634 42.3936 72.2415 42.085 72.2864 41.7823C72.3313 41.4796 72.4418 41.19 72.6105 40.933C72.7793 40.676 73.0023 40.4577 73.2643 40.2928C73.5264 40.128 73.8215 40.0205 74.1296 39.9776C74.4376 39.9347 74.7515 39.9575 75.0498 40.0443Z" fill="#2F2E41"/>
<path d="M69.9211 45.0763H68.1813C67.794 45.0763 67.4225 45.2276 67.1486 45.4969C66.8747 45.7661 66.7208 46.1314 66.7208 46.5122V47.0989H69.9211V45.0763Z" fill="#2F2E41"/>
<path d="M33.6875 40.5955C31.0102 40.5955 28.8398 39.2001 28.8398 37.4788C28.8398 35.7575 31.0102 38.7403 33.6875 38.7403C36.3648 38.7403 38.5352 35.7575 38.5352 37.4788C38.5352 39.2001 36.3648 40.5955 33.6875 40.5955Z" fill="white"/>
</g>
<defs>
<clipPath id="clip0">
<rect width="73" height="75" fill="white" transform="matrix(-1 0 0 1 93 17)"/>
</clipPath>
</defs>
</svg>
