<svg width="58" height="58" viewBox="0 0 58 58" fill="none" xmlns="http://www.w3.org/2000/svg">
<path d="M28.7161 57.4321C44.5755 57.4321 57.4321 44.5755 57.4321 28.7161C57.4321 12.8566 44.5755 0 28.7161 0C12.8566 0 0 12.8566 0 28.7161C0 44.5755 12.8566 57.4321 28.7161 57.4321Z" fill="#1D5377"/>
<path d="M56.0221 19.8268C55.2089 17.3268 54.0648 14.9778 52.6377 12.8315L27.5013 39.0125L27.5519 41.926L28.7385 41.9185L56.0221 19.8268Z" fill="#1D5377"/>
<path d="M57.4758 11.3038L52.3551 6.24459C51.6562 5.55372 50.5225 5.55372 49.8235 6.24459L27.9345 28.7913L18.495 19.4643C17.7949 18.7734 16.6623 18.7734 15.9628 19.4643L11.424 23.9492C10.725 24.6395 10.725 25.7594 11.424 26.4497L26.5739 41.4171C26.9776 41.8162 27.525 41.977 28.0511 41.915C28.5772 41.9765 29.1245 41.8162 29.5283 41.4171L57.4759 13.8049C58.1747 13.114 58.1747 11.9946 57.4758 11.3038Z" fill="#FF8C00"/>
<path d="M29.5282 41.4172L57.4758 13.805C58.1747 13.1142 58.1747 11.9948 57.4758 11.3038L56.6401 10.4779L27.8914 38.7547L12.0585 23.3215L11.4245 23.9487C10.7256 24.639 10.7256 25.7589 11.4245 26.4492L26.5738 41.4172C26.9775 41.8163 27.5249 41.9772 28.051 41.9152C28.5771 41.9772 29.1244 41.817 29.5282 41.4172Z" fill="#FC682D"/>
</svg>
