<svg width="200" height="188" viewBox="0 0 200 188" fill="none" xmlns="http://www.w3.org/2000/svg">
<ellipse cx="94.9591" cy="93.733" rx="94.9591" ry="93.733" fill="#FEF1E1"/>
<path d="M133.496 152.821C134.303 152.41 134.422 151.23 133.966 150.456C133.509 149.682 132.649 149.219 131.846 148.839C129.913 147.945 127.884 147.275 125.799 146.841C124.855 146.64 123.605 146.107 123.842 145.171C124.013 144.424 124.983 144.245 125.75 144.231C137.16 144.057 148.443 147.108 159.848 146.854C160.603 146.854 161.441 146.771 161.959 146.22C162.613 145.525 162.437 144.406 162.069 143.528C160.033 138.65 154.17 136.748 148.93 135.905C136.998 133.977 124.825 134.528 112.739 134.663C88.6685 134.925 64.5323 133.514 40.5497 135.603C40.0419 135.602 39.5436 135.741 39.1104 136.005C38.6829 136.382 38.42 136.911 38.3775 137.478C37.9694 140.385 37.8026 145.158 40.5497 146.22C43.2969 147.283 48.8482 145.053 51.7884 144.839C49.7214 148.528 76.7584 143.222 89.2127 144.157C97.3694 144.7 105.438 146.166 113.261 148.528C116.855 149.643 120.493 151.837 124.166 152.506C125.298 152.711 126.448 152.572 127.589 152.628C129.248 152.711 131.951 153.603 133.496 152.821Z" fill="url(#paint0_linear)"/>
<g clip-path="url(#clip0)">
<path d="M149.582 69.5668H149.087V55.9978C149.087 54.9665 148.884 53.9452 148.489 52.9924C148.094 52.0396 147.516 51.1739 146.787 50.4446C146.057 49.7153 145.192 49.1369 144.239 48.7422C143.286 48.3475 142.265 48.1444 141.233 48.1444H112.486C111.454 48.1444 110.433 48.3475 109.48 48.7422C108.527 49.1369 107.662 49.7154 106.932 50.4446C106.203 51.1739 105.625 52.0396 105.23 52.9924C104.835 53.9452 104.632 54.9665 104.632 55.9978V130.438C104.632 131.47 104.835 132.491 105.23 133.444C105.625 134.397 106.203 135.262 106.932 135.992C107.662 136.721 108.527 137.299 109.48 137.694C110.433 138.089 111.454 138.292 112.486 138.292H141.233C142.265 138.292 143.286 138.089 144.239 137.694C145.192 137.299 146.057 136.721 146.787 135.992C147.516 135.262 148.094 134.397 148.489 133.444C148.884 132.491 149.087 131.47 149.087 130.438V79.2255H149.582V69.5668Z" fill="#F28705"/>
<path d="M141.55 50.1876H137.798C137.97 50.6107 138.036 51.0697 137.989 51.5243C137.943 51.9788 137.785 52.4149 137.53 52.7942C137.275 53.1734 136.931 53.4841 136.528 53.699C136.125 53.9139 135.675 54.0263 135.218 54.0263H118.749C118.292 54.0263 117.842 53.9139 117.439 53.699C117.035 53.4841 116.691 53.1734 116.436 52.7942C116.181 52.4149 116.024 51.9788 115.977 51.5243C115.93 51.0697 115.996 50.6107 116.169 50.1876H112.664C111.894 50.1876 111.131 50.3393 110.42 50.6341C109.708 50.9288 109.062 51.3608 108.517 51.9054C107.972 52.45 107.54 53.0965 107.246 53.8081C106.951 54.5196 106.799 55.2822 106.799 56.0524V130.384C106.799 131.154 106.951 131.917 107.246 132.628C107.54 133.34 107.972 133.986 108.517 134.531C109.062 135.076 109.708 135.508 110.42 135.802C111.131 136.097 111.894 136.249 112.664 136.249H141.55C142.32 136.249 143.083 136.097 143.795 135.802C144.506 135.508 145.153 135.076 145.697 134.531C146.242 133.986 146.674 133.34 146.969 132.628C147.263 131.917 147.415 131.154 147.415 130.384V56.0524C147.415 54.497 146.797 53.0052 145.697 51.9054C144.597 50.8055 143.106 50.1876 141.55 50.1876Z" fill="white"/>
<path d="M142.343 61.7987H111.872V87.9346H142.343V61.7987Z" fill="#E6E6E6"/>
<path d="M120.914 93.3847C122.145 93.3847 123.143 92.3865 123.143 91.1551C123.143 89.9237 122.145 88.9255 120.914 88.9255C119.682 88.9255 118.684 89.9237 118.684 91.1551C118.684 92.3865 119.682 93.3847 120.914 93.3847Z" fill="#1D5377"/>
<path d="M122.029 90.9693H121.1V90.0403H120.728V90.9693H119.799V91.3409H120.728V92.27H121.1V91.3409H122.029V90.9693Z" fill="white"/>
<path d="M132.681 93.3847C133.912 93.3847 134.911 92.3865 134.911 91.1551C134.911 89.9237 133.912 88.9255 132.681 88.9255C131.45 88.9255 130.451 89.9237 130.451 91.1551C130.451 92.3865 131.45 93.3847 132.681 93.3847Z" fill="#1D5377"/>
<path d="M133.796 91.3409V90.9693H131.566V91.3409H133.796Z" fill="white"/>
<path d="M128.244 65.0582H125.836C125.751 65.0582 125.67 65.0919 125.61 65.1517C125.55 65.2116 125.516 65.2928 125.516 65.3775V66.4344C125.516 66.5191 125.55 66.6003 125.61 66.6602C125.67 66.72 125.751 66.7537 125.836 66.7537H126.235V68.3373H127.845V66.7537H128.244C128.328 66.7537 128.409 66.72 128.469 66.6602C128.529 66.6003 128.563 66.5191 128.563 66.4344V65.3775C128.563 65.2928 128.529 65.2116 128.469 65.1517C128.409 65.0919 128.328 65.0582 128.244 65.0582Z" fill="#F28705"/>
<path d="M130.655 74.7313C129.181 72.5734 128.427 70.0041 128.502 67.3914C128.503 67.3312 128.483 67.2723 128.446 67.2248C128.409 67.1773 128.357 67.1441 128.298 67.1309V66.6742H125.755V67.1245H125.72C125.685 67.1246 125.651 67.1314 125.62 67.1445C125.588 67.1577 125.559 67.177 125.535 67.2012C125.511 67.2255 125.492 67.2543 125.479 67.2859C125.466 67.3176 125.459 67.3516 125.459 67.3858C125.459 67.3922 125.459 67.3985 125.46 67.4048C125.66 70.1977 124.984 72.7023 123.43 74.9186C123.341 75.046 123.295 75.1989 123.3 75.3544L123.578 83.9563C123.585 84.1482 123.665 84.33 123.803 84.464C123.94 84.5979 124.124 84.6735 124.316 84.675H130.069C130.263 84.6734 130.449 84.5961 130.587 84.4595C130.725 84.3229 130.804 84.1378 130.807 83.9436L130.914 75.5919C130.918 75.2854 130.827 74.9852 130.655 74.7313Z" fill="#3F3D56"/>
<path opacity="0.2" d="M127.742 65.4026C127.742 65.5853 127.669 65.7605 127.54 65.8897C127.411 66.0188 127.235 66.0914 127.053 66.0914C126.87 66.0914 126.695 66.0188 126.566 65.8897C126.437 65.7605 126.364 65.5853 126.364 65.4026" fill="black"/>
<path d="M129.745 77.5886H129.048C128.982 77.157 128.763 76.7636 128.432 76.4793C128.1 76.1951 127.678 76.0388 127.241 76.0388C126.805 76.0388 126.383 76.1951 126.051 76.4793C125.72 76.7636 125.501 77.157 125.435 77.5886H124.738C124.664 77.5886 124.591 77.6046 124.523 77.6355C124.456 77.6665 124.396 77.7116 124.348 77.7679C124.3 77.8241 124.264 77.8902 124.244 77.9614C124.223 78.0327 124.219 78.1075 124.23 78.1808L124.986 83.0988H129.331L130.25 78.1973C130.264 78.1231 130.261 78.0467 130.242 77.9736C130.223 77.9005 130.189 77.8324 130.14 77.7743C130.092 77.7162 130.032 77.6694 129.963 77.6373C129.895 77.6052 129.82 77.5886 129.745 77.5886V77.5886Z" fill="#F28705"/>
<path d="M142.343 98.5871H111.872V124.723H142.343V98.5871Z" fill="#E6E6E6"/>
<path d="M120.914 130.173C122.145 130.173 123.143 129.175 123.143 127.943C123.143 126.712 122.145 125.714 120.914 125.714C119.682 125.714 118.684 126.712 118.684 127.943C118.684 129.175 119.682 130.173 120.914 130.173Z" fill="#1D5377"/>
<path d="M122.029 127.758H121.1V126.829H120.728V127.758H119.799V128.129H120.728V129.058H121.1V128.129H122.029V127.758Z" fill="white"/>
<path d="M132.681 130.173C133.912 130.173 134.911 129.175 134.911 127.943C134.911 126.712 133.912 125.714 132.681 125.714C131.45 125.714 130.451 126.712 130.451 127.943C130.451 129.175 131.45 130.173 132.681 130.173Z" fill="#1D5377"/>
<path d="M133.796 128.129V127.758H131.566V128.129H133.796Z" fill="white"/>
<path d="M133.106 117.154L133.123 117.154C133.696 117.159 134.258 116.991 134.735 116.672C135.211 116.352 135.581 115.897 135.795 115.365C136.469 113.66 136.627 111.795 136.248 110.002C135.87 108.209 134.973 106.566 133.669 105.279C132.364 103.992 130.709 103.117 128.911 102.763C127.113 102.409 125.25 102.592 123.555 103.289C121.86 103.986 120.408 105.166 119.378 106.683C118.349 108.199 117.789 109.985 117.767 111.818C117.745 113.65 118.263 115.449 119.256 116.989C120.248 118.53 121.672 119.744 123.35 120.481C123.872 120.712 124.451 120.78 125.012 120.676C125.573 120.572 126.089 120.301 126.493 119.899C127.359 119.028 128.39 118.337 129.525 117.866C130.66 117.395 131.877 117.153 133.106 117.154Z" fill="white"/>
<path d="M128.307 114.326C130.011 114.326 131.392 112.945 131.392 111.241C131.392 109.538 130.011 108.156 128.307 108.156C126.603 108.156 125.222 109.538 125.222 111.241C125.222 112.945 126.603 114.326 128.307 114.326Z" fill="#F9A825"/>
<path d="M172.458 119.262C172.433 120.172 171.981 121.014 171.531 121.807C169.49 125.417 167.199 128.973 164.033 131.651C159.379 135.589 153.286 137.286 147.411 138.875C147.937 138.619 148.569 135.907 148.804 135.311C149.259 134.142 149.684 132.965 150.123 131.79C150.812 129.935 152.267 128.444 153.681 127.079C156.878 123.999 160.759 121.719 165.005 120.425C167.422 119.686 169.931 119.294 172.458 119.262Z" fill="#F9A825"/>
<path d="M149.781 121.003C150.261 117.646 150.754 114.24 152.106 111.131C153.457 108.022 155.798 105.185 158.978 104.003C159.07 108.813 159.161 113.621 159.25 118.428C159.302 121.207 159.351 124.038 158.553 126.7C157.155 131.365 152.302 136.839 147.629 138.379C146.934 136.139 148.098 132.744 148.43 130.417L149.781 121.003Z" fill="#1D5377"/>
</g>
<g clip-path="url(#clip1)">
<path d="M83.097 70.1118H82.6017V56.5428C82.6017 55.5115 82.3986 54.4902 82.0039 53.5374C81.6093 52.5846 81.0308 51.7188 80.3015 50.9896C79.5723 50.2603 78.7065 49.6819 77.7537 49.2872C76.8009 48.8925 75.7797 48.6894 74.7483 48.6894H46.0006C44.9693 48.6894 43.948 48.8925 42.9952 49.2872C42.0424 49.6819 41.1766 50.2603 40.4474 50.9896C39.7181 51.7188 39.1397 52.5846 38.745 53.5374C38.3503 54.4902 38.1472 55.5115 38.1472 56.5428V130.983C38.1472 132.015 38.3503 133.036 38.745 133.989C39.1397 134.942 39.7181 135.807 40.4474 136.537C41.1766 137.266 42.0424 137.844 42.9952 138.239C43.948 138.634 44.9693 138.837 46.0006 138.837H74.7483C75.7797 138.837 76.8009 138.634 77.7537 138.239C78.7065 137.844 79.5723 137.266 80.3015 136.537C81.0308 135.807 81.6093 134.942 82.0039 133.989C82.3986 133.036 82.6017 132.015 82.6017 130.983V79.7704H83.097V70.1118Z" fill="#F28705"/>
<path d="M75.0652 50.7326H71.3126C71.4852 51.1557 71.5511 51.6147 71.5045 52.0693C71.4578 52.5238 71.3001 52.9599 71.0453 53.3391C70.7904 53.7184 70.4462 54.0291 70.0429 54.244C69.6397 54.4589 69.1898 54.5713 68.7329 54.5713H52.2636C51.8067 54.5713 51.3568 54.4589 50.9535 54.244C50.5503 54.0291 50.2061 53.7184 49.9512 53.3391C49.6963 52.9599 49.5386 52.5238 49.492 52.0693C49.4454 51.6147 49.5113 51.1557 49.6838 50.7326H46.179C45.4088 50.7326 44.6461 50.8843 43.9346 51.179C43.223 51.4738 42.5765 51.9058 42.0319 52.4504C41.4873 52.995 41.0553 53.6415 40.7606 54.353C40.4658 55.0646 40.3141 55.8272 40.3141 56.5974V130.929C40.3141 131.699 40.4658 132.462 40.7606 133.173C41.0553 133.885 41.4873 134.531 42.0319 135.076C42.5765 135.621 43.223 136.053 43.9346 136.347C44.6461 136.642 45.4088 136.794 46.179 136.794H75.0652C75.8354 136.794 76.598 136.642 77.3095 136.347C78.0211 136.053 78.6676 135.621 79.2122 135.076C79.7568 134.531 80.1888 133.885 80.4836 133.173C80.7783 132.462 80.93 131.699 80.93 130.929V56.5974C80.93 55.042 80.3121 53.5502 79.2122 52.4504C78.1124 51.3505 76.6206 50.7326 75.0652 50.7326Z" fill="#FDFFFD"/>
<rect x="44.1417" y="65.4758" width="32.6975" height="52.5886" fill="#ECECEC"/>
<g clip-path="url(#clip2)">
<path d="M73.2629 85.4008C72.7926 85.4008 72.4114 85.0195 72.4114 84.5493V80.1854C72.4114 79.7745 72.0772 79.4403 71.6664 79.4403H67.3025C66.8322 79.4403 66.451 79.059 66.451 78.5888C66.451 78.1186 66.8322 77.7373 67.3025 77.7373H71.6664C73.0162 77.7373 74.1144 78.8355 74.1144 80.1854V84.5493C74.1144 85.0195 73.7332 85.4008 73.2629 85.4008Z" fill="#1D5377"/>
<path d="M47.718 85.4008C47.2477 85.4008 46.8665 85.0195 46.8665 84.5493V80.1854C46.8665 78.8355 47.9647 77.7373 49.3145 77.7373H53.6785C54.1488 77.7373 54.53 78.1186 54.53 78.5888C54.53 79.059 54.1488 79.4403 53.6785 79.4403H49.3145C48.9037 79.4403 48.5695 79.7745 48.5695 80.1854V84.5493C48.5695 85.0195 48.1883 85.4008 47.718 85.4008Z" fill="#1D5377"/>
<path d="M53.6785 104.985H49.3145C47.9647 104.985 46.8665 103.887 46.8665 102.537V98.1733C46.8665 97.703 47.2477 97.3218 47.718 97.3218C48.1883 97.3218 48.5695 97.703 48.5695 98.1733V102.537C48.5695 102.948 48.9037 103.282 49.3145 103.282H53.6785C54.1488 103.282 54.53 103.664 54.53 104.134C54.53 104.604 54.1488 104.985 53.6785 104.985Z" fill="#1D5377"/>
<path d="M71.6664 104.985H67.3025C66.8322 104.985 66.451 104.604 66.451 104.134C66.451 103.664 66.8322 103.282 67.3025 103.282H71.6664C72.0772 103.282 72.4114 102.948 72.4114 102.537V98.1733C72.4114 97.703 72.7926 97.3218 73.2629 97.3218C73.7332 97.3218 74.1144 97.703 74.1144 98.1733V102.537C74.1144 103.887 73.0162 104.985 71.6664 104.985Z" fill="#1D5377"/>
<path d="M57.1909 90.5098H52.7205C51.3707 90.5098 50.2725 89.4116 50.2725 88.0617V83.5914C50.2725 82.2415 51.3707 81.1433 52.7205 81.1433H57.1909C58.5407 81.1433 59.639 82.2415 59.639 83.5914V88.0617C59.639 89.4116 58.5407 90.5098 57.1909 90.5098ZM52.7205 82.8463C52.3097 82.8463 51.9755 83.1805 51.9755 83.5914V88.0617C51.9755 88.4726 52.3097 88.8068 52.7205 88.8068H57.1909C57.6018 88.8068 57.936 88.4726 57.936 88.0617V83.5914C57.936 83.1805 57.6018 82.8463 57.1909 82.8463H52.7205Z" fill="#1D5377"/>
<path d="M57.1909 101.579H52.7205C51.3707 101.579 50.2725 100.481 50.2725 99.1312V94.6608C50.2725 93.311 51.3707 92.2128 52.7205 92.2128H57.1909C58.5407 92.2128 59.639 93.311 59.639 94.6608V99.1312C59.639 100.481 58.5407 101.579 57.1909 101.579ZM52.7205 93.9158C52.3097 93.9158 51.9755 94.25 51.9755 94.6608V99.1312C51.9755 99.542 52.3097 99.8763 52.7205 99.8763H57.1909C57.6018 99.8763 57.936 99.542 57.936 99.1312V94.6608C57.936 94.25 57.6018 93.9158 57.1909 93.9158H52.7205Z" fill="#1D5377"/>
<path d="M68.2604 90.5098H63.79C62.4402 90.5098 61.342 89.4116 61.342 88.0617V83.5914C61.342 82.2415 62.4402 81.1433 63.79 81.1433H68.2604C69.6102 81.1433 70.7084 82.2415 70.7084 83.5914V88.0617C70.7084 89.4116 69.6102 90.5098 68.2604 90.5098ZM63.79 82.8463C63.3792 82.8463 63.045 83.1805 63.045 83.5914V88.0617C63.045 88.4726 63.3792 88.8068 63.79 88.8068H68.2604C68.6712 88.8068 69.0054 88.4726 69.0054 88.0617V83.5914C69.0054 83.1805 68.6712 82.8463 68.2604 82.8463H63.79Z" fill="#1D5377"/>
<path d="M69.3248 96.4703H67.3025V93.5965C67.3025 92.8335 66.6818 92.2128 65.9188 92.2128H62.7256C61.9627 92.2128 61.342 92.8335 61.342 93.5965V96.7896C61.342 97.5525 61.9627 98.1733 62.7256 98.1733H65.5995V100.196C65.5995 100.959 66.2201 101.579 66.9831 101.579H69.3248C70.0878 101.579 70.7084 100.959 70.7084 100.196V97.8539C70.7084 97.091 70.0878 96.4703 69.3248 96.4703ZM63.045 93.9158H65.5995V96.4703H63.045V93.9158ZM69.0054 99.8763H67.3025V98.1733H69.0054V99.8763Z" fill="#1D5377"/>
<path d="M55.3815 87.1038H54.53C54.0597 87.1038 53.6785 86.7226 53.6785 86.2523V85.4008C53.6785 84.9306 54.0597 84.5493 54.53 84.5493H55.3815C55.8518 84.5493 56.233 84.9306 56.233 85.4008V86.2523C56.233 86.7226 55.8518 87.1038 55.3815 87.1038Z" fill="#1D5377"/>
<path d="M66.451 87.1038H65.5995C65.1292 87.1038 64.748 86.7226 64.748 86.2523V85.4008C64.748 84.9306 65.1292 84.5493 65.5995 84.5493H66.451C66.9212 84.5493 67.3025 84.9306 67.3025 85.4008V86.2523C67.3025 86.7226 66.9212 87.1038 66.451 87.1038Z" fill="#1D5377"/>
<path d="M55.3815 98.1733H54.53C54.0597 98.1733 53.6785 97.792 53.6785 97.3218V96.4703C53.6785 96 54.0597 95.6188 54.53 95.6188H55.3815C55.8518 95.6188 56.233 96 56.233 96.4703V97.3218C56.233 97.792 55.8518 98.1733 55.3815 98.1733Z" fill="#1D5377"/>
</g>
<rect x="53.951" y="124.059" width="14.7139" height="5.17712" rx="2.58856" fill="#FEF1E1"/>
</g>
<path d="M13.079 117.11C13.1063 118.032 13.5559 118.879 14.0054 119.682C16.0518 123.326 18.3406 126.913 21.5014 129.619C26.1553 133.593 32.2507 135.304 38.1362 136.91C37.6076 136.652 36.9755 133.915 36.7411 133.313C36.2861 132.133 35.861 130.942 35.4223 129.759C34.733 127.886 33.2779 126.379 31.8801 125.001C28.6767 121.892 24.791 119.591 20.5395 118.285C18.1198 117.541 15.6082 117.146 13.079 117.11Z" fill="url(#paint1_linear)"/>
<path d="M37.8329 119.415C37.3533 116.027 36.8601 112.592 35.5086 109.451C34.1571 106.31 31.8165 103.463 28.6367 102.259L28.3642 116.822C28.3097 119.624 28.2634 122.482 29.059 125.169C30.4596 129.878 35.3097 135.403 39.9854 136.96C40.6775 134.696 39.5141 131.272 39.168 128.923L37.8329 119.415Z" fill="#1D5377"/>
<path d="M82.3161 62.9739C82.4664 62.9025 82.5998 62.7992 82.707 62.671C82.8142 62.5429 82.8928 62.3929 82.9373 62.2313C82.5789 62.1568 82.2114 62.1383 81.8474 62.1763L80.8038 62.2285L80.1172 62.2643C79.6894 62.289 79.6812 62.4788 79.8447 62.7758C79.921 62.9161 80.1172 63.0289 80.1989 63.1801C80.2806 63.3314 80.2943 63.4937 80.3924 63.6092C80.6648 63.9392 80.7411 63.7522 81.0926 63.5377C81.4441 63.3232 81.9155 63.1939 82.3161 62.9739Z" fill="white"/>
<path d="M77.2098 36.9552L87.1738 29.6496L81.3048 37.0682L77.2098 36.9552Z" fill="#F28705"/>
<path d="M86.4996 30.776L83.7092 40.6339L80.6306 38.1946L86.4996 30.776Z" fill="#F28705"/>
<path d="M86.4996 30.776L83.7092 40.6339L80.6306 38.1946L86.4996 30.776Z" fill="url(#paint2_linear)"/>
<path d="M81.1599 41.9624L80.4732 37.8465L86.3422 30.428L81.1599 41.9624Z" fill="#F28705"/>
<path d="M87.1738 29.6496L80.9302 36.4132L77.2098 36.9552L81.3048 37.0682L87.1738 29.6496Z" fill="url(#paint3_linear)"/>
<path d="M95.7681 50.4156C95.9351 50.3554 96.0831 50.2683 96.2021 50.1603C96.3211 50.0522 96.4083 49.9258 96.4578 49.7896C96.0599 49.7268 95.6519 49.7112 95.2479 49.7432L94.0895 49.7873L93.3273 49.8174C92.8524 49.8383 92.8433 49.9982 93.0248 50.2486C93.1095 50.3669 93.3273 50.4619 93.418 50.5894C93.5087 50.717 93.5239 50.8538 93.6327 50.9511C93.9352 51.2293 94.0199 51.0717 94.4101 50.8908C94.8003 50.71 95.3235 50.601 95.7681 50.4156Z" fill="white"/>
<path d="M101.831 27.6899L109.528 39.0836L102.297 31.9434L101.831 27.6899Z" fill="#F28705"/>
<path d="M108.323 37.2972L99.6292 33.0987L101.263 30.2966L108.323 37.2972Z" fill="#F28705"/>
<path d="M107.618 37.4775L98.9236 33.279L100.557 30.4769L107.618 37.4775Z" fill="url(#paint4_linear)"/>
<path d="M97.0399 30.3786L100.478 30.263L107.717 37.4946L97.0399 30.3786Z" fill="#F28705"/>
<path d="M109.439 39.1351L102.793 31.6543L101.776 27.722L102.297 31.9434L109.439 39.1351Z" fill="url(#paint5_linear)"/>
<defs>
<linearGradient id="paint0_linear" x1="114.257" y1="200.64" x2="79.5423" y2="72.345" gradientUnits="userSpaceOnUse">
<stop offset="0.01"/>
<stop offset="0.13" stop-opacity="0.69"/>
<stop offset="0.25" stop-opacity="0.32"/>
<stop offset="1" stop-opacity="0"/>
</linearGradient>
<linearGradient id="paint1_linear" x1="2944.77" y1="4086.36" x2="264.248" y2="6976.29" gradientUnits="userSpaceOnUse">
<stop offset="0.01" stop-color="#F9A825"/>
<stop offset="0.13" stop-opacity="0.69"/>
<stop offset="0.25" stop-opacity="0.32"/>
<stop offset="1" stop-opacity="0"/>
</linearGradient>
<linearGradient id="paint2_linear" x1="2119.27" y1="-858.493" x2="2508.64" y2="-691.859" gradientUnits="userSpaceOnUse">
<stop offset="0.01"/>
<stop offset="0.13" stop-opacity="0.69"/>
<stop offset="0.25" stop-opacity="0.32"/>
<stop offset="1" stop-opacity="0"/>
</linearGradient>
<linearGradient id="paint3_linear" x1="2850.06" y1="-1476.7" x2="2925.34" y2="-1347.52" gradientUnits="userSpaceOnUse">
<stop offset="0.01"/>
<stop offset="0.13" stop-opacity="0.69"/>
<stop offset="0.25" stop-opacity="0.32"/>
<stop offset="1" stop-opacity="0"/>
</linearGradient>
<linearGradient id="paint4_linear" x1="1136.68" y1="2231.3" x2="942.313" y2="2536.91" gradientUnits="userSpaceOnUse">
<stop offset="0.01"/>
<stop offset="0.13" stop-opacity="0.69"/>
<stop offset="0.25" stop-opacity="0.32"/>
<stop offset="1" stop-opacity="0"/>
</linearGradient>
<linearGradient id="paint5_linear" x1="1796.27" y1="3125.61" x2="1697.51" y2="3182.1" gradientUnits="userSpaceOnUse">
<stop offset="0.01"/>
<stop offset="0.13" stop-opacity="0.69"/>
<stop offset="0.25" stop-opacity="0.32"/>
<stop offset="1" stop-opacity="0"/>
</linearGradient>
<clipPath id="clip0">
<rect width="95.3678" height="90.1474" fill="white" transform="translate(104.632 48.1444)"/>
</clipPath>
<clipPath id="clip1">
<rect width="95.3678" height="90.1474" fill="white" transform="translate(38.1471 48.6894)"/>
</clipPath>
<clipPath id="clip2">
<rect width="27.248" height="27.248" fill="white" transform="translate(46.8665 77.7373)"/>
</clipPath>
</defs>
</svg>
